<?xml version="1.0" standalone="no"?>
<!DOCTYPE svg PUBLIC "-//W3C//DTD SVG 1.1//EN" "http://www.w3.org/Graphics/SVG/1.1/DTD/svg11.dtd" >
<svg>
<metadata>
Created by FontForge 20090622 at Tue Apr  4 12:33:58 2017
 By deploy user
Copyright (c) Gophmann Alexandra Leopoldovna, 2005. All rights reserved.
</metadata>
<defs>
<font id="Annabelle" horiz-adv-x="483" >
  <font-face 
    font-family="Annabelle"
    font-weight="400"
    font-stretch="normal"
    units-per-em="1000"
    panose-1="3 0 4 0 0 0 0 0 0 0"
    ascent="800"
    descent="-200"
    x-height="395"
    cap-height="810"
    bbox="-689.082 -397 2053 996"
    underline-thickness="20"
    underline-position="-123"
    unicode-range="U+0020-U+F002"
  />
<missing-glyph horiz-adv-x="500" 
d="M63 0v865h375v-865h-375zM125 63h250v740h-250v-740z" />
    <glyph glyph-name=".notdef" horiz-adv-x="500" 
d="M63 0v865h375v-865h-375zM125 63h250v740h-250v-740z" />
    <glyph glyph-name=".null" horiz-adv-x="0" 
 />
    <glyph glyph-name="nonmarkingreturn" horiz-adv-x="366" 
 />
    <glyph glyph-name="space" unicode=" " horiz-adv-x="366" 
 />
    <glyph glyph-name="exclam" unicode="!" horiz-adv-x="516" 
d="M580 729l-407 -615h-32l367 615h72zM115 3q-28 0 -28 29q0 19 15 35t34 16q28 0 28 -29q0 -19 -15 -35t-34 -16z" />
    <glyph glyph-name="quotedbl" unicode="&#x22;" horiz-adv-x="393" 
d="M391 758q-4 -47 -52 -85t-96 -38q-7 0 -7 7q1 6 8 5q24 -4 65.5 20.5t42.5 44.5q1 5 -14 8q-36 7 -33 40q1 17 15 30t30 14q20 0 31 -12.5t10 -33.5zM273 758q-4 -47 -52 -85t-96 -38q-7 0 -7 7q1 6 8 5q24 -4 65.5 20.5t42.5 44.5q1 5 -14 8q-36 7 -33 40q1 17 15 30
t30 14q20 0 31 -12.5t10 -33.5z" />
    <glyph glyph-name="numbersign" unicode="#" horiz-adv-x="601" 
d="M589 695l-107 -183h89l-21 -35h-89l-85 -145h89l-20 -35h-89l-122 -207h-35l121 207h-108l-122 -207h-35l121 207h-93l21 35h93l84 145h-92l21 35h92l107 183h36l-107 -183h108l107 183h36zM425 477h-108l-85 -145h109z" />
    <glyph glyph-name="dollar" unicode="$" horiz-adv-x="694" 
d="M775 734l-63 -86q30 -9 35 -27q4 -15 -10.5 -28.5t-29.5 -16.5q-22 -6 -22 10q0 7 11 9q29 5 22 24q-2 6 -19 10l-150 -209l4 -5q56 -72 51 -112q-10 -94 -109 -158q-86 -56 -190 -65l-37 -52q-13 -17 -21 -17q-13 0 -13 11q0 3 3 6l36 51q-18 0 -34 2l-37 -53
q-13 -17 -21 -17q-13 0 -13 11q0 3 3 6l40 56q-117 19 -146 90q-8 19 -8 37q0 80 122 125q92 34 232 27l69 97q-17 43 -3 82q28 84 138 105l63 87q14 21 22 21q7 0 10 -7t-1 -14l-59 -82q5 1 11 1q12 1 24 0l59 81q14 21 22 21q7 0 10 -7t-1 -14zM670 632q-18 0 -37 -3
l-116 -161q6 -12 16 -26zM595 619q-83 -29 -91 -92q-2 -15 2 -32zM509 408q-9 14 -16 26l-53 -73q19 -2 33 -4zM569 299q0 25 -45 87l-27 -38q12 -11 -10 -14l-164 -228q27 3 51 11q92 26 145 78q50 49 50 104zM458 336q-16 1 -35 1l-168 -234q18 -1 35 0zM391 335
q-93 -7 -176 -41q-107 -44 -107 -104q0 -67 119 -84z" />
    <glyph glyph-name="percent" unicode="%" horiz-adv-x="798" 
d="M426 515q-46 -87 -123 -149.5t-142 -62.5q-85 0 -85 94q0 58 36 127q46 88 123.5 150t142.5 62q85 0 85 -93q0 -59 -37 -128zM756 741l-650 -731h-47l650 731h47zM698 208q-46 -88 -123.5 -150t-142.5 -62q-85 0 -85 93q0 59 36 128q46 87 123.5 149.5t142.5 62.5
q85 0 85 -94q0 -58 -36 -127zM398 520q36 66 36 114q0 58 -47 58q-46 0 -108 -52.5t-103 -128.5q-35 -66 -35 -114q0 -59 46 -59t108.5 53t102.5 129zM669 213q36 65 36 113q0 59 -47 59q-45 0 -107.5 -53t-103.5 -129q-35 -66 -35 -113q0 -59 46 -59t108.5 53t102.5 129z
" />
    <glyph glyph-name="ampersand" unicode="&#x26;" horiz-adv-x="963" 
d="M935 316q-6 -50 -44.5 -80.5t-89.5 -30.5q-33 0 -80 11q-55 13 -58 13q13 -26 13 -49q0 -20 -9 -41q-47 -104 -183 -141q-98 -27 -187 -27q-178 0 -226 108q-13 30 -13 60q0 88 108 175q82 66 212 122q-58 46 -51 105q11 105 196 196q115 57 244 57q84 0 114 -30
q20 -21 20 -52q0 -53 -47 -100q-35 -36 -76 -36q-16 0 -28 6q-26 13 -26 48q0 13 5 32q3 14 12 16q4 1 6 -3t1 -11q-13 -48 15 -62q8 -4 18 -4q30 0 64 36.5t34 75.5q0 22 -13 37q-26 28 -92 28q-112 0 -227 -66q-62 -35 -96.5 -85.5t-34.5 -99.5q0 -39 20 -65q80 25 144 27
q83 4 87 -39q5 -47 -74 -60q-20 -3 -43 -3q-89 0 -150 37q-90 -38 -165 -122q-79 -88 -79 -161q0 -25 10 -45q46 -93 188 -93q60 0 124 17q58 15 111 58q61 50 61 99q0 10 -2 20q-15 53 -103 53q-37 0 -67 -13q-69 -28 -88 -91q-4 -13 0 -14t13 9q6 6 18 8q14 1 21.5 -6.5
t7.5 -19.5q0 -34 -40 -34q-24 0 -35 19q-7 11 -7 27q0 53 59 104q74 64 183 59q50 -2 116 -23q73 -22 92 -25q40 -4 68 21q22 19 27 43q3 17 -8 19q-4 0 -11 -4.5t-11 -4.5q-10 0 -18 8t-7 20q1 15 14.5 24t29.5 5q38 -8 33 -62zM640 447q-4 20 -53 20q-17 0 -37 -2
q-42 -6 -95 -25q45 -34 122 -33q32 1 49 12.5t14 27.5z" />
    <glyph glyph-name="quotesingle" unicode="'" horiz-adv-x="338" 
d="M380 751q-3 -46 -51 -84.5t-97 -38.5q-7 0 -6 7q0 6 7 5q24 -3 65.5 21.5t43.5 44.5q0 4 -15 7q-35 7 -33 40q1 18 15 31t30 13q20 1 31 -11.5t10 -34.5z" />
    <glyph glyph-name="parenleft" unicode="(" horiz-adv-x="470" 
d="M747 755q-130 -62 -228 -145.5t-201 -222.5q-82 -111 -128 -210.5t-77 -231.5h-22q50 298 178 475q70 97 194 191.5t273 161.5z" />
    <glyph glyph-name="parenright" unicode=")" horiz-adv-x="565" 
d="M708 763q-63 -320 -210 -500q-143 -174 -445 -315l-15 18q134 63 227 138.5t197 208.5q93 118 143 218q46 95 83 236z" />
    <glyph glyph-name="asterisk" unicode="*" horiz-adv-x="519" 
d="M472 646q3 -7 -6 -23t-18 -14q-6 1 -14.5 13t-10.5 13l-15 9v-19q0 -4 4.5 -15t4.5 -15q0 -13 -23 -13q-20 0 -23 9q-2 6 4 19t6 15v19l-15 -9q-9 -12 -29 -25q-8 0 -17 15t-4 22q3 6 18 8t18 4l15 8l-15 9q-15 1 -35 12q-5 7 3.5 22t17.5 15q6 0 15.5 -12t12.5 -14
l15 -8v16q0 4 -4.5 15t-4.5 16q0 13 22 13q24 0 24 -13q0 -5 -5 -16t-5 -15v-16l15 8q3 2 13 15q9 10 15 10q8 -1 17 -15q10 -18 3 -25q-4 -4 -18.5 -5.5t-16.5 -2.5l-15 -9l15 -8q16 -2 36 -13z" />
    <glyph glyph-name="plus" unicode="+" horiz-adv-x="552" 
d="M468 352l-19 -33h-193l-109 -194h-38l110 194h-193l19 33h192l109 194h38l-109 -194h193z" />
    <glyph glyph-name="comma" unicode="," horiz-adv-x="245" 
d="M182 35q-3 -47 -51.5 -85t-96.5 -38q-7 0 -6 7q0 6 7 5q24 -3 65.5 21.5t43.5 43.5q0 5 -15 8q-35 7 -33 40q1 18 15 31t30 13q20 0 31 -12t10 -34z" />
    <glyph glyph-name="hyphen" unicode="-" horiz-adv-x="443" 
d="M421 285l-21 -33h-289l20 33h290z" />
    <glyph glyph-name="hyphen" unicode="&#x2010;" horiz-adv-x="443" 
d="M421 285l-21 -33h-289l20 33h290z" />
    <glyph glyph-name="period" unicode="." horiz-adv-x="229" 
d="M151 40q-3 -18 -15 -30.5t-27 -12.5q-14 0 -22.5 12.5t-5.5 30.5t15.5 30.5t26.5 12.5q15 0 23 -12.5t5 -30.5z" />
    <glyph glyph-name="slash" unicode="/" horiz-adv-x="551" 
d="M752 803l-631 -850h-58l631 850h58z" />
    <glyph glyph-name="zero" unicode="0" horiz-adv-x="761" 
d="M677 377q-86 -164 -230 -280t-262 -116q-69 0 -106.5 43.5t-37.5 118.5q0 104 68 234q86 163 230 279t262 116q69 0 106.5 -43.5t37.5 -118.5q0 -104 -68 -233zM652 383q69 130 69 229q0 129 -107 129q-95 0 -218.5 -105t-203.5 -253q-69 -130 -69 -229q0 -129 107 -129
q95 0 218.5 105t203.5 253z" />
    <glyph glyph-name="one" unicode="1" horiz-adv-x="498" 
d="M590 748q0 -12 -10 -26l-91 -127q-84 -119 -153 -235l-129 -231q-57 -105 -67 -114q-15 -15 -108 -34q-15 -3 -17 2q-3 4 15 16q23 14 48 53l217 334q72 112 166 236l84 110q3 4 1 5q-2 0 -8 -2q-10 -4 -24 -13q-28 -18 -125 -74q-118 -69 -157.5 -87.5t-42.5 -6.5
q-2 6 8.5 15.5t24.5 15.5q22 7 287 160q35 20 61 20q20 0 20 -17z" />
    <glyph glyph-name="two" unicode="2" horiz-adv-x="815" 
d="M795 527q-43 -137 -191 -206q-53 -24 -292 -88q-187 -49 -273 -123q54 23 110 19q62 -5 166 -44q98 -37 141 -37q89 0 107 66q1 10 2.5 21.5t9.5 11.5q9 0 8 -11q-12 -139 -192 -139q-54 0 -154.5 34.5t-154.5 34.5q-38 0 -69 -19q-19 -12 -38 -35q-16 -19 -18 -19
q-10 0 -9 11q8 90 139 173q99 63 211 93q417 112 440 326q6 61 -35.5 95.5t-107.5 34.5q-102 0 -192 -62q-98 -68 -106 -165q-4 -39 25 -66.5t70 -27.5q79 0 134 53q49 47 72 129q2 7 11 7q10 0 9 -10q-7 -79 -73 -141q-68 -65 -153 -66q-55 -1 -91 33.5t-31 89.5
q9 108 122 185q103 70 217 70q82 0 139 -47.5t57 -121.5q0 -29 -10 -59z" />
    <glyph glyph-name="three" unicode="3" horiz-adv-x="722" 
d="M704 607q-8 -81 -86 -140q-63 -47 -155 -69q47 -17 74.5 -58.5t22.5 -92.5q-10 -119 -124 -188q-98 -60 -224 -60q-82 0 -142 40q-70 46 -64 125q3 32 25 61t53 29t37 -22q2 -6 2 -13q0 -15 -11.5 -27.5t-27.5 -12.5q-6 0 -14 2.5t-10 1.5q-13 -4 -15 -30q-6 -64 49 -99
q46 -30 117 -30q107 0 187 70q85 72 85 178q0 62 -66 116q-39 -7 -50 -7q-28 0 -27 14q1 10 22 16q16 5 29 5q20 0 43 -7q74 30 126 77q64 59 73 131q6 49 -27 82t-86 33q-73 0 -136 -42q-68 -46 -74 -116q-3 -35 20 -54t59 -19q43 0 85.5 31t45.5 71q1 11 11 11q9 0 8 -11
q-5 -51 -51 -90t-103 -39q-50 0 -79 29t-25 74q7 80 90 134q75 48 159 48q74 0 124 -38q56 -43 50 -114z" />
    <glyph glyph-name="four" unicode="4" horiz-adv-x="680" 
d="M624 561q0 -5 -3 -8q-150 -217 -222 -347q14 -2 26 -2q76 0 124 59q5 4 9 2q5 -1 4 -7q0 -2 -1 -4q-44 -77 -144 -77q-17 0 -34 2q-73 -133 -95 -152q-27 -23 -122 -34q-22 -3 -22 6q0 6 15 13q44 20 156 178q-44 9 -194 35q-45 -46 -84 -46q-26 0 -24 17q2 27 42 44
q35 15 67 11q93 94 183 217q55 74 161 236q8 12 27 22q28 15 64 32q12 0 0 -18q-238 -355 -415 -494q19 -4 192 -31q254 352 284 352q7 0 6 -6z" />
    <glyph glyph-name="five" unicode="5" horiz-adv-x="698" 
d="M840 746q4 -5 -1 -12q-39 -55 -137 -75q-52 -11 -156 -14q-30 0 -124 8l-124 -160q29 10 55 10q87 0 144 -60t50 -147q-12 -137 -124 -224q-104 -82 -242 -82q-74 0 -123 47t-43 121q3 32 24.5 61t53.5 29q30 0 37 -22q1 -6 1 -13q0 -15 -11.5 -27.5t-26.5 -12.5
q-6 0 -14.5 2.5t-10.5 1.5q-14 -5 -15 -30q-1 -58 34 -95t97 -39q118 -3 200 90q74 83 86 201q6 69 -34.5 119.5t-107.5 50.5q-30 0 -62.5 -16.5t-37.5 -16.5l-5 5l-3 8q47 54 138 172q94 124 98 128q7 9 21 5q4 -2 13 -14q12 -18 60 -29q43 -10 93 -10q114 0 184 40
q8 4 13 0z" />
    <glyph glyph-name="six" unicode="6" horiz-adv-x="761" 
d="M842 657q-1 -40 -30 -40q-13 0 -14 32q-4 86 -119 86q-106 0 -236 -93q-124 -88 -215 -218q-94 -136 -105 -250q-6 -67 31.5 -112t104.5 -43q100 3 177 103q71 92 92 220q2 12 2 23q0 43 -26 69.5t-63 27.5q-64 2 -124 -46q-63 -49 -69 -113q0 -4 -13 -10h-6q-8 0 -7 8
q6 76 78.5 135.5t152.5 58.5q75 -1 117 -50.5t36 -125.5q-12 -128 -117.5 -226.5t-233.5 -98.5q-92 0 -145.5 51.5t-53.5 139.5q0 127 107 266q99 127 248 217t274 96q56 2 105 -28q53 -33 52 -79z" />
    <glyph glyph-name="seven" unicode="7" horiz-adv-x="611" 
d="M727 746q-4 -45 -144 -200l-183 -197q-81 -95 -174 -218q-67 -90 -80 -98q-20 -13 -72 -28q-47 -13 -65 -13q-14 0 -14 10q0 6 10 10q43 20 163 147q96 102 177 200q52 64 144 151l154 142q-37 -16 -94 -10q-29 3 -99 22q-61 16 -99 16q-11 0 -22 -1q-53 -6 -96 -45
l-32 -33q-26 -26 -31 -26q-7 0 -6 8l1 6q36 62 98 111q70 55 132 55q42 0 120.5 -28t121.5 -28q54 0 73 52q3 5 7 5q11 0 10 -10z" />
    <glyph glyph-name="eight" unicode="8" horiz-adv-x="702" 
d="M698 630q-8 -88 -86 -143q-52 -36 -159 -68q48 -84 43 -171q-6 -107 -85 -180.5t-187 -73.5q-81 0 -132 42q-56 47 -49 126q16 181 316 258q-50 91 -45 146q8 91 75 147q64 53 157 53q67 0 110 -33q47 -38 42 -103zM663 619q2 12 2 23q0 46 -31.5 73t-83.5 27
q-61 0 -111 -40t-54 -102q-2 -37 20 -82l38 -74q199 54 220 175zM426 213q2 14 2 28q0 71 -58 156q-279 -63 -294 -233q-6 -68 38 -107q41 -38 114 -38q171 0 198 194z" />
    <glyph glyph-name="nine" unicode="9" horiz-adv-x="736" 
d="M91 -6q-56 -2 -105 28q-53 32 -52 78q1 41 30 41q13 0 14 -32q5 -87 119 -87q107 0 237 90q124 85 214 213q94 136 105 259q6 67 -31.5 112t-104.5 42q-100 -3 -178 -99q-73 -89 -93 -216q-2 -11 -2 -23q0 -44 27 -73.5t64 -30.5q64 -2 125.5 46t67.5 113q0 4 13 10h6
q8 0 8 -9q-7 -75 -79.5 -135t-152.5 -58q-75 1 -117 50t-36 125q12 129 117.5 227.5t233.5 98.5q92 0 145.5 -52t53.5 -140q0 -127 -107 -265q-99 -128 -248 -218t-274 -95z" />
    <glyph glyph-name="colon" unicode=":" horiz-adv-x="347" 
d="M310 345q-3 -18 -15.5 -30.5t-26.5 -12.5q-15 0 -23 12.5t-5 30.5t15.5 30.5t26.5 12.5q15 0 23 -12.5t5 -30.5zM151 40q-3 -18 -15 -30.5t-27 -12.5q-14 0 -22.5 12.5t-5.5 30.5t15.5 30.5t26.5 12.5q15 0 23 -12.5t5 -30.5z" />
    <glyph glyph-name="semicolon" unicode=";" horiz-adv-x="342" 
d="M310 345q-3 -18 -15.5 -30.5t-26.5 -12.5q-15 0 -23 12.5t-5 30.5t15.5 30.5t26.5 12.5q15 0 23 -12.5t5 -30.5zM182 35q-3 -47 -51.5 -85t-96.5 -38q-7 0 -6 7q0 6 7 5q24 -3 65.5 21.5t43.5 43.5q0 5 -15 8q-35 7 -33 40q1 18 15 31t30 13q20 0 31 -12t10 -34z" />
    <glyph glyph-name="less" unicode="&#x3c;" horiz-adv-x="573" 
d="M522 512l-419 -169l328 -166l-23 -28l-353 180l10 37l446 180z" />
    <glyph glyph-name="equal" unicode="=" 
d="M439 404l-11 -35h-362l10 35h363zM409 304l-13 -34h-359l13 34h359z" />
    <glyph glyph-name="greater" unicode="&#x3e;" horiz-adv-x="596" 
d="M542 345l-7 -37l-434 -180l-10 34l403 166l-344 166l20 30z" />
    <glyph glyph-name="question" unicode="?" horiz-adv-x="688" 
d="M697 570q-7 -94 -70 -156q-46 -45 -142 -88q-145 -64 -157 -71q-65 -36 -68 -81q-2 -19 11 -31t32 -12q48 0 52 51q0 6 8 6q10 0 9 -18q-5 -65 -72 -65q-32 0 -52 21.5t-17 50.5q6 58 110 125l152 89q150 106 150 215q0 49 -32.5 80t-91.5 31q-65 0 -118 -43
q-56 -45 -60 -109q-3 -38 16.5 -60.5t53.5 -20.5q33 1 63 20q35 22 37 54v15q1 10 9 10q12 0 10 -26q-3 -39 -42.5 -69.5t-79.5 -30.5q-46 0 -73.5 28.5t-23.5 74.5q5 76 75 131q67 53 143 53q78 0 125.5 -48t42.5 -126zM239 -1q-29 0 -29 34q0 20 15 38.5t35 18.5
q28 0 28 -33q0 -20 -14.5 -39t-34.5 -19z" />
    <glyph glyph-name="at" unicode="@" horiz-adv-x="890" 
d="M911 437q0 -83 -33 -157q-35 -77 -98 -127q-73 -58 -144 -58q-101 0 -101 86q0 16 3 37q-78 -120 -135 -120q-79 0 -79 100q0 96 83 191q87 98 181 98q50 0 55 -52q13 19 28 37q22 12 51 12q11 0 19 -6q-40 -51 -96 -159q-62 -117 -62 -156q0 -45 54 -45q99 0 171 112
q64 100 64 206q0 111 -72 177q-70 63 -183 63q-176 0 -316 -165q-135 -159 -135 -339q0 -120 68 -197q72 -81 190 -81q80 0 157 44q83 48 114 121l18 -13q-19 -78 -125 -132q-92 -47 -179 -47q-129 0 -208 84q-77 81 -77 211q0 125 69 250t179 203q118 83 245 83
q128 0 208 -65q86 -70 86 -196zM617 428q0 36 -25 36q-49 0 -137 -133q-84 -128 -84 -180q0 -29 33 -29q49 0 115 105q74 117 90 158q8 19 8 43z" />
    <glyph glyph-name="A" unicode="A" horiz-adv-x="1188" 
d="M1334 753q-96 -140 -203 -327q27 -14 42 -26.5t8 -23.5q-8 -11 -18 -2q-15 13 -45 29q-40 -72 -68 -129q-69 -141 -69 -209q0 -58 53 -58q48 0 81 39q8 10 13 8q10 -2 -2.5 -19t-41.5 -33q-35 -19 -67 -19q-21 0 -39 8q-62 31 -62 96q0 52 34 134q26 62 120 205
q-70 29 -137 45l-177 -197q-109 -118 -197 -183q-116 -85 -235 -110q-32 -7 -69 -7q-90 0 -149 39q-74 48 -76 144q-2 128 170 233q157 96 362 121q75 10 147 10q108 0 208 -21q243 234 292 266q56 38 93 38q40 0 40 -29q0 -11 -8 -22zM1313 782q-4 2 -11 2q-22 0 -62 -22
q-66 -38 -287 -270q69 -17 131 -44q64 96 149 208q63 83 80 103q14 16 0 23zM895 480q-89 18 -185 18q-98 0 -204 -19q-166 -31 -299 -112q-150 -92 -150 -193q0 -10 1 -21q18 -104 155 -104q59 0 123 19q114 33 221 109q79 54 191 162z" />
    <glyph glyph-name="B" unicode="B" horiz-adv-x="884" 
d="M965 572q-47 -109 -166 -182q41 -42 41 -109q0 -27 -8 -56q-23 -85 -106 -154q-72 -60 -174.5 -96.5t-194.5 -36.5q-119 0 -146 58q-7 15 -7 32q0 31 22 64q17 28 38 42q12 8 20 2q4 -4 -5 -20q-12 -22 -12 -37q0 -37 26 -61q37 -33 122 -33q68 0 129 22q102 37 171 97
q67 57 89 123q10 29 10 56q0 56 -38 94q-90 -49 -164 -49q-40 0 -72 14q-41 19 -41 55q0 32 39.5 52.5t95.5 17.5q81 -6 138 -51q76 67 115 160q12 30 12 62q0 50 -29 83q-33 37 -97 37q-24 0 -51 -6q-105 -21 -218 -96q-51 -121 -122 -260q-96 -189 -178 -294
q-84 -108 -136 -108q-45 0 -45 62q0 74 59 187q109 207 333 383q31 25 62 46q33 84 43 117q6 25 18 25q7 0 12 -7.5t5 -14.5q-2 -14 -31 -89q168 104 312 98q65 -3 106.5 -42.5t41.5 -101.5q0 -40 -19 -85zM753 400q-47 39 -120 44q-37 3 -62 -12t-23 -36q1 -18 24.5 -30
t56.5 -12q63 0 124 46zM456 622q-140 -106 -245 -242q-56 -73 -100 -156q-54 -99 -54 -149q0 -40 28 -40q64 0 229 291q67 119 142 296z" />
    <glyph glyph-name="C" unicode="C" horiz-adv-x="743" 
d="M938 700q-1 -8 -17 -6h-15q-9 -57 -52 -92q-31 -25 -68 -25q-44 0 -44 33q0 50 69 81q32 14 71 18q-1 63 -94 63q-73 0 -169 -36q-113 -41 -224 -120q-152 -108 -230 -225q-69 -103 -69 -194q0 -48 20 -85q54 -100 234 -100q50 0 95 8q129 25 232 87q70 43 111 90
q16 17 28 17q4 0 5 -2q7 -10 -17 -33q-65 -64 -120 -99q-98 -61 -232 -88q-74 -14 -143 -14q-189 0 -265 98q-42 53 -42 133q0 169 193 332q145 123 320 193q153 61 268 61q64 0 93 -21q32 -24 32 -64q31 0 30 -10zM881 691q-53 -9 -81 -31q-31 -23 -31 -45q0 -14 18 -14
q22 0 51 21q34 24 43 69z" />
    <glyph glyph-name="D" unicode="D" horiz-adv-x="886" 
d="M977 579q-17 -106 -82 -231q-85 -163 -212 -262q-178 -140 -350 -140q-51 0 -86 14t-43 34q-4 11 -4 23q0 49 69 100q58 43 127 64q59 17 131 17q71 0 103 -14q26 -12 15 -18q-3 -2 -51 4q-54 7 -59 7q-67 0 -138 -20q-64 -19 -114 -57q-54 -41 -54 -79q0 -8 3 -14
q10 -32 96 -32q70 0 146 25q89 30 156 86q125 106 201 261q67 140 67 257q0 99 -51 128q-39 21 -89 21q-111 0 -255 -96q-74 -171 -136 -286q-202 -378 -296 -378q-47 0 -47 66q0 73 62 189q68 127 185 249q90 96 206 174q9 25 24 61l21 68q6 18 22 15q14 -2 10 -26
q-4 -20 -33 -90q176 108 294 103q168 -6 168 -158q0 -29 -6 -65zM458 625q-219 -169 -347 -398q-54 -98 -54 -154q0 -38 27 -38q63 0 248 327q63 111 126 263z" />
    <glyph glyph-name="E" unicode="E" horiz-adv-x="696" 
d="M879 694h-20q-8 -45 -43.5 -81t-80.5 -36q-40 0 -40 36q0 22 22.5 45t51.5 35.5t66 15.5q0 21 -13 37q-23 29 -88 29q-113 0 -228 -66q-61 -35 -95.5 -85.5t-34.5 -99.5q0 -39 20 -65q80 25 144 27q83 4 87 -39q5 -47 -75 -60q-19 -3 -42 -3q-89 0 -150 37
q-90 -38 -165 -122q-80 -88 -80 -161q0 -25 11 -45q43 -87 174 -87q106 0 225 48q144 59 216 143q16 19 29 16q15 -2 -21 -39t-93 -77q-67 -45 -125 -68q-143 -57 -282 -57q-171 0 -218 107q-13 30 -13 60q0 88 108 175q82 66 212 122q-58 46 -51 105q12 109 192 198
q118 58 245 58q98 0 125 -44q11 -18 11 -43q29 0 29 -10q0 -7 -10 -6zM833 691q-44 -7 -72 -25q-40 -27 -40 -48q0 -17 19 -17q33 0 64 33q22 23 29 57zM600 447q-4 20 -53 20q-17 0 -37 -2q-42 -6 -95 -25q44 -34 122 -33q32 1 49 12.5t14 27.5z" />
    <glyph glyph-name="F" unicode="F" horiz-adv-x="704" 
d="M805 799q42 -42 42 -116q0 -125 -99 -247q-25 -31 -59 -66q56 -8 62 -50q2 -15 -3 -15q-2 0 -6 8q-14 33 -77 33q-47 -45 -155 -137q-91 -78 -119 -109q-69 -77 -67 -163q0 -7 -3 -11t-7 -4q-11 1 -11 38q0 72 33 121q42 62 240 253q-74 -18 -141 -57q-30 -19 -36 -4
q-4 12 16 24q93 55 195 71q69 68 97 105q101 136 101 237q0 49 -29 77q-37 37 -124 37q-131 0 -262 -66q-124 -63 -205 -147q-85 -88 -85 -162q0 -29 15 -53q24 -40 91 -40q100 0 215 66q84 48 143 124q45 58 65 114q8 23 21 20q11 -4 4 -25q-16 -51 -56 -107
q-63 -90 -158 -145q-139 -81 -258 -81q-110 0 -148 84q-12 25 -12 54q0 81 84 172q81 87 202 145q161 76 315 76q125 0 179 -54z" />
    <glyph glyph-name="G" unicode="G" horiz-adv-x="842" 
d="M944 799q51 -27 51 -89q0 -67 -55 -163q-45 -78 -102 -140q-86 -92 -185 -143q-85 -43 -150 -43q-66 0 -66 55q0 34 40 111q43 82 71 82q6 0 6 -6q0 -7 -7 -16q-17 -21 -34 -53q-21 -41 -21 -67q0 -41 54 -41q50 0 121 36q76 38 145 103q58 55 104 132q52 87 52 148
q0 51 -38 74q-29 17 -69 17q-82 0 -188 -68q-114 -72 -225 -202q-77 -91 -124.5 -197t-47.5 -184q0 -70 41 -95q29 -18 73 -18q65 0 154 37q73 31 134 73q65 45 98 102q3 4 15.5 9.5t23.5 6.5q6 -1 11 -1q0 -5 -40 -60q-53 -70 -76 -107l-143 -214q65 -25 59 -41
q-4 -10 -22 -3q-12 6 -52 23q-59 -76 -119 -122q-69 -51 -170 -86q-58 -20 -131 -20q-131 0 -134 74q-3 56 74 109q72 50 180 77q70 17 143 17q77 0 143 -19q41 58 121 205q-25 -22 -109 -52q-101 -36 -181 -36q-54 0 -91 18q-94 46 -94 157q0 140 162 332q109 130 263 218
q150 87 260 87q45 0 75 -17zM523 -134q-59 17 -125 17q-70 0 -145 -19q-86 -21 -143 -62.5t-59 -79.5q-1 -29 32 -45q30 -15 78 -15q53 0 103 17q160 54 259 187z" />
    <glyph glyph-name="H" unicode="H" horiz-adv-x="1227" 
d="M1586 808q1 -12 -15 -17q-46 -11 -114 -62.5t-112 -107.5q-91 -116 -155 -250q30 -9 81 -27q20 -9 16 -21q-2 -6 -10 -9q-9 -2 -17.5 2.5t-80.5 30.5l-113 -226q-46 -97 -79 -115q-22 -13 -67.5 -23t-71.5 -9q-15 0 -15 6q0 5 13 10q56 23 106 90q83 114 182 280
q-104 28 -210 43q-91 -163 -231 -288q-111 -100 -241 -153q-119 -49 -225 -49q-146 0 -194 84q-19 34 -19 71q0 87 100 182q79 74 173 117q-13 29 -13 66q0 70 43 146q46 81 129 144q80 61 179 96q95 34 183 34q103 0 159 -47q46 -38 46 -122q0 -112 -77 -258
q109 -16 212 -43q82 138 156 230q69 86 146 142q70 49 126 62q10 2 10 -9zM930 799q-36 22 -95 22q-69 0 -151.5 -28.5t-143.5 -70.5q-84 -59 -136 -146.5t-52 -159.5q0 -12 2 -24q171 54 383 51q34 49 46 103q4 15 14 16q4 0 7 -5q2 -6 0 -18q-7 -48 -36 -97q60 -2 134 -11
q84 147 84 250q0 81 -56 118zM717 418q-201 -2 -355 -54q27 -63 118 -63q99 0 181 63q31 25 56 54zM888 408q-69 8 -137 10q-28 -39 -69 -71q-95 -74 -217 -74q-107 0 -163 68q-32 -14 -61 -31q-80 -47 -133 -107q-59 -66 -59 -120q0 -25 14 -46q34 -51 137 -51
q119 0 274.5 64t252.5 155q88 83 161 203z" />
    <glyph glyph-name="I" unicode="I" horiz-adv-x="829" 
d="M960 802q33 -25 33 -94q0 -118 -84 -276q-93 -176 -241 -296q-112 -92 -241 -138q6 -18 17 -48q5 -16 -11 -16q-11 0 -14 10l-16 46q-87 -28 -190 -28q-152 0 -189 76q-11 22 -11 49q0 71 52 121q30 28 57 28q30 0 30 -28q0 -13 -8.5 -23.5t-20.5 -10.5q-4 0 -7 2
q-32 10 -56 -21q-20 -27 -20 -66q0 -29 15 -49q26 -34 90 -34q90 0 236 61q-12 57 -10 124q9 229 142 407q76 102 183 166q101 60 185 60q48 0 79 -22zM936 787q-23 16 -59 16q-75 0 -175 -63t-174 -159q-52 -70 -87 -166q-38 -106 -43 -218q-4 -60 8 -119q164 74 286 186
q117 108 196 241q76 130 76 214q0 48 -28 68z" />
    <glyph glyph-name="J" unicode="J" horiz-adv-x="799" 
d="M913 755q26 -34 26 -90q0 -139 -152 -392q-74 -123 -191 -258q-158 -183 -303 -270q-189 -114 -325 -114q-81 0 -132 40q-43 34 -52 82q-4 22 -4 44q0 69 37 135q34 59 77 85q19 11 39 11t34 -10.5t15 -24.5q3 -22 -10 -40t-31 -22q-15 -4 -27.5 5t-13.5 21t-6 14
q-8 3 -18 -5q-15 -13 -31 -45q-23 -45 -23 -91q0 -13 2 -26q14 -93 137 -93q108 0 256 71q156 75 297.5 203t265.5 329q133 214 133 339q0 53 -27 82q-42 45 -114 45q-83 0 -191 -59q-95 -51 -170 -124q-79 -75 -139 -177q-67 -115 -67 -195q0 -22 6 -41q19 -62 91 -62
q93 0 198 77q60 43 110 115q38 56 54 103q9 24 20 24t6 -19q-42 -140 -179 -250q-101 -81 -224 -81q-112 0 -147 79q-13 32 -13 71q0 91 67.5 204t177.5 207q86 73 194 116t198 43q104 0 149 -56z" />
    <glyph glyph-name="K" unicode="K" horiz-adv-x="1277" 
d="M1605 733q-1 -12 -7 -12q-10 0 -13.5 18.5t-27 29.5t-54.5 11q-11 0 -22 -1q-63 -10 -124 -75q-30 -32 -68 -96q-43 -73 -67 -104q-46 -58 -112 -101q-23 -15 -90 -33q53 -18 71 -58q10 -22 10 -48q0 -49 -39 -113q-25 -40 -25 -82q0 -31 17 -46q12 -10 29 -10
q46 0 80.5 46.5t34.5 90.5q0 29 -16 32q-34 7 -71 -54q-7 -13 -17 -12q-12 1 -4 18q13 31 37.5 52t48.5 21q11 0 21 -4q23 -12 23 -49q0 -53 -39 -107q-21 -30 -62 -52t-79 -22q-30 0 -50 15q-36 27 -36 71q0 57 48 111q67 76 67 110t-32 56q-29 19 -65 19q-15 0 -30 -4
l-17 -3q-24 -5 -53 -22q-155 -228 -335 -325q-167 -91 -304 -91q-80 0 -139 32q-49 27 -68 65q-12 28 -12 60q0 46 21.5 89t51.5 61q18 12 38 12q41 0 45 -30q2 -19 -8.5 -32.5t-29.5 -13.5q-23 0 -28 17q-3 9 -8 11q-6 1 -15 -6t-19 -30q-13 -28 -13 -56q0 -22 8 -41
q28 -67 143 -67q111 0 257 59.5t253.5 150t190.5 233.5q87 151 87 257q0 74 -46 108q-49 36 -121 36q-84 0 -183 -47q-89 -42 -152 -102q-56 -52 -93 -119q-41 -73 -41 -134q0 -42 19 -72q33 -51 104 -51q90 0 183 62q52 34 88 92q28 45 35 82q3 19 15 19q11 0 9 -15
q-15 -112 -131 -199q-88 -66 -211 -66q-112 0 -159 64q-30 41 -30 97q0 69 45 145.5t125 141.5q72 58 173 93q98 33 189 33q103 0 158 -44q50 -40 50 -119q0 -104 -83 -265q-6 -11 -14 -24q119 -7 180 32q55 34 102 93q27 35 70 107q40 66 62 92q100 116 192 109
q43 -4 66 -36q19 -28 16 -61z" />
    <glyph glyph-name="L" unicode="L" horiz-adv-x="1169" 
d="M1253 787q0 -42 -53 -113q-48 -65 -100 -101q-93 -66 -196 -81q-64 -111 -99 -161q-56 -82 -124 -148q153 -141 306 -145q82 -2 121 28q15 11 24 9q12 -2 0 -16q-66 -81 -184 -77q-129 4 -291 179q-182 -163 -372 -172q-118 -5 -195 50q-73 53 -73 134q0 15 3 31
q18 94 106 149q78 49 180 49q37 0 71 -7q81 -17 157 -74q36 -27 106 -97q60 52 114 126q6 7 94 137q-21 -1 -44 -1q-21 0 -21 12q0 16 24 15q30 -1 59 0q112 162 195 238.5t147 76.5q45 0 45 -41zM1186 798q-45 0 -104 -60q-83 -82 -163 -219q90 16 156 61q63 43 104 103
q37 54 37 89q0 26 -30 26zM617 205q-139 151 -260 169q-26 4 -52 4q-91 0 -166 -48q-87 -54 -87 -141q0 -54 50.5 -90.5t134.5 -36.5q24 0 49 3q186 23 331 140z" />
    <glyph glyph-name="M" unicode="M" horiz-adv-x="1660" 
d="M1908 768q0 -46 -101 -181q-95 -127 -209 -239l-26 -26q-128 -240 -128 -325q0 -27 24 -27q23 0 51 29t32 27q6 -2 -2 -15q-14 -21 -37 -39q-28 -22 -55 -22q-9 0 -18 3q-30 10 -30 58q0 72 67 218q-250 -231 -366 -231q-22 0 -40 8q-40 18 -40 78q0 87 81 261
q-273 -302 -559 -382q-101 -29 -202 -29q-117 0 -198 39q-90 44 -117 129q-11 33 -11 66q0 115 116 208q119 97 329 144q115 26 234 26q140 0 272 -35q107 -28 182 -70l21 39q82 162 148.5 257.5t91.5 85.5q7 -4 7 -15q0 -36 -63 -137q-29 -47 -83 -118q-98 -126 -98 -127
q59 -37 59 -53q0 -2 -2 -4q-10 -10 -39 14q-13 10 -33 22q-105 -222 -105 -316q0 -65 55 -65q112 0 386 259q38 76 90 167q82 142 171 242q86 96 127 96q18 0 18 -20zM1869 751q-52 0 -261 -364q69 69 168 200.5t99 157.5q0 6 -6 6zM1144 418q-63 40 -175 68
q-129 32 -267 32q-114 0 -220 -23q-214 -47 -326 -143q-94 -81 -94 -172q0 -88 88 -129q67 -32 166 -32q64 0 139 12q171 28 368 137q181 100 287 213z" />
    <glyph glyph-name="N" unicode="N" horiz-adv-x="1440" 
d="M2053 729q0 -16 -8 -17q-9 -1 -14 13q-8 18 -32 31q-28 16 -64 15q-103 0 -233 -117q-84 -76 -202 -226l-220 -299q-103 -132 -164 -132q-14 0 -28 6q-45 21 -45 96q0 99 68 246q-273 -302 -559 -382q-101 -29 -202 -29q-117 0 -198 39q-90 44 -117 129q-11 33 -11 66
q0 115 116 208q119 97 329 144q115 26 234 26q140 0 272 -35q107 -28 182 -70l21 39q82 162 148.5 257.5t91.5 85.5q7 -4 7 -15q0 -36 -63 -137q-29 -47 -83 -118q-98 -126 -98 -127q59 -37 59 -53q0 -2 -2 -4q-10 -10 -39 14q-13 10 -33 22q-80 -169 -80 -276q0 -82 48 -82
q40 0 128 116l209 278q140 177 209 243q156 149 277 137q40 -4 70 -35q26 -28 26 -57zM1144 418q-63 40 -175 68q-129 32 -267 32q-114 0 -220 -23q-214 -47 -326 -143q-94 -81 -94 -172q0 -88 88 -129q67 -32 166 -32q64 0 139 12q171 28 368 137q181 100 287 213z" />
    <glyph glyph-name="O" unicode="O" horiz-adv-x="684" 
d="M691 806q42 -15 66.5 -68.5t24.5 -129.5q0 -198 -139 -380q-95 -124 -211.5 -197.5t-217.5 -73.5q-73 0 -126 40q-75 56 -75 177q0 166 123 332q162 220 326 275q16 5 22 0q10 -7 -16 -16q-43 -14 -114 -70q-104 -80 -175 -189q-89 -137 -89 -284q0 -144 86 -191
q40 -22 90 -22q171 0 347 224q143 182 143 375q0 69 -20.5 116.5t-55.5 58.5q-19 7 -40 7q-100 0 -207 -159q-57 -86 -57 -159q0 -44 23 -57q14 -7 30 -7q66 0 124 90q16 24 24 19q13 -6 0 -29q-20 -37 -66 -71q-52 -39 -99 -39q-26 0 -47 13q-44 26 -44 97q0 65 36 127
q49 85 130 142t155 57q26 0 49 -8z" />
    <glyph glyph-name="P" unicode="P" horiz-adv-x="763" 
d="M930 778q62 -41 62 -121q0 -78 -55.5 -161.5t-136.5 -126.5q-109 -57 -219 -57q-52 0 -94 15q-59 20 -59 64q0 31 29 57q26 23 64 34q26 8 56 8q50 0 91 -19q12 -6 16 -13t-1 -9q-11 -7 -26 0q-36 17 -77 17q-28 0 -55 -8q-31 -9 -51.5 -30.5t-15.5 -42.5
q4 -21 36.5 -34.5t81.5 -13.5q99 0 194 53q66 36 109.5 99.5t43.5 124.5q0 48 -31 82q-41 45 -124 45q-66 0 -146 -27q-70 -24 -119 -57q-74 -171 -136 -286q-202 -378 -296 -378q-47 0 -47 66q0 73 62 189q68 127 185 249q90 96 206 174q9 25 24 61l21 68q6 18 22 15
q14 -2 10 -26q-4 -20 -33 -90q67 41 144 70q95 35 167 35q60 0 98 -26zM458 625q-219 -169 -347 -398q-54 -98 -54 -154q0 -38 27 -38q63 0 248 327q63 111 126 263z" />
    <glyph glyph-name="Q" unicode="Q" horiz-adv-x="684" 
d="M734 -77q5 -5 -3 -21q-19 -38 -62 -67q-50 -33 -105 -33q-71 0 -191 70q-130 77 -187 86q-30 5 -59 5q-49 0 -149 -29q-19 -5 -23 3q-5 9 14 15q37 13 60 18q42 10 82 12q-98 53 -98 192q0 166 123 332q162 220 326 275q16 5 22 0q10 -7 -16 -16q-43 -14 -114 -70
q-104 -80 -175 -189q-89 -137 -89 -284q0 -144 86 -191q39 -21 88 -21q169 0 348 227q146 186 146 377q0 68 -21 113.5t-57 55.5q-19 6 -38 6q-102 0 -209 -158q-57 -86 -57 -159q0 -44 23 -57q14 -7 30 -7q66 0 124 90q16 24 24 19q13 -6 0 -29q-20 -37 -66 -71
q-52 -39 -99 -39q-26 0 -47 13q-46 28 -46 101q0 66 38 123q54 82 131 138q84 60 157 60q24 0 46 -7q43 -14 67 -66t24 -127q0 -196 -141 -380q-85 -112 -188 -184.5t-198 -87.5l139 -58q87 -37 149 -42q15 -1 29 -1q58 0 100 19q30 14 42 33t20 11z" />
    <glyph glyph-name="R" unicode="R" horiz-adv-x="837" 
d="M930 778q58 -38 58 -107q0 -70 -56 -147.5t-131 -117.5q-44 -24 -92 -37q19 -32 17 -74q-3 -76 -74 -190q-18 -28 -18 -51q0 -40 42 -40q51 0 87 68q14 26 24 20q12 -6 -3 -33q-21 -39 -59.5 -64t-78.5 -25q-39 0 -67.5 25t-28.5 64q0 44 37 82q89 92 89 157q0 25 -10 51
q-36 -6 -72 -6q-71 0 -118.5 21.5t-44.5 48.5q6 49 85 49q25 0 50 -5q75 -19 125 -75q42 13 80 34q55 31 99 87q48 62 48 116q0 39 -26 67q-41 45 -124 45q-66 0 -146 -27q-70 -24 -119 -57q-74 -171 -136 -286q-202 -378 -296 -378q-47 0 -47 66q0 73 62 189
q68 127 185 249q90 96 206 174q9 25 24 61l21 68q6 18 22 15q14 -2 10 -26q-4 -20 -33 -90q67 41 144 70q95 35 167 35q60 0 98 -26zM654 383q-42 66 -129 66q-53 0 -56 -29q-1 -18 31 -31.5t82 -13.5q35 0 72 8zM458 625q-219 -169 -347 -398q-54 -98 -54 -154
q0 -38 27 -38q63 0 248 327q63 111 126 263z" />
    <glyph glyph-name="S" unicode="S" horiz-adv-x="848" 
d="M1043 762q0 -18 -19 -34t-38 -21q-21 -5 -27 9q-4 10 13 13q36 6 36 31q0 4 -2 9q-8 21 -78 21q-50 0 -99 -16q-146 -47 -146 -157q0 -47 41 -108l75 -101q38 -59 33 -107q-11 -105 -107 -190q-89 -79 -223 -115q-77 -21 -157 -21q-109 0 -191 36q-85 38 -111 102
q-11 27 -11 53q0 116 177 181q110 41 273 41q103 0 168 -12q33 -6 27 -17q-6 -12 -34 -8q-26 4 -62 4q-165 0 -321 -64q-161 -65 -161 -157q0 -14 5 -28q17 -48 86 -75.5t160 -27.5q77 0 147 20q136 39 215 116q75 74 75 157q0 34 -37 89l-70 102q-38 63 -38 115q0 26 9 51
q29 85 120 127q64 30 148 34q37 2 73 -8q51 -13 51 -44z" />
    <glyph glyph-name="T" unicode="T" horiz-adv-x="984" 
d="M1325 642q-6 -9 -17 3q-37 42 -148 84t-278 42q-122 0 -268 -23q-208 -34 -370.5 -149t-162.5 -225q0 -15 4 -29q25 -100 175 -100q58 0 113 16q65 19 133 73q54 43 71 71q13 22 27 18q12 -2 -2 -23q-25 -38 -77 -82q-74 -63 -149 -83q-61 -16 -122 -16q-202 0 -229 169
q-2 13 -2 27q0 125 158 234q165 115 418 147q108 14 208 14q209 0 361 -57q119 -45 149 -82q14 -18 8 -29zM1031 689q1 -12 -16 -16q-47 -11 -116 -62.5t-110 -107.5q-81 -114 -208 -382q-46 -97 -79 -115q-22 -13 -67.5 -23t-70.5 -9q-15 0 -15 6q0 5 12 10q56 23 106 90
q63 87 150 222q82 127 131 193q65 86 145 142q69 49 127 61q10 2 11 -9z" />
    <glyph glyph-name="U" unicode="U" horiz-adv-x="1063" 
d="M1294 800q3 -9 -134 -202q-158 -221 -162 -227l-118 -179q-65 -103 -65 -142q0 -28 30 -28q45 0 80 32q14 13 21 8q9 -7 -6.5 -25t-49.5 -32.5t-65 -14.5q-30 0 -45 17t-15 46q0 70 98 231q-38 -38 -78 -70q-271 -225 -403 -225q-23 0 -41 8q-46 21 -46 75q0 68 62 138
q46 52 161 145q103 84 146 141q72 94 72 177q0 57 -40 88.5t-109 31.5q-114 0 -257 -80q-107 -59 -185 -159t-78 -179q0 -30 13 -52q28 -49 101 -49q55 0 124 26q60 23 97 52q104 79 139 193q5 18 17 19q6 1 9.5 -4.5t0.5 -14.5q-15 -53 -34 -85q-38 -64 -118 -125
q-42 -32 -104 -56q-71 -26 -131 -26q-92 0 -130 63q-30 49 -30 110q0 74 44 148q48 79 137 141q156 109 335 109q118 0 175 -46q48 -38 48 -112q0 -92 -65 -191q-37 -56 -104 -122q-88 -86 -117 -119q-94 -111 -94 -172q0 -40 37 -40q53 0 184 84q101 65 173 126
q116 98 178 191l232 351q4 3 36.5 14t52.5 14q19 3 21 -2z" />
    <glyph glyph-name="V" unicode="V" horiz-adv-x="886" 
d="M1549 729q0 -16 -8 -17q-9 -1 -14 13q-8 18 -32 31q-28 16 -64 15q-131 0 -323 -195l-329 -357q-88 -87 -195 -154q-123 -76 -200 -76q-25 0 -43 8q-46 21 -46 75q0 68 62 138q46 52 161 145q103 84 146 141q72 94 72 177q0 57 -40.5 88.5t-110.5 31.5q-116 0 -255 -80
q-103 -59 -181 -159q-81 -103 -81 -181q0 -29 12 -50q28 -49 101 -49q55 0 124 26q60 23 97 52q104 79 139 193q5 18 17 19q6 1 9.5 -4.5t0.5 -14.5q-15 -53 -34 -85q-38 -64 -118 -125q-42 -32 -104 -56q-71 -26 -131 -26q-92 0 -130 63q-30 49 -30 110q0 74 44 148
q48 79 137 141q154 108 336 108q118 0 174 -45q48 -38 48 -112q0 -92 -65 -191q-37 -56 -104 -122q-88 -86 -117 -119q-94 -111 -94 -172q0 -40 37 -40q53 0 180 87q109 74 167 133q47 49 227 261q138 163 226 231q126 98 236 87q40 -4 70 -35q26 -28 26 -57z" />
    <glyph glyph-name="W" unicode="W" horiz-adv-x="1242" 
d="M1334 771q37 -55 37 -132q0 -128 -100 -300q-71 -121 -189 -226q-131 -118 -222 -118q-18 0 -34 6q-67 22 -67 142q0 30 4 86q-71 -74 -173 -145q-137 -95 -218 -95q-24 0 -42 8q-45 21 -45 75q0 68 62 138q46 52 160 145q104 84 147 141q70 92 70 175q0 57 -36.5 91
t-106.5 34q-117 0 -261 -83q-103 -59 -182 -159q-80 -103 -80 -181q0 -29 12 -50q27 -49 101 -49q55 0 123 26q60 23 98 52q104 79 139 193q5 18 17 19q6 1 9.5 -4.5t0.5 -14.5q-15 -53 -34 -85q-39 -64 -118 -125q-42 -32 -104 -56q-71 -26 -131 -26q-92 0 -130 63
q-30 49 -30 109q0 74 44 148q48 79 137 142q158 112 336 112q120 0 174 -49q49 -43 49 -118q0 -92 -66 -185q-39 -54 -106 -121q-84 -85 -115 -120q-94 -111 -94 -172q0 -41 39 -41q58 0 196 105q101 77 167 143q28 128 82 235q28 54 67 93t71 39q28 0 28 -29
q0 -47 -66.5 -150t-157.5 -196q-14 -64 -14 -113q0 -126 87 -126q75 0 178 94t170 219q97 178 97 376q0 36 -5 59q-5 26 1 26q8 1 24 -25zM968 592q-35 0 -94 -109q-37 -71 -66 -176q76 83 128 167q46 76 46 105q0 13 -14 13z" />
    <glyph glyph-name="X" unicode="X" horiz-adv-x="1031" 
d="M1385 742q13 -25 13 -62q0 -64 -25 -111q-9 -17 -19 -12q-10 4 -4 23q10 30 10 58q0 55 -33 81q-18 15 -48 15q-28 0 -61 -13q-88 -35 -183 -131q-82 -83 -140 -182h94l-18 -26h-91q-109 -180 -109 -288q0 -57 36 -82q20 -13 48 -13q44 0 91 32q16 11 24 3q7 -8 -6 -21
q-23 -23 -58 -41q-45 -24 -85 -24q-10 0 -19 2q-72 12 -72 115q0 57 20 123q-114 -135 -251 -209q-167 -90 -304 -90q-80 0 -139 31q-49 27 -67 66q-13 27 -13 60q0 45 21.5 88t51.5 61q18 12 38 12q41 0 45 -30q2 -19 -8.5 -32.5t-29.5 -13.5q-23 0 -28 17q-3 9 -8 11
q-6 1 -15 -6t-19 -29q-13 -29 -13 -57q0 -22 8 -41q28 -68 145 -68q110 0 252 58q147 60 257 153q68 57 170 213h-91l18 26h90q36 50 61 112q32 77 32 137q0 73 -48.5 109t-119.5 36q-86 0 -189 -48q-91 -43 -147.5 -99t-93.5 -121q-41 -74 -41 -134q0 -41 19 -71
q33 -51 104 -51q91 0 183 62q52 35 88 92q28 45 35 82q3 19 15 19q11 0 9 -15q-15 -111 -131 -199q-87 -66 -211 -66q-112 0 -159 65q-30 40 -30 96q0 69 45 146t125 141q72 58 173 93q98 34 189 34q103 0 158 -45q50 -39 50 -118q0 -57 -25 -131q155 202 305 244q27 7 50 7
q57 0 79 -43z" />
    <glyph glyph-name="Y" unicode="Y" horiz-adv-x="1052" 
d="M1049 413q0 -90 -73 -233q-87 -173 -234 -311q-111 -104 -247 -182q-147 -84 -235 -84q-53 0 -76 32q-8 12 -8 28q0 40 57 90.5t152 90.5q123 52 254 52q46 0 86 -6q126 116 216 279q80 147 80 226q0 39 -22 39q-25 0 -97 -75q-117 -122 -132 -136q-102 -92 -200 -154
q-125 -80 -199 -80q-23 0 -41 8q-45 21 -45 75q0 68 62 138q45 51 161 144q104 83 146 142q68 93 68 175q0 57 -36.5 91t-107.5 34q-115 0 -258 -83q-103 -59 -182 -159q-80 -103 -80 -181q0 -29 12 -50q27 -49 101 -49q55 0 123 26q60 23 98 52q104 79 139 193q5 18 17 19
q6 1 9.5 -4.5t0.5 -14.5q-15 -53 -34 -85q-39 -64 -118 -125q-42 -32 -104 -56q-71 -26 -131 -26q-92 0 -130 63q-30 49 -30 109q0 74 44 148q48 79 137 142q157 112 337 112q120 0 173 -49q47 -42 47 -118q0 -95 -64 -185q-39 -54 -106 -121q-84 -84 -115 -120
q-94 -111 -94 -172q0 -40 36 -40q51 0 180 90q103 72 169 136l204 198q23 21 46 21q44 0 44 -54zM704 -129q-33 4 -67 4q-116 0 -213 -39q-83 -34 -135 -81t-52 -84q0 -36 42 -36q64 0 178 59q129 68 247 177z" />
    <glyph glyph-name="Z" unicode="Z" horiz-adv-x="660" 
d="M772 697q0 -68 -53 -151q-60 -95 -172 -178q36 -17 50 -47q12 -24 12 -55q0 -85 -80 -213q-65 -102 -146 -184q40 -18 56 -34q11 -11 1 -20q-13 -12 -26.5 3t-52.5 29q-146 -144 -333 -204q-55 -17 -125 -17q-141 0 -135 77q6 87 165 149q132 52 246 52q90 0 166 -22
q61 67 109 152q59 105 59 177q0 64 -53 101q-156 -89 -267 -89q-41 0 -49 17q-6 11 -6 22q0 59 125 103q71 25 163 25q53 0 91 -11q98 71 161 161t63 155q0 95 -153 95q-63 0 -129 -17q-128 -33 -217 -104q-85 -68 -85 -132q0 -17 8 -33q22 -42 91 -42q48 0 108 20
q55 19 95 46q26 18 31 9q7 -12 -16 -26q-45 -30 -108 -51q-71 -24 -129 -24q-84 0 -118 52q-20 30 -20 66q0 75 81.5 147.5t199.5 101.5q93 24 174 24q84 0 140 -24q78 -33 78 -106zM431 327q-35 14 -83 14q-34 0 -67 -7q-46 -9 -77.5 -29.5t-25.5 -37.5q4 -11 28 -11
q83 0 225 71zM327 -139q-69 19 -147 19q-69 0 -137 -16q-89 -21 -151 -62.5t-68 -79.5q-5 -31 28 -48q29 -15 80 -15q47 0 94 13q161 44 301 189z" />
    <glyph glyph-name="bracketleft" unicode="[" horiz-adv-x="499" 
d="M764 826l-21 -34h-82l-600 -940h81l-17 -28h-138l640 1002h137z" />
    <glyph glyph-name="backslash" unicode="\" horiz-adv-x="408" 
d="M348 -75h-34l-249 919h33z" />
    <glyph glyph-name="bracketright" unicode="]" horiz-adv-x="572" 
d="M683 824l-639 -1002h-137l22 34h82l595 938h-81l20 30h138z" />
    <glyph glyph-name="asciicircum" unicode="^" horiz-adv-x="532" 
d="M501 407h-36l-15 344l-317 -344h-48l360 390h37z" />
    <glyph glyph-name="underscore" unicode="_" horiz-adv-x="596" 
d="M525 -139h-505v47h505v-47z" />
    <glyph glyph-name="grave" unicode="`" horiz-adv-x="211" 
d="M234 792q0 -6 -5 -6q-87 52 -118 72q-14 9 -13 26q2 24 24 24q11 0 21 -7q35 -49 62 -79l17 -15q12 -11 12 -15z" />
    <glyph glyph-name="a" unicode="a" 
d="M575 211q-43 -52 -135 -121q-132 -98 -183 -91q-54 7 -54 62q0 13 4 27q-80 -92 -139 -89q-62 3 -62 76q0 68 64 149t152 134q81 47 137 47q24 0 38 -11t11 -34q23 23 28 27t14 5q10 2 16 0q6 -1 3 -6l-112 -165q-71 -110 -77 -157q-5 -30 17 -30q38 0 140 83
q91 73 122 112q4 5 11 5q12 0 12 -10q0 -6 -7 -13zM373 318q12 15 12 35q0 30 -29 30q-31 0 -79 -31q-52 -33 -100 -88q-108 -122 -108 -202q0 -34 23 -34q26 0 82 54q47 45 85 96q48 64 114 140z" />
    <glyph glyph-name="b" unicode="b" horiz-adv-x="457" 
d="M554 218q-7 -13 -53.5 -55.5t-85.5 -71.5q-60 -46 -108 -46q-17 0 -36 5q-70 -61 -131 -61q-35 0 -63 22q-31 24 -31 82q0 75 51 194q47 110 119 217q91 135 182.5 226.5t139.5 91.5q24 0 24 -22q0 -39 -70 -147q-60 -94 -140 -191q-137 -166 -238 -246q-17 -51 -17 -88
q0 -65 55 -65q26 0 60 18q-34 32 -34 76q0 68 63 146.5t126 78.5q16 0 30 -7q29 -15 29 -58q0 -54 -39 -127t-94 -120q8 -1 17 -1q40 0 89 38q87 66 132 121q6 7 12 7t10 -6.5t1 -10.5zM512 769q-28 0 -94 -69q-76 -79 -165 -215q-78 -117 -120 -219q91 82 197 211
q192 236 192 283q0 9 -10 9zM365 361q-27 0 -62.5 -28.5t-63.5 -74.5q-33 -54 -33 -98q0 -38 29 -64q29 20 56 48q32 33 65 92q36 64 36 98q0 27 -27 27z" />
    <glyph glyph-name="c" unicode="c" horiz-adv-x="398" 
d="M492 233q10 -7 -1 -21q-43 -56 -159 -139q-111 -80 -189 -80q-14 0 -29 3q-93 14 -93 99q0 57 47.5 129.5t125.5 123.5q73 49 126 49t53 -49q0 -35 -31 -80q-3 -5 -11 -5q-9 1 -22 9t-16 13q-2 7 6.5 12t21.5 22q15 21 15 35q0 20 -25 20q-31 0 -72 -32q-48 -35 -90 -99
q-50 -76 -50 -140q0 -80 65 -80q66 0 164 74q94 72 143 130q11 13 21 6z" />
    <glyph glyph-name="d" unicode="d" horiz-adv-x="482" 
d="M755 784q0 -76 -134 -251q-82 -108 -276 -314q-65 -117 -65 -161q0 -24 17 -24q39 0 139 82q83 68 123 112q5 5 11 5q10 0 10 -11q0 -6 -5 -12q-51 -55 -132 -117q-123 -94 -180 -94q-24 0 -39 13q-27 24 -19 66q-90 -80 -135 -80q-21 0 -40 15q-25 19 -25 62
q0 72 82 169q67 79 152 124q72 37 123 37q19 0 28 -6l132 210q132 212 196 212q37 0 37 -37zM715 786q-30 0 -132 -168l-135 -230l-45 -72q129 141 195 226q48 63 86 128q42 72 42 101q0 15 -11 15zM376 376q-10 7 -22 7q-37 0 -99.5 -47.5t-111.5 -110.5q-75 -97 -75 -162
q0 -36 24 -36q31 0 132 105l68 110z" />
    <glyph glyph-name="e" unicode="e" horiz-adv-x="408" 
d="M503 233q10 -8 -5 -26q-48 -57 -153 -131q-126 -89 -227 -89q-38 0 -64 16q-41 26 -41 80q0 89 95 187q58 59 129 97t119 38q45 0 45 -27t-46 -78q-41 -44 -86 -76q-77 -55 -163 -73q-10 -31 -10 -55q0 -38 25 -56q22 -15 52 -15q66 0 157 65q88 63 148 132q17 18 25 11z
M360 383q-27 0 -78 -30q-54 -32 -100 -79q-39 -40 -65 -97q68 18 137 66q44 31 83.5 71t39.5 58q0 11 -17 11z" />
    <glyph glyph-name="f" unicode="f" horiz-adv-x="328" 
d="M571 787q0 -100 -210 -366q-161 -202 -297 -282l-20 -38q3 -57 39 -68q16 -5 31 -5q55 0 151 75q100 79 136 122q6 9 15 9q7 0 9 -6q3 -6 -4 -15q-15 -20 -66.5 -65t-81.5 -67q-64 -44 -77 -52q-59 -34 -101 -32q-56 3 -86 36l-196 -367q-39 -15 -101 -31q-13 0 -13 7
q-1 7 9 13q20 14 41 45q14 21 337 557q344 573 448 573q37 0 37 -43zM515 781q-52 0 -219 -241q-81 -117 -179 -301l-22 -41q125 87 245 239q63 80 121 175q70 112 70 151q0 18 -16 18z" />
    <glyph glyph-name="g" unicode="g" horiz-adv-x="457" 
d="M554 218q-30 -44 -153 -138q-78 -60 -187 -99q-74 -116 -134 -194t-129 -120q-58 -35 -102 -35q-45 0 -45 42q0 34 28.5 81.5t78.5 92.5q94 82 256 141q31 60 49 101q-86 -94 -147 -91q-62 3 -62 76q0 68 64 149t152 134q81 47 137 47q24 0 38 -11t11 -34q23 23 28 27
t14 5q10 2 16 0q6 -1 3 -6q-14 -20 -234 -370q102 43 155 84q94 72 144 132q6 6 17 0q9 -5 2 -14zM374 318q12 15 12 35q0 30 -29 30q-31 0 -79 -31q-52 -33 -100 -88q-108 -122 -108 -202q0 -34 23 -34q26 0 82 54q47 45 85 96q48 64 114 140zM152 -41q-127 -49 -207 -118
q-39 -35 -66 -77.5t-27 -70.5q0 -29 25 -29q29 0 77 34q53 39 97.5 97t100.5 164z" />
    <glyph glyph-name="h" unicode="h" horiz-adv-x="434" 
d="M580 786q0 -41 -46 -116q-41 -67 -90 -117q-91 -92 -178 -131l-68 -96q90 71 152 71q57 0 57 -49q0 -47 -48 -102q-123 -140 -131 -192q-1 -9 5 -14.5t20 -3.5q38 5 125 73q72 57 128 116q8 10 17 10q7 0 9 -7q2 -8 -6 -16q-40 -49 -121 -111q-131 -99 -183 -101
q-29 0 -52 16.5t-25 45.5q-2 59 85 133q139 117 139 161q0 19 -24 19q-30 0 -91 -41q-98 -66 -148 -133q-71 -101 -150 -203q-9 -2 -23.5 3t-13.5 11q2 16 141 203l189 268q118 169 192 264q58 74 106 74q33 0 33 -35zM537 781q-35 0 -155 -184l-85 -127q59 30 132 102
q45 44 82 105t37 89q0 15 -11 15z" />
    <glyph glyph-name="i" unicode="i" horiz-adv-x="263" 
d="M330 563q10 0 10 -13q0 -17 -15 -43q-31 -56 -59 -56q-10 0 -10 14q0 17 15 42q32 56 59 56zM355 211q-43 -52 -135 -121q-132 -98 -183 -91q-54 7 -54 62q0 11 2 21q10 45 94 153q30 38 79 93q47 51 59 60q4 3 13 4q10 2 16 0q6 -1 3 -6l-112 -165q-71 -110 -77 -157
q-5 -30 17 -30q38 0 140 83q91 73 122 112q4 5 11 5q12 0 12 -10q0 -6 -7 -13z" />
    <glyph glyph-name="j" unicode="j" horiz-adv-x="230" 
d="M315 563q10 0 10 -13q0 -17 -15 -43q-31 -56 -59 -56q-10 0 -10 14q0 17 15 42q32 56 59 56zM327 218q-30 -44 -153 -138q-78 -60 -187 -99q-74 -116 -134 -194t-129 -120q-58 -35 -102 -35q-45 0 -45 42q0 34 28.5 81.5t78.5 92.5q94 82 256 141q53 108 81 154
q66 110 127 182q42 50 63 63q4 2 13 4q10 1 16 0t3 -6q-14 -20 -234 -370q102 43 155 84q94 72 144 132q6 6 17 0q9 -5 2 -14zM-75 -41q-127 -49 -207 -118q-39 -35 -66 -77.5t-27 -70.5q0 -29 25 -29q29 0 77 34q53 39 97.5 97t100.5 164z" />
    <glyph glyph-name="k" unicode="k" horiz-adv-x="486" 
d="M577 211q-17 -27 -115 -106q-135 -108 -212 -108q-24 0 -40 14t-16 38q0 21 12 34q35 35 35 53q0 7 -4 13q-8 10 -28 12q-34 -16 -57 -19q-14 -2 -22.5 5.5t-7.5 17.5q3 15 36 18q10 1 29 1q57 20 109 60q99 77 99 115q0 14 -18 14q-41 0 -120 -55q-36 -24 -103 -87
q-71 -66 -99 -103q-47 -65 -99 -130q-9 -2 -23.5 3t-13.5 11q2 16 141 203l189 268q118 169 192 264q58 74 106 74q33 0 33 -35q0 -41 -46 -116q-41 -67 -90 -117q-91 -92 -178 -131l-111 -155l49 42q34 28 67 47q84 50 148 50q48 0 48 -32q0 -57 -137 -148q-42 -28 -85 -48
q37 -7 46 -26q4 -10 4 -21q0 -14 -8 -32l-13 -25q-8 -17 -8 -25q0 -15 23 -14q55 3 153 84q89 74 114 103q9 11 19 11q8 0 8 -8q0 -6 -6 -14zM537 781q-35 0 -155 -184l-85 -127q59 30 132 102q45 44 82 105t37 89q0 15 -11 15z" />
    <glyph glyph-name="l" unicode="l" horiz-adv-x="330" 
d="M619 793q0 -81 -230 -339q-157 -176 -267 -245q-36 -80 -36 -124q0 -53 44 -53q47 0 150 81q65 51 119 109q10 12 20 12q9 0 9 -9q0 -29 -152 -143q-122 -93 -195 -93q-16 0 -29 5q-40 15 -40 66q0 121 212 416q248 347 361 347q34 0 34 -30zM567 780q-41 9 -150 -113
q-92 -104 -163 -217q-58 -92 -112 -199q113 89 233 222q204 227 204 290q0 14 -12 17z" />
    <glyph glyph-name="m" unicode="m" horiz-adv-x="674" 
d="M766 212q-40 -49 -121 -111q-132 -101 -183 -101q-29 0 -51 16t-24 45q-5 60 83 134q141 117 141 159q0 20 -26 20q-30 0 -91 -40q-51 -34 -147 -141q-29 -32 -91 -112q-55 -71 -62.5 -77.5t-31.5 -12t-39 -4.5q-9 1 -10 6q-2 6 161 207l63 77q36 48 36 72q0 23 -28 23
q-43 0 -130 -69q-80 -63 -123 -122q-64 -91 -136 -183q-9 -2 -23.5 3t-13.5 11q2 16 141 203q122 166 134 176q5 4 25 4q20 1 21 -4l-51 -73q109 80 169 80q11 0 23 -2q34 -6 34 -44q0 -27 -17 -56q130 101 192 101q57 0 57 -49q0 -47 -48 -102q-123 -140 -131 -192
q-1 -9 5 -14.5t20 -3.5q38 5 125 73q72 57 128 116q8 10 17 10q7 0 9 -7q2 -8 -6 -16z" />
    <glyph glyph-name="n" unicode="n" horiz-adv-x="434" 
d="M526 212q-40 -49 -121 -111q-132 -101 -183 -101q-29 0 -51 16t-24 45q-5 60 83 134q141 117 141 159q0 20 -26 20q-30 0 -91 -40q-98 -66 -148 -133q-71 -101 -150 -203q-9 -2 -23.5 3t-13.5 11q2 16 141 203q122 166 134 176q5 4 25 4q20 1 21 -4q1 -6 -42 -65
q90 71 152 71q57 0 57 -49q0 -47 -48 -102q-123 -140 -131 -192q-1 -9 5 -14.5t20 -3.5q38 5 125 73q72 57 128 116q8 10 17 10q7 0 9 -7q2 -8 -6 -16z" />
    <glyph glyph-name="o" unicode="o" horiz-adv-x="464" 
d="M558 215q-80 -96 -145 -113q-28 -8 -52 -8q-35 0 -60 16q-57 -56 -120.5 -90.5t-112.5 -34.5q-74 0 -74 72q0 59 53 137q59 86 148 147.5t156 61.5q74 0 74 -72q0 -59 -53 -137q-22 -32 -49 -62q22 -13 43 -13q19 0 44 8q58 18 127 100q7 7 14 7q11 0 11 -10q0 -5 -4 -9z
M355 224q37 63 37 106q0 46 -41 46q-45 0 -111 -51t-115 -123q-52 -77 -52 -129q0 -46 42 -46q67 0 162 98q-27 22 -27 49q0 24 20 40q24 18 54 18q20 0 31 -8z" />
    <glyph glyph-name="p" unicode="p" horiz-adv-x="473" 
d="M567 213q-48 -59 -145 -128q-67 -48 -91 -61q-64 -36 -122 -38q-75 -3 -113 25t-49 89l-38 -61q-86 -139 -169 -249q-123 -164 -172 -164q-23 0 -23 27q0 80 270 397q60 72 189 211q70 121 75.5 127.5t29.5 5.5q24 -2 23 -8q-1 -2 -21 -33q65 48 114 48q18 0 32 -6
q35 -16 35 -72q0 -45 -22 -108q-19 -53 -43 -91q-44 -69 -100 -105q29 0 66 15q60 24 119 71q101 81 134 120q7 8 14 8q11 0 11 -10q0 -5 -4 -10zM316 376q-42 0 -151 -94l-96 -148q-3 -33 8 -61q13 -37 43 -37q60 0 146 117q79 109 79 186q0 37 -29 37zM54 174
q-61 -66 -115 -136l-176 -225q-77 -102 -77 -126q0 -10 6 -10q25 0 136 147q97 130 149 218z" />
    <glyph glyph-name="q" unicode="q" 
d="M575 211q-43 -52 -135 -121q-48 -36 -73 -49q-39 -23 -85 -34q-6 -36 -36 -103q-35 -79 -71 -125q-117 -146 -180 -146q-39 0 -39 50q0 48 44 121q35 58 216 276q-89 -84 -148 -81q-62 2 -62 76q0 68 64 149t152 134q81 47 137 47q24 0 38 -11t11 -34q23 23 28 27t14 5
q10 2 16 0q6 -1 3 -6l-112 -165q-7 -11 -105 -142q27 -7 28 -46q70 13 157 84q91 72 122 112q4 5 11 5q12 0 12 -10q0 -6 -7 -13zM373 318q12 15 12 35q0 30 -29 30q-31 0 -79 -31q-52 -33 -100 -88q-108 -122 -108 -202q0 -34 22 -34q44 0 168 150zM251 1q-21 -4 -56 3
l-137 -184q-44 -68 -44 -102q0 -24 19 -24q43 0 114 92q28 37 62 104q37 73 42 111z" />
    <glyph glyph-name="r" unicode="r" horiz-adv-x="375" 
d="M470 213q-33 -38 -129 -116q-120 -97 -207 -101q-82 -3 -82 51q0 51 69 106q31 24 68 47q42 25 58 37q51 38 47 62q-3 14 -20 25q-18 8 -35 17q-12 6 -22 16l-79 -96q-59 -69 -90 -95q-11 -9 -19 -9q-9 0 -10 7q-1 8 9 16q20 17 97 105q68 78 72 97q-8 16 -4 33
q9 33 34 33q29 0 24 -34q-3 -16 -17 -32q2 -5 22 -17.5t41 -22.5q26 -18 23 -47q-4 -35 -63 -100l-103 -110q-27 -32 -20 -54q2 -5 9 -6q22 -4 74 21t106 67q72 55 124 112q7 8 15 8q12 0 12 -11q0 -4 -4 -9z" />
    <glyph glyph-name="s" unicode="s" horiz-adv-x="321" 
d="M413 210q-32 -32 -69 -65t-80 -65q-135 -103 -225 -83q-75 16 -75 96q0 31 16 59q20 33 47 29l25.5 24l33.5 33q34 30 82 82q6 10 13 38t21 48q18 27 39 27q22 0 22 -25q0 -24 -15.5 -46t-44.5 -48q-3 -10 8 -64q7 -31 10 -55.5t3 -41.5q0 -55 -30 -95q20 12 40 27l42 32
q76 62 120 110q6 7 12 7q11 0 11 -11q0 -7 -6 -13zM173 257q0 9 -3 26l-68 -65q-16 -16 -56 -53q3 -8 3 -14q0 -20 -14 -31q-2 0 -23 -10q-11 -7 -17 -19q-2 -8 -2 -14q0 -43 43 -50q20 -4 47.5 15t51.5 58q38 65 38 157z" />
    <glyph glyph-name="t" unicode="t" horiz-adv-x="263" 
d="M402 617q-33 -44 -129 -183h73q12 0 14 -6q1 -6 -8 -13t-21 -7h-76q-17 -27 -55 -83q-129 -193 -140 -261q-6 -30 18 -30q8 0 17 4q49 19 122 79q91 73 122 112q10 13 21 1q5 -7 -5 -19q-43 -52 -135 -121q-132 -98 -183 -91q-55 7 -55 59q0 11 3 24q12 51 51 112
q25 38 106 145l52 69h-70q-13 0 -13 7q-1 7 8 13t21 6h74q123 159 156 185q13 11 30 4q5 -2 2 -6z" />
    <glyph glyph-name="u" unicode="u" horiz-adv-x="463" 
d="M555 211q-43 -52 -135 -121q-132 -98 -183 -91q-53 7 -54 64q-33 -28 -72 -46q-46 -22 -74 -18q-54 7 -54 65q0 9 2 18q9 49 94 153q121 148 134 155q8 5 19 5q13 1 13 -7q0 -9 -37 -63q-59 -85 -71 -104q-46 -72 -55 -88q-20 -38 -23 -67q-4 -33 18 -33q8 0 18 5
q80 34 197 188l121 164q8 5 19 5q13 1 13 -7q0 -9 -37 -63q-59 -84 -71 -104q-71 -110 -77 -157q-5 -30 17 -30q38 0 140 83q91 73 122 112q4 5 11 5q12 0 12 -10q0 -6 -7 -13z" />
    <glyph glyph-name="v" unicode="v" horiz-adv-x="484" 
d="M578 230q7 -9 -1 -19q-34 -40 -92.5 -85t-105.5 -45q-52 0 -76 38q-65 -61 -132 -94q-58 -28 -93 -26q-34 2 -54.5 22t-20.5 53q0 46 57 138q29 45 89 113q53 59 65 67q5 3 14 3q11 -1 13 -8l-52 -85q-60 -99 -92 -169q-13 -28 -13 -56q0 -40 34 -40q59 0 173 108
q-5 18 -5 40q0 52 27 104t72 86q39 30 71 30q24 0 24 -21q0 -41 -60 -127q-47 -68 -95 -117q17 -34 60 -34q42 0 101 51q43 38 74 72q10 11 18 1zM425 367q-37 0 -87 -93q-28 -52 -22 -105q36 37 73 90q48 67 48 96q0 12 -12 12z" />
    <glyph glyph-name="w" unicode="w" horiz-adv-x="645" 
d="M738 227q7 -8 -2 -18q-33 -40 -92 -85t-105 -45q-52 0 -77 38q-67 -63 -130 -95q-59 -30 -94 -25q-54 7 -55 66q-33 -28 -72 -46q-46 -22 -74 -18q-53 7 -53 66q0 9 1 17q7 46 94 153l82.5 94.5t58.5 61.5t18 4q13 1 13 -7q0 -10 -38 -62.5l-76 -104.5q-73 -105 -78 -155
q-4 -33 18 -33q8 0 18 5q80 34 197 188l121 164q8 5 19 5q13 1 13 -7q0 -9 -37 -63q-59 -84 -71 -104q-42 -66 -55 -90q-20 -37 -23 -61q-4 -35 23 -35q55 0 169 108q-5 18 -5 39q0 53 26 103q28 54 72 88q40 30 71 30q24 0 24 -21q0 -42 -59 -127q-47 -68 -96 -117
q18 -35 61 -35q42 0 101 52q43 38 73 71q10 12 19 1zM585 365q-38 0 -87 -93q-28 -52 -22 -105q36 37 73 90q47 67 47 96q0 12 -11 12z" />
    <glyph glyph-name="x" unicode="x" horiz-adv-x="514" 
d="M609 214q-41 -50 -153 -135.5t-183 -85.5q-59 0 -59 56q0 19 7 43q-89 -97 -165 -97q-52 0 -52 52q0 30 19.5 50t42.5 20q24 0 24 -22q0 -18 -12 -24q-18 -8 -26 4q-3 4 -8 2q-15 -5 -15 -31q0 -29 24 -29q22 0 60 32.5t75.5 82t63.5 115.5q23 60 23 95q0 22 -12 22
q-10 0 -30 -18.5l-40 -38.5l-117 -112q-4 -4 -10 -4q-10 0 -10 10q0 7 6 15l114 108q82 79 121 72q35 -6 35 -68q0 -25 -7 -53q97 125 167 125q47 0 47 -43q0 -35 -26 -63q-29 -30 -52 -20q-15 7 -15 21q0 23 21 23q11 0 14.5 -7.5t9.5 -5.5q10 5 17.5 20.5t7.5 27.5
q0 23 -25 23q-77 0 -195 -183q-56 -88 -56 -138q0 -28 16 -35q8 -4 19 -4q59 0 163 77q41 30 93 78q46 42 58 56q9 12 20 4q9 -6 0 -17z" />
    <glyph glyph-name="y" unicode="y" horiz-adv-x="457" 
d="M554 218q-30 -44 -153 -138q-78 -60 -187 -99q-74 -116 -134 -194t-129 -120q-58 -35 -102 -35q-45 0 -45 42q0 34 28.5 81.5t78.5 92.5q94 82 256 141l53 109q-24 -24 -37 -35q-33 -28 -73 -46q-45 -22 -73 -18q-54 7 -54 63q0 10 2 20q9 49 94 153q121 148 134 155
q8 5 19 5q13 1 13 -7q0 -9 -37 -63q-59 -84 -71 -104q-71 -110 -77 -157q-5 -30 17 -30q7 0 18 4q84 30 194 179q99 134 149 171q4 3 13 4q10 2 16 0q6 -1 3 -6q-14 -20 -234 -370q102 43 155 84q94 72 144 132q6 6 17 0q9 -5 2 -14zM152 -41q-127 -49 -207 -118
q-39 -35 -66 -77.5t-27 -70.5q0 -29 25 -29q29 0 77 34q53 39 97.5 97t100.5 164z" />
    <glyph glyph-name="z" unicode="z" horiz-adv-x="418" 
d="M509 214q-44 -57 -124 -127q-97 -87 -164 -114q-70 -116 -172 -222q-124 -129 -199 -129q-47 0 -46 36q0 69 149 186q99 77 247 146q19 24 19 53q0 11 -7 17q-95 -77 -159 -77q-40 0 -40 29q0 19 23.5 41.5t57.5 35.5q38 14 75 14q29 0 52 -8q48 43 92 127q27 51 27 83
q0 38 -38 42q-36 3 -133 -71q-41 -31 -125 -114q-14 -14 -25 -5q-10 6 4 20q26 27 131 118q128 101 198 101q56 0 56 -48q0 -50 -66 -144q-55 -79 -105 -123q11 -8 11 -33q0 -23 -10 -39q56 29 139 104q70 63 113 115q9 11 19 4q9 -7 0 -18zM196 71q-15 7 -35 7
q-26 0 -57 -11q-47 -18 -40 -43q3 -11 19 -11q42 0 113 58zM178 -48q-88 -47 -184 -130q-48 -41 -86 -88q-41 -49 -41 -68q0 -10 13 -10q39 0 148 109q102 101 150 187z" />
    <glyph glyph-name="braceleft" unicode="{" horiz-adv-x="351" 
d="M685 827l-7 -13q-34 6 -51 6q-35 0 -65 -35q-12 -15 -40 -65l-144 -255q-34 -59 -77 -91q-39 -29 -107 -49l-5 -2q51 -30 51 -77q0 -30 -20 -65l-137 -241q-26 -46 -26 -73q0 -51 104 -45l-6 -13q-24 -3 -49 -3q-103 0 -103 66q0 53 95 208t95 197q0 46 -72 46l7 11
q114 0 177 114l139 255q72 133 175 133q26 0 66 -9z" />
    <glyph glyph-name="bar" unicode="|" horiz-adv-x="450" 
d="M354 -109h-25v890h25v-890z" />
    <glyph glyph-name="braceright" unicode="}" horiz-adv-x="496" 
d="M525 770q0 -35 -29 -88l-138 -254q-22 -40 -22 -67q0 -48 73 -48l-7 -14q-60 0 -102 -32q-34 -25 -69 -83l-129 -213q-48 -80 -77 -110q-53 -58 -115 -58q-26 0 -55 8l7 14q24 -4 35 -4q35 0 71 45q7 10 48 76l134 218q38 62 80 96.5t107 53.5l5 2q-59 25 -59 76
q0 26 17 56l144 255q26 46 26 74q0 49 -96 43l6 15q34 4 50 4q95 0 95 -65z" />
    <glyph glyph-name="asciitilde" unicode="~" horiz-adv-x="531" 
d="M507 372q-72 -58 -134 -58q-34 0 -95 27.5t-93 27.5q-46 0 -99 -51l-21 28q60 60 120 60q35 0 96 -27.5t92 -27.5q53 0 109 49z" />
    <glyph glyph-name="nonbreakingspace" unicode="&#xa0;" horiz-adv-x="408" 
 />
    <glyph glyph-name="exclamdown" unicode="&#xa1;" horiz-adv-x="499" 
d="M457 656q-28 0 -28 30q0 18 15 34t34 16q28 0 28 -29q0 -19 -15 -35t-34 -16zM452 625l-366 -615h-73l407 615h32z" />
    <glyph glyph-name="cent" unicode="&#xa2;" horiz-adv-x="500" 
d="M448 693l-59 -120q44 -5 44 -49q0 -35 -31 -79q-3 -5 -10 -5q-10 0 -23 8t-15 14q-3 6 5.5 11t22.5 24.5t14 33.5q0 16 -19 18l-173 -347q11 -4 24 -4q46 0 111 42q48 31 71 57q12 12 21 5q13 -9 -1 -21q-138 -119 -242 -111l-64 -128q-9 -20 -15 -20q-17 0 -17 15
q0 2 2 5l66 133q-79 19 -79 97q0 57 47 127q43 66 111 115q64 46 118 57l60 122q10 20 16 20q16 0 16 -15q0 -3 -1 -5zM344 544q-70 -26 -134 -124q-50 -76 -50 -141q0 -41 21 -63z" />
    <glyph glyph-name="sterling" unicode="&#xa3;" horiz-adv-x="909" 
d="M901 609q-8 -34 -26 -57q-23 -30 -56 -30q-16 0 -26 10.5t-6 26.5q7 36 43 39q8 -3 27 -2q22 6 22 39q0 23 -18.5 37.5t-45.5 14.5q-100 0 -264 -269h138l-20 -33h-138l-17 -28q-90 -146 -190 -221q76 -35 91 -41q53 -20 99 -20q55 0 100 24q53 29 63 78q2 9 2 16
q0 20 -15 32q-20 15 -19 17q2 12 15 12q20 0 32.5 -19t12.5 -41q0 -67 -68 -108q-57 -35 -127 -35q-52 0 -110 22l-100 46q-81 -51 -157 -51q-83 0 -83 48q0 6 1 14q13 57 101 57q55 -1 120 -27q48 45 136 194l18 31h-92l20 33h93q188 290 360 290q87 0 87 -74q0 -12 -3 -25
zM261 137q-58 27 -104 27q-64 -1 -71 -34q-9 -38 69 -38q57 0 106 45z" />
    <glyph glyph-name="currency" unicode="&#xa4;" horiz-adv-x="848" 
d="M817 617q0 -9 -15 -7h-9q-8 -43 -39 -68q-24 -19 -52 -19q-36 0 -36 27q0 41 57 64q21 9 48 12q-3 42 -67 42q-130 0 -293 -116q-72 -51 -123 -106h284l-24 -32h-287q-20 -26 -35 -52h306l-24 -32h-298q-21 -47 -21 -88q0 -35 15 -62q39 -74 172 -74q37 0 71 6
q96 19 173 64q57 33 84 66q12 14 21 14q6 0 6 -6q0 -10 -14 -24q-49 -48 -90 -74q-74 -45 -174 -66q-55 -11 -107 -11q-142 0 -200 75q-31 38 -31 99q0 40 15 81h-105l24 32h95q14 26 33 52h-112l24 32h114q24 28 56 54q108 92 239 145q115 46 201 46q49 0 72 -17.5
t24 -46.5q22 0 22 -10zM769 607q-36 -7 -56.5 -22.5t-20.5 -30.5q0 -3 1 -5q10 -14 46 12q23 16 30 46z" />
    <glyph glyph-name="section" unicode="&#xa7;" horiz-adv-x="613" 
d="M605 641q0 -25 -18 -44t-42 -19q-26 0 -26 24q0 14 11 24.5t25 10.5q4 0 11 -2t10 -2q15 0 15 16q0 30 -61 30q-48 0 -92 -24t-44 -68q0 -21 15 -41q5 -7 31 -33q49 -49 49 -80q0 -101 -151 -187q8 -16 8 -36q0 -57 -66.5 -108t-145.5 -50q-51 1 -82.5 26t-31.5 59
q0 28 17 48t40 20q35 0 35 -33q0 -15 -11.5 -26.5t-27.5 -11.5q-5 0 -12.5 2.5t-10.5 2.5q-12 0 -12 -14q0 -22 27.5 -37.5t67.5 -15.5q62 0 105 31.5t43 76.5q0 13 -7 24.5t-39 48.5q-44 52 -44 92q0 44 35.5 81.5t120.5 81.5q-13 29 -13 47q0 59 60 105.5t131 39.5
q80 -8 80 -59zM426 388q0 24 -42 71q-22 25 -30 37q-95 -59 -95 -119q0 -34 49 -91q7 -7 21 -25q97 56 97 127z" />
    <glyph glyph-name="dieresis" unicode="&#xa8;" horiz-adv-x="241" 
d="M258 814q-2 -27 -29 -27t-26 27q2 28 30 28q27 0 25 -28zM154 814q-2 -27 -29 -27t-26 27q2 28 30 28q27 0 25 -28z" />
    <glyph glyph-name="copyright" unicode="&#xa9;" horiz-adv-x="688" 
d="M650 394q0 -124 -88 -212t-212 -88t-212 88t-88 212q0 125 88 212.5t212 87.5t212 -87.5t88 -212.5zM625 394q0 114 -80.5 194.5t-194.5 80.5t-194.5 -80.5t-80.5 -194.5t80.5 -194.5t194.5 -80.5t194.5 80.5t80.5 194.5zM508 586l-26 -118h-8q-5 33 -30 57
q-28 26 -67 26q-17 0 -36 -6q-48 -15 -82 -65q-36 -56 -35 -127q1 -60 33 -92q29 -30 73 -30q21 0 41 7q13 4 33 29t36 26q2 -1 1 -5l-14 -47q-51 -56 -132 -51q-55 4 -87.5 44t-32.5 101q0 32 10 67q25 82 91.5 137t136.5 51q44 -2 67 -27q4 -4 8 -1q3 2 5 7l6 17h9z" />
    <glyph glyph-name="guillemotleft" unicode="&#xab;" horiz-adv-x="309" 
d="M241 441l-7 -35l-3 -4l-72 -50l50 -89l-14 -9l-64 112q-3 5 3 9l100 69q4 3 6 2q2 0 1 -5zM141 441l-7 -35l-3 -4l-72 -50l50 -89l-14 -9l-64 112q-3 5 3 9l100 69q4 3 6 2q2 0 1 -5z" />
    <glyph glyph-name="logicalnot" unicode="&#xac;" horiz-adv-x="1281" 
d="M1462 751q-3 -46 -51 -84.5t-97 -38.5q-7 0 -6 7q0 6 7 5q24 -3 65.5 21.5t43.5 44.5q0 4 -15 7q-35 7 -33 40q1 18 15 31t30 13q20 1 31 -11.5t10 -34.5zM1253 787q0 -42 -53 -113q-48 -65 -100 -101q-93 -66 -196 -81q-64 -111 -99 -161q-56 -82 -124 -148
q153 -141 306 -145q82 -2 121 28q15 11 24 9q12 -2 0 -16q-66 -81 -184 -77q-129 4 -291 179q-182 -163 -372 -172q-118 -5 -193 49t-75 135q0 15 3 31q18 94 106 149q78 49 180 49q37 0 71 -7q81 -17 157 -74q36 -27 106 -97q60 52 114 126q6 7 94 137q-21 -1 -44 -1
q-21 0 -21 12q0 16 24 15q30 -1 59 0q112 162 195 238.5t147 76.5q45 0 45 -41zM1186 798q-45 0 -104 -60q-83 -82 -163 -219q90 16 156 61q63 43 104 103q37 54 37 89q0 26 -30 26zM617 205q-139 151 -260 169q-26 4 -52 4q-91 0 -166 -48q-87 -54 -87 -141
q0 -54 50.5 -90.5t134.5 -36.5q24 0 49 3q186 23 331 140z" />
    <glyph glyph-name="registered" unicode="&#xae;" horiz-adv-x="548" 
d="M515 575q0 -89 -62.5 -151.5t-151.5 -62.5q-88 0 -150.5 62.5t-62.5 151.5q0 88 62.5 151t150.5 63q89 0 151.5 -63t62.5 -151zM490 575q0 78 -55.5 133.5t-133.5 55.5t-133 -55.5t-55 -133.5t55 -133.5t133 -55.5t133.5 55.5t55.5 133.5zM408 467q-7 -6 -28 -13
q-23 0 -33 19l-51 94h-24l-21 -94q-1 -6 9 -8l27 -3l-1 -6h-109l1 5l28 4q10 2 11 8l49 222q2 7 -7 8l-27 4l1 6h110q56 0 56 -54q0 -28 -19.5 -54t-45.5 -35l46 -85q7 -14 18 -17q5 0 10 -1zM364 661q0 35 -31 35h-24q-9 0 -11 -10l-22 -100h35q23 0 39 27q14 23 14 48z
" />
    <glyph glyph-name="macron" unicode="&#xaf;" horiz-adv-x="308" 
d="M269 832q-2 -17 -22 -17h-174q-20 0 -19 17q2 17 22 17h174q20 0 19 -17z" />
    <glyph glyph-name="macron" unicode="&#x2c9;" horiz-adv-x="308" 
d="M269 832q-2 -17 -22 -17h-174q-20 0 -19 17q2 17 22 17h174q20 0 19 -17z" />
    <glyph glyph-name="acute" unicode="&#xb4;" horiz-adv-x="205" 
d="M240 861q-1 -15 -16 -24q-32 -14 -93 -43q-12 -7 -36 -19h-2t-2 -1q-5 0 -4 6q0 1 3 4q41 38 109 94q8 6 20 6q23 0 21 -23z" />
    <glyph glyph-name="paragraph" unicode="&#xb6;" horiz-adv-x="619" 
d="M612 722l-20 -42h-59l-324 -680h-42l324 680h-87l-324 -680h-46l182 382q-117 5 -117 102q0 32 16 68q32 76 108 123t165 47h224z" />
    <glyph glyph-name="periodcentered" unicode="&#xb7;" horiz-adv-x="293" 
d="M278 320q-3 -18 -15.5 -30.5t-26.5 -12.5q-15 0 -23 12.5t-5 30.5t15.5 30.5t26.5 12.5q15 0 23 -12.5t5 -30.5z" />
    <glyph glyph-name="periodcentered" unicode="&#x2219;" horiz-adv-x="293" 
d="M278 320q-3 -18 -15.5 -30.5t-26.5 -12.5q-15 0 -23 12.5t-5 30.5t15.5 30.5t26.5 12.5q15 0 23 -12.5t5 -30.5z" />
    <glyph glyph-name="cedilla" unicode="&#xb8;" horiz-adv-x="317" 
d="M211 -87q-3 -37 -46 -55q-33 -13 -76 -13q-13 0 -12 7q0 6 13 6q28 0 57.5 16.5t31.5 42.5q2 19 -26 33l32 50h23l-29 -46q34 -11 32 -41z" />
    <glyph glyph-name="guillemotright" unicode="&#xbb;" horiz-adv-x="465" 
d="M438 330q3 -5 -3 -9l-101 -69q-4 -3 -6 -2t-1 5l7 35l3 5l73 49l-51 89l14 9zM338 330q3 -5 -3 -9l-101 -69q-4 -3 -6 -2t-1 5l7 35l3 5l73 49l-51 89l14 9z" />
    <glyph glyph-name="questiondown" unicode="&#xbf;" horiz-adv-x="688" 
d="M622 649q-29 0 -29 33q0 21 15 39.5t34 18.5q29 0 29 -34q0 -20 -15 -38.5t-34 -18.5zM651 562q-7 -58 -111 -125l-152 -89q-149 -106 -149 -215q0 -49 32 -80t91 -31q65 0 119.5 44t58.5 108q3 39 -16.5 61t-53.5 21q-33 -2 -63 -21q-34 -22 -37 -54v-15q-1 -10 -9 -10
q-12 0 -10 26q3 40 44 71q38 29 78 29q47 0 74 -28.5t24 -74.5q-5 -76 -76 -131q-66 -52 -143 -52q-78 0 -125.5 47.5t-41.5 125.5q6 95 69 157q46 45 143 87q144 64 156 71q65 36 69 81q1 19 -11.5 31t-32.5 12q-48 0 -51 -51q-1 -6 -9 -6q-10 0 -8 18q4 65 71 65
q32 0 52.5 -21.5t17.5 -50.5z" />
    <glyph glyph-name="Agrave" unicode="&#xc0;" horiz-adv-x="1188" 
d="M1334 753q-96 -140 -203 -327q27 -14 42 -26.5t8 -23.5q-8 -11 -18 -2q-15 13 -45 29q-40 -72 -68 -129q-69 -141 -69 -209q0 -58 53 -58q48 0 81 39q8 10 13 8q10 -2 -2.5 -19t-41.5 -33q-35 -19 -67 -19q-21 0 -39 8q-62 31 -62 96q0 52 34 134q26 62 120 205
q-70 29 -137 45l-177 -197q-109 -118 -197 -183q-116 -85 -235 -110q-32 -7 -69 -7q-90 0 -149 39q-74 48 -76 144q-2 128 170 233q157 96 362 121q75 10 147 10q108 0 208 -21q243 234 292 266q56 38 93 38q40 0 40 -29q0 -11 -8 -22zM1313 782q-4 2 -11 2q-22 0 -62 -22
q-66 -38 -287 -270q69 -17 131 -44q64 96 149 208q63 83 80 103q14 16 0 23zM895 480q-89 18 -185 18q-98 0 -204 -19q-166 -31 -299 -112q-150 -92 -150 -193q0 -10 1 -21q18 -104 155 -104q59 0 123 19q114 33 221 109q79 54 191 162zM1311 860q0 -6 -5 -6q-87 52 -118 72
q-13 9 -12 26q1 24 23 24q11 0 21 -7q35 -49 62 -79q9 -7 17 -15q13 -11 12 -15z" />
    <glyph glyph-name="Aacute" unicode="&#xc1;" horiz-adv-x="1188" 
d="M1334 753q-96 -140 -203 -327q27 -14 42 -26.5t8 -23.5q-8 -11 -18 -2q-15 13 -45 29q-40 -72 -68 -129q-69 -141 -69 -209q0 -58 53 -58q48 0 81 39q8 10 13 8q10 -2 -2.5 -19t-41.5 -33q-35 -19 -67 -19q-21 0 -39 8q-62 31 -62 96q0 52 34 134q26 62 120 205
q-70 29 -137 45l-177 -197q-109 -118 -197 -183q-116 -85 -235 -110q-32 -7 -69 -7q-90 0 -149 39q-74 48 -76 144q-2 128 170 233q157 96 362 121q75 10 147 10q108 0 208 -21q243 234 292 266q56 38 93 38q40 0 40 -29q0 -11 -8 -22zM1313 782q-4 2 -11 2q-22 0 -62 -22
q-66 -38 -287 -270q69 -17 131 -44q64 96 149 208q63 83 80 103q14 16 0 23zM895 480q-89 18 -185 18q-98 0 -204 -19q-166 -31 -299 -112q-150 -92 -150 -193q0 -10 1 -21q18 -104 155 -104q59 0 123 19q114 33 221 109q79 54 191 162zM1457 938q-2 -16 -17 -24
q-32 -14 -93 -43q-12 -8 -36 -19q-1 0 -2 -1h-2q-5 0 -4 6q0 1 3 4q41 38 109 94q8 6 20 6q23 0 22 -23z" />
    <glyph glyph-name="Acircumflex" unicode="&#xc2;" horiz-adv-x="1188" 
d="M1334 753q-96 -140 -203 -327q27 -14 42 -26.5t8 -23.5q-8 -11 -18 -2q-15 13 -45 29q-40 -72 -68 -129q-69 -141 -69 -209q0 -58 53 -58q48 0 81 39q8 10 13 8q10 -2 -2.5 -19t-41.5 -33q-35 -19 -67 -19q-21 0 -39 8q-62 31 -62 96q0 52 34 134q26 62 120 205
q-70 29 -137 45l-177 -197q-109 -118 -197 -183q-116 -85 -235 -110q-32 -7 -69 -7q-90 0 -149 39q-74 48 -76 144q-2 128 170 233q157 96 362 121q75 10 147 10q108 0 208 -21q243 234 292 266q56 38 93 38q40 0 40 -29q0 -11 -8 -22zM1313 782q-4 2 -11 2q-22 0 -62 -22
q-66 -38 -287 -270q69 -17 131 -44q64 96 149 208q63 83 80 103q14 16 0 23zM895 480q-89 18 -185 18q-98 0 -204 -19q-166 -31 -299 -112q-150 -92 -150 -193q0 -10 1 -21q18 -104 155 -104q59 0 123 19q114 33 221 109q79 54 191 162zM1404 845q-2 -3 -4 -3h-29l-5 2
q-19 29 -38 64l-106 -71q-4 0 -7.5 4.5t-1.5 7.5q5 8 130 88q2 2 5 2q1 0 3 -3q8 -11 51 -86q2 -4 2 -5z" />
    <glyph glyph-name="Atilde" unicode="&#xc3;" horiz-adv-x="1188" 
d="M1334 753q-96 -140 -203 -327q27 -14 42 -26.5t8 -23.5q-8 -11 -18 -2q-15 13 -45 29q-40 -72 -68 -129q-69 -141 -69 -209q0 -58 53 -58q48 0 81 39q8 10 13 8q10 -2 -2.5 -19t-41.5 -33q-35 -19 -67 -19q-21 0 -39 8q-62 31 -62 96q0 52 34 134q26 62 120 205
q-70 29 -137 45l-177 -197q-109 -118 -197 -183q-116 -85 -235 -110q-32 -7 -69 -7q-90 0 -149 39q-74 48 -76 144q-2 128 170 233q157 96 362 121q75 10 147 10q108 0 208 -21q243 234 292 266q56 38 93 38q40 0 40 -29q0 -11 -8 -22zM1313 782q-4 2 -11 2q-22 0 -62 -22
q-66 -38 -287 -270q69 -17 131 -44q64 96 149 208q63 83 80 103q14 16 0 23zM895 480q-89 18 -185 18q-98 0 -204 -19q-166 -31 -299 -112q-150 -92 -150 -193q0 -10 1 -21q18 -104 155 -104q59 0 123 19q114 33 221 109q79 54 191 162zM1443 895q-2 -20 -21.5 -34.5
t-42.5 -14.5q-22 0 -60.5 17t-60.5 17q-14 0 -29.5 -13.5t-16.5 -13.5q-4 0 -4 5q2 20 23.5 38t46.5 18q22 0 65 -20.5t55 -20.5q17 0 27 13.5t11 13.5q7 0 7 -5z" />
    <glyph glyph-name="Adieresis" unicode="&#xc4;" horiz-adv-x="1188" 
d="M1334 753q-96 -140 -203 -327q27 -14 42 -26.5t8 -23.5q-8 -11 -18 -2q-15 13 -45 29q-40 -72 -68 -129q-69 -141 -69 -209q0 -58 53 -58q48 0 81 39q8 10 13 8q10 -2 -2.5 -19t-41.5 -33q-35 -19 -67 -19q-21 0 -39 8q-62 31 -62 96q0 52 34 134q26 62 120 205
q-70 29 -137 45l-177 -197q-109 -118 -197 -183q-116 -85 -235 -110q-32 -7 -69 -7q-90 0 -149 39q-74 48 -76 144q-2 128 170 233q157 96 362 121q75 10 147 10q108 0 208 -21q243 234 292 266q56 38 93 38q40 0 40 -29q0 -11 -8 -22zM1313 782q-4 2 -11 2q-22 0 -62 -22
q-66 -38 -287 -270q69 -17 131 -44q64 96 149 208q63 83 80 103q14 16 0 23zM895 480q-89 18 -185 18q-98 0 -204 -19q-166 -31 -299 -112q-150 -92 -150 -193q0 -10 1 -21q18 -104 155 -104q59 0 123 19q114 33 221 109q79 54 191 162zM1402 884q-2 -27 -30 -27
q-27 0 -25 27t29 27q28 0 26 -27zM1298 884q-2 -27 -30 -27q-27 0 -25 27t29 27q28 0 26 -27z" />
    <glyph glyph-name="Aring" unicode="&#xc5;" horiz-adv-x="1188" 
d="M1334 753q-96 -140 -203 -327q27 -14 42 -26.5t8 -23.5q-8 -11 -18 -2q-15 13 -45 29q-40 -72 -68 -129q-69 -141 -69 -209q0 -58 53 -58q48 0 81 39q8 10 13 8q10 -2 -2.5 -19t-41.5 -33q-35 -19 -67 -19q-21 0 -39 8q-62 31 -62 96q0 52 34 134q26 62 120 205
q-70 29 -137 45l-177 -197q-109 -118 -197 -183q-116 -85 -235 -110q-32 -7 -69 -7q-90 0 -149 39q-74 48 -76 144q-2 128 170 233q157 96 362 121q75 10 147 10q108 0 208 -21q243 234 292 266q56 38 93 38q40 0 40 -29q0 -11 -8 -22zM1313 782q-4 2 -11 2q-22 0 -62 -22
q-66 -38 -287 -270q69 -17 131 -44q64 96 149 208q63 83 80 103q14 16 0 23zM895 480q-89 18 -185 18q-98 0 -204 -19q-166 -31 -299 -112q-150 -92 -150 -193q0 -10 1 -21q18 -104 155 -104q59 0 123 19q114 33 221 109q79 54 191 162zM1437 923q-2 -31 -25 -53.5
t-54 -22.5t-51.5 22.5t-18.5 53.5q3 31 26.5 52t54.5 21t50.5 -21t17.5 -52zM1415 923q1 21 -12.5 36t-35.5 15q-21 0 -38 -15t-18 -36q-2 -22 13 -37.5t36 -15.5t37 15.5t18 37.5z" />
    <glyph glyph-name="AE" unicode="&#xc6;" horiz-adv-x="1662" 
d="M1778 694h-20q-8 -45 -43.5 -81t-80.5 -36q-41 0 -41 36q0 22 23 45t51.5 35.5t66.5 15.5q-1 21 -13 37q-23 30 -89 30q-110 0 -227 -67q-61 -35 -95.5 -85.5t-34.5 -99.5q0 -39 20 -65q89 28 155 28q72 0 76 -40q6 -47 -75 -60q-19 -3 -42 -3q-89 0 -150 37
q-90 -38 -165 -122q-80 -88 -80 -161q0 -25 10 -45q44 -87 175 -87q106 0 225 48q144 59 215 143q17 19 30 16q15 -2 -21.5 -39t-93.5 -77q-66 -45 -124 -68q-144 -57 -282 -57q-172 0 -218 107q-12 27 -12 58q0 66 53 157l88 132q-70 29 -137 45l-177 -197
q-109 -118 -197 -183q-116 -85 -235 -110q-33 -7 -69 -7q-90 0 -149 39q-74 48 -76 144q-2 128 170 233q157 96 362 121q74 10 147 10q108 0 207 -21q244 234 293 266q56 38 93 38q39 0 39 -29q0 -11 -7 -22l-57 -88q46 38 116 72q116 58 244 58q97 0 122 -43q11 -18 11 -42
q29 0 29 -10q0 -7 -10 -6zM1732 691q-44 -7 -72 -25q-40 -27 -40 -48q0 -17 19 -17q33 0 64 33q22 23 29 57zM1499 447q-4 21 -49 21q-51 0 -136 -28q44 -34 122 -33q32 1 48.5 12.5t14.5 27.5zM1302 782q-4 2 -11 2q-22 0 -62 -22q-66 -38 -287 -270q69 -17 131 -44
q64 96 149 208q63 83 80 103q14 16 0 23zM1237 436q-55 44 -52 100q-65 -108 -106 -183q69 45 158 83zM884 480q-89 18 -185 18q-99 0 -204 -19q-166 -31 -299 -112q-150 -92 -150 -193q0 -10 1 -21q18 -104 155 -104q58 0 123 19q114 33 221 109q79 54 191 162z" />
    <glyph glyph-name="Ccedilla" unicode="&#xc7;" horiz-adv-x="743" 
d="M938 700q-1 -8 -17 -6h-15q-9 -57 -52 -92q-31 -25 -68 -25q-44 0 -44 33q0 50 69 81q32 14 71 18q-1 63 -94 63q-73 0 -169 -36q-113 -41 -224 -120q-152 -108 -230 -225q-69 -103 -69 -194q0 -48 20 -85q54 -100 234 -100q50 0 95 8q129 25 232 87q70 43 111 90
q16 17 28 17q4 0 5 -2q7 -10 -17 -33q-65 -64 -120 -99q-98 -61 -232 -88q-70 -14 -137 -14l-26 -42q34 -11 32 -41q-3 -37 -46 -55q-33 -13 -76 -13q-13 0 -12 7q0 6 13 6q28 0 57.5 16.5t31.5 42.5q2 19 -26 33q2 3 29 46q-176 5 -248 98q-42 53 -42 133q0 169 193 332
q145 123 320 193q153 61 268 61q64 0 93 -21q32 -24 32 -64q31 0 30 -10zM881 691q-53 -9 -81 -31q-31 -23 -31 -45q0 -14 18 -14q22 0 51 21q34 24 43 69z" />
    <glyph glyph-name="Egrave" unicode="&#xc8;" horiz-adv-x="696" 
d="M879 694h-20q-8 -45 -43.5 -81t-80.5 -36q-40 0 -40 36q0 22 22.5 45t51.5 35.5t66 15.5q0 21 -13 37q-23 29 -88 29q-113 0 -228 -66q-61 -35 -95.5 -85.5t-34.5 -99.5q0 -39 20 -65q80 25 144 27q83 4 87 -39q5 -47 -75 -60q-19 -3 -42 -3q-89 0 -150 37
q-90 -38 -165 -122q-80 -88 -80 -161q0 -25 11 -45q43 -87 174 -87q106 0 225 48q144 59 216 143q16 19 29 16q15 -2 -21 -39t-93 -77q-67 -45 -125 -68q-143 -57 -282 -57q-171 0 -218 107q-13 30 -13 60q0 88 108 175q82 66 212 122q-58 46 -51 105q12 109 192 198
q118 58 245 58q98 0 125 -44q11 -18 11 -43q29 0 29 -10q0 -7 -10 -6zM833 691q-44 -7 -72 -25q-40 -27 -40 -48q0 -17 19 -17q33 0 64 33q22 23 29 57zM600 447q-4 20 -53 20q-17 0 -37 -2q-42 -6 -95 -25q44 -34 122 -33q32 1 49 12.5t14 27.5zM733 833q0 -6 -5 -6
q-87 51 -118 72q-13 9 -12 26q1 24 23 24q11 0 21 -7q35 -50 62 -79l17 -15q13 -11 12 -15z" />
    <glyph glyph-name="Eacute" unicode="&#xc9;" horiz-adv-x="696" 
d="M879 694h-20q-8 -45 -43.5 -81t-80.5 -36q-40 0 -40 36q0 22 22.5 45t51.5 35.5t66 15.5q0 21 -13 37q-23 29 -88 29q-113 0 -228 -66q-61 -35 -95.5 -85.5t-34.5 -99.5q0 -39 20 -65q80 25 144 27q83 4 87 -39q5 -47 -75 -60q-19 -3 -42 -3q-89 0 -150 37
q-90 -38 -165 -122q-80 -88 -80 -161q0 -25 11 -45q43 -87 174 -87q106 0 225 48q144 59 216 143q16 19 29 16q15 -2 -21 -39t-93 -77q-67 -45 -125 -68q-143 -57 -282 -57q-171 0 -218 107q-13 30 -13 60q0 88 108 175q82 66 212 122q-58 46 -51 105q12 109 192 198
q118 58 245 58q98 0 125 -44q11 -18 11 -43q29 0 29 -10q0 -7 -10 -6zM833 691q-44 -7 -72 -25q-40 -27 -40 -48q0 -17 19 -17q33 0 64 33q22 23 29 57zM600 447q-4 20 -53 20q-17 0 -37 -2q-42 -6 -95 -25q44 -34 122 -33q32 1 49 12.5t14 27.5zM840 942q-1 -15 -17 -24
l-93 -43q-12 -7 -35 -19h-2q-1 -1 -2 -1q-5 0 -5 6q0 1 3 4l109 94q9 6 20 6q23 0 22 -23z" />
    <glyph glyph-name="Ecircumflex" unicode="&#xca;" horiz-adv-x="696" 
d="M879 694h-20q-8 -45 -43.5 -81t-80.5 -36q-40 0 -40 36q0 22 22.5 45t51.5 35.5t66 15.5q0 21 -13 37q-23 29 -88 29q-113 0 -228 -66q-61 -35 -95.5 -85.5t-34.5 -99.5q0 -39 20 -65q80 25 144 27q83 4 87 -39q5 -47 -75 -60q-19 -3 -42 -3q-89 0 -150 37
q-90 -38 -165 -122q-80 -88 -80 -161q0 -25 11 -45q43 -87 174 -87q106 0 225 48q144 59 216 143q16 19 29 16q15 -2 -21 -39t-93 -77q-67 -45 -125 -68q-143 -57 -282 -57q-171 0 -218 107q-13 30 -13 60q0 88 108 175q82 66 212 122q-58 46 -51 105q12 109 192 198
q118 58 245 58q98 0 125 -44q11 -18 11 -43q29 0 29 -10q0 -7 -10 -6zM833 691q-44 -7 -72 -25q-40 -27 -40 -48q0 -17 19 -17q33 0 64 33q22 23 29 57zM600 447q-4 20 -53 20q-17 0 -37 -2q-42 -6 -95 -25q44 -34 122 -33q32 1 49 12.5t14 27.5zM813 842q-2 -3 -5 -3h-29
l-4 2q-19 29 -39 64l-106 -71q-4 0 -7 4.5t-2 7.5q5 8 130 88q2 2 5 2q1 0 4 -3q8 -11 51 -86q2 -4 2 -5z" />
    <glyph glyph-name="Edieresis" unicode="&#xcb;" horiz-adv-x="696" 
d="M879 694h-20q-8 -45 -43.5 -81t-80.5 -36q-40 0 -40 36q0 22 22.5 45t51.5 35.5t66 15.5q0 21 -13 37q-23 29 -88 29q-113 0 -228 -66q-61 -35 -95.5 -85.5t-34.5 -99.5q0 -39 20 -65q80 25 144 27q83 4 87 -39q5 -47 -75 -60q-19 -3 -42 -3q-89 0 -150 37
q-90 -38 -165 -122q-80 -88 -80 -161q0 -25 11 -45q43 -87 174 -87q106 0 225 48q144 59 216 143q16 19 29 16q15 -2 -21 -39t-93 -77q-67 -45 -125 -68q-143 -57 -282 -57q-171 0 -218 107q-13 30 -13 60q0 88 108 175q82 66 212 122q-58 46 -51 105q12 109 192 198
q118 58 245 58q98 0 125 -44q11 -18 11 -43q29 0 29 -10q0 -7 -10 -6zM833 691q-44 -7 -72 -25q-40 -27 -40 -48q0 -17 19 -17q33 0 64 33q22 23 29 57zM600 447q-4 20 -53 20q-17 0 -37 -2q-42 -6 -95 -25q44 -34 122 -33q32 1 49 12.5t14 27.5zM789 872q-2 -27 -29 -27
q-28 0 -26 27q2 28 29 28q28 0 26 -28zM685 872q-2 -27 -29 -27q-28 0 -26 27q2 28 29 28q28 0 26 -28z" />
    <glyph glyph-name="Igrave" unicode="&#xcc;" horiz-adv-x="858" 
d="M960 802q33 -25 33 -94q0 -118 -84 -276q-93 -176 -241 -296q-112 -92 -241 -138q6 -18 17 -48q5 -16 -11 -16q-11 0 -14 10l-16 46q-87 -28 -190 -28q-152 0 -189 76q-11 22 -11 49q0 71 52 121q30 28 57 28q30 0 30 -28q0 -13 -8.5 -23.5t-20.5 -10.5q-4 0 -7 2
q-32 10 -56 -21q-20 -27 -20 -66q0 -29 15 -49q26 -34 90 -34q90 0 236 61q-12 57 -10 124q9 229 142 407q76 102 183 166q101 60 185 60q48 0 79 -22zM936 787q-23 16 -59 16q-75 0 -175 -63t-174 -159q-52 -70 -87 -166q-38 -106 -43 -218q-4 -60 8 -119q164 74 286 186
q117 108 196 241q76 130 76 214q0 48 -28 68zM926 869q-1 -6 -6 -6q-87 51 -118 72q-13 9 -12 26q2 24 24 24q10 0 20 -7q35 -50 63 -79q8 -8 16 -15q13 -12 13 -15z" />
    <glyph glyph-name="Iacute" unicode="&#xcd;" horiz-adv-x="858" 
d="M960 802q33 -25 33 -94q0 -118 -84 -276q-93 -176 -241 -296q-112 -92 -241 -138q6 -18 17 -48q5 -16 -11 -16q-11 0 -14 10l-16 46q-87 -28 -190 -28q-152 0 -189 76q-11 22 -11 49q0 71 52 121q30 28 57 28q30 0 30 -28q0 -13 -8.5 -23.5t-20.5 -10.5q-4 0 -7 2
q-32 10 -56 -21q-20 -27 -20 -66q0 -29 15 -49q26 -34 90 -34q90 0 236 61q-12 57 -10 124q9 229 142 407q76 102 183 166q101 60 185 60q48 0 79 -22zM936 787q-23 16 -59 16q-75 0 -175 -63t-174 -159q-52 -70 -87 -166q-38 -106 -43 -218q-4 -60 8 -119q164 74 286 186
q117 108 196 241q76 130 76 214q0 48 -28 68zM1040 956q-1 -15 -16 -24q-32 -14 -93 -43q-12 -7 -36 -19h-2q-1 -1 -2 -1q-5 0 -4 6q0 1 3 4q41 38 108 94q9 6 21 6q23 0 21 -23z" />
    <glyph glyph-name="Icircumflex" unicode="&#xce;" horiz-adv-x="858" 
d="M960 802q33 -25 33 -94q0 -118 -84 -276q-93 -176 -241 -296q-112 -92 -241 -138q6 -18 17 -48q5 -16 -11 -16q-11 0 -14 10l-16 46q-87 -28 -190 -28q-152 0 -189 76q-11 22 -11 49q0 71 52 121q30 28 57 28q30 0 30 -28q0 -13 -8.5 -23.5t-20.5 -10.5q-4 0 -7 2
q-32 10 -56 -21q-20 -27 -20 -66q0 -29 15 -49q26 -34 90 -34q90 0 236 61q-12 57 -10 124q9 229 142 407q76 102 183 166q101 60 185 60q48 0 79 -22zM936 787q-23 16 -59 16q-75 0 -175 -63t-174 -159q-52 -70 -87 -166q-38 -106 -43 -218q-4 -60 8 -119q164 74 286 186
q117 108 196 241q76 130 76 214q0 48 -28 68zM995 877q-2 -3 -4 -3h-29l-5 2q-19 29 -39 64l-106 -71q-3 0 -6.5 4.5t-1.5 7.5q4 8 129 88q2 2 5 2q1 0 4 -3q8 -11 51 -86q2 -4 2 -5z" />
    <glyph glyph-name="Idieresis" unicode="&#xcf;" horiz-adv-x="858" 
d="M960 802q33 -25 33 -94q0 -118 -84 -276q-93 -176 -241 -296q-112 -92 -241 -138q6 -18 17 -48q5 -16 -11 -16q-11 0 -14 10l-16 46q-87 -28 -190 -28q-152 0 -189 76q-11 22 -11 49q0 71 52 121q30 28 57 28q30 0 30 -28q0 -13 -8.5 -23.5t-20.5 -10.5q-4 0 -7 2
q-32 10 -56 -21q-20 -27 -20 -66q0 -29 15 -49q26 -34 90 -34q90 0 236 61q-12 57 -10 124q9 229 142 407q76 102 183 166q101 60 185 60q48 0 79 -22zM936 787q-23 16 -59 16q-75 0 -175 -63t-174 -159q-52 -70 -87 -166q-38 -106 -43 -218q-4 -60 8 -119q164 74 286 186
q117 108 196 241q76 130 76 214q0 48 -28 68zM990 900q-2 -28 -29 -28t-26 28q2 27 30 27q27 0 25 -27zM886 900q-2 -28 -29 -28t-26 28q2 27 30 27q27 0 25 -27z" />
    <glyph glyph-name="Eth" unicode="&#xd0;" horiz-adv-x="886" 
d="M977 579q-17 -106 -82 -231q-85 -163 -212 -262q-178 -140 -350 -140q-51 0 -86 14t-43 34q-4 11 -4 23q0 49 69 100q58 43 127 64q59 17 131 17q71 0 103 -14q18 -8 18 -15q0 -5 -12 -5q-14 0 -47.5 6.5t-53.5 6.5q-67 0 -138 -20q-64 -19 -114 -57q-54 -41 -54 -79
q0 -8 3 -14q10 -32 96 -32q70 0 146 25q89 30 156 86q125 106 201 261q67 140 67 257q0 99 -51 128q-39 21 -89 21q-111 0 -255 -96q-58 -134 -115 -246h188q20 0 20 -20q0 -22 -20 -22h-209q-202 -376 -296 -376q-47 0 -47 66q0 120 139 310h-44q-20 0 -20 22q0 20 20 20
h76q121 152 282 260q9 25 24 61l21 68q6 18 22 15q14 -2 10 -26q-4 -20 -33 -90q176 108 294 103q168 -6 168 -158q0 -29 -6 -65zM458 625q-127 -98 -222 -214h123q49 94 99 214zM336 369h-133q-50 -67 -92 -142q-54 -98 -54 -154q0 -38 27 -38q64 0 248 327z" />
    <glyph glyph-name="Ntilde" unicode="&#xd1;" horiz-adv-x="1440" 
d="M2053 729q0 -16 -8 -17q-9 -1 -14 13q-8 18 -32 31q-28 16 -64 15q-103 0 -233 -117q-84 -76 -202 -226l-220 -299q-103 -132 -164 -132q-14 0 -28 6q-45 21 -45 96q0 99 68 246q-273 -302 -559 -382q-101 -29 -202 -29q-117 0 -198 39q-90 44 -117 129q-11 33 -11 66
q0 115 116 208q119 97 329 144q115 26 234 26q140 0 272 -35q107 -28 182 -70l21 39q82 162 148.5 257.5t91.5 85.5q7 -4 7 -15q0 -36 -63 -137q-29 -47 -83 -118q-98 -126 -98 -127q59 -37 59 -53q0 -2 -2 -4q-10 -10 -39 14q-13 10 -33 22q-80 -169 -80 -276q0 -82 48 -82
q40 0 128 116l209 278q140 177 209 243q156 149 277 137q40 -4 70 -35q26 -28 26 -57zM1144 418q-63 40 -175 68q-129 32 -267 32q-114 0 -220 -23q-214 -47 -326 -143q-94 -81 -94 -172q0 -88 88 -129q67 -32 166 -32q64 0 139 12q171 28 368 137q181 100 287 213z
M1747 910q-2 -20 -21.5 -34.5t-42.5 -14.5q-22 1 -60.5 17.5t-60.5 16.5q-14 0 -29.5 -13.5t-16.5 -13.5q-4 0 -4 5q2 20 23.5 38t46.5 18q22 0 65 -20.5t55 -20.5q17 0 27 13.5t11 13.5q7 0 7 -5z" />
    <glyph glyph-name="Ograve" unicode="&#xd2;" horiz-adv-x="684" 
d="M691 806q42 -15 66.5 -68.5t24.5 -129.5q0 -198 -139 -380q-95 -124 -211.5 -197.5t-217.5 -73.5q-73 0 -126 40q-75 56 -75 177q0 166 123 332q162 220 326 275q16 5 22 0q10 -7 -16 -16q-43 -14 -114 -70q-104 -80 -175 -189q-89 -137 -89 -284q0 -144 86 -191
q40 -22 90 -22q171 0 347 224q143 182 143 375q0 69 -20.5 116.5t-55.5 58.5q-19 7 -40 7q-100 0 -207 -159q-57 -86 -57 -159q0 -44 23 -57q14 -7 30 -7q66 0 124 90q16 24 24 19q13 -6 0 -29q-20 -37 -66 -71q-52 -39 -99 -39q-26 0 -47 13q-44 26 -44 97q0 65 36 127
q49 85 130 142t155 57q26 0 49 -8zM686 860q0 -6 -5 -6q-87 51 -118 72q-14 9 -12 26q1 24 23 24q11 0 21 -7q35 -49 62 -79q9 -7 17 -15q12 -11 12 -15z" />
    <glyph glyph-name="Oacute" unicode="&#xd3;" horiz-adv-x="684" 
d="M691 806q42 -15 66.5 -68.5t24.5 -129.5q0 -198 -139 -380q-95 -124 -211.5 -197.5t-217.5 -73.5q-73 0 -126 40q-75 56 -75 177q0 166 123 332q162 220 326 275q16 5 22 0q10 -7 -16 -16q-43 -14 -114 -70q-104 -80 -175 -189q-89 -137 -89 -284q0 -144 86 -191
q40 -22 90 -22q171 0 347 224q143 182 143 375q0 69 -20.5 116.5t-55.5 58.5q-19 7 -40 7q-100 0 -207 -159q-57 -86 -57 -159q0 -44 23 -57q14 -7 30 -7q66 0 124 90q16 24 24 19q13 -6 0 -29q-20 -37 -66 -71q-52 -39 -99 -39q-26 0 -47 13q-44 26 -44 97q0 65 36 127
q49 85 130 142t155 57q26 0 49 -8zM805 941q-1 -16 -17 -24l-93 -43q-12 -8 -35 -19q-1 -1 -2 -1h-2q-5 0 -5 6q0 1 4 4q41 38 108 94q9 6 21 6q23 0 21 -23z" />
    <glyph glyph-name="Ocircumflex" unicode="&#xd4;" horiz-adv-x="684" 
d="M691 806q42 -15 66.5 -68.5t24.5 -129.5q0 -198 -139 -380q-95 -124 -211.5 -197.5t-217.5 -73.5q-73 0 -126 40q-75 56 -75 177q0 166 123 332q162 220 326 275q16 5 22 0q10 -7 -16 -16q-43 -14 -114 -70q-104 -80 -175 -189q-89 -137 -89 -284q0 -144 86 -191
q40 -22 90 -22q171 0 347 224q143 182 143 375q0 69 -20.5 116.5t-55.5 58.5q-19 7 -40 7q-100 0 -207 -159q-57 -86 -57 -159q0 -44 23 -57q14 -7 30 -7q66 0 124 90q16 24 24 19q13 -6 0 -29q-20 -37 -66 -71q-52 -39 -99 -39q-26 0 -47 13q-44 26 -44 97q0 65 36 127
q49 85 130 142t155 57q26 0 49 -8zM763 866q-2 -3 -5 -3h-29l-5 2l-38 64l-106 -71q-4 0 -7 4.5t-2 7.5q5 8 130 88q2 2 5 2q1 0 4 -3q8 -10 51 -86q2 -4 2 -5z" />
    <glyph glyph-name="Otilde" unicode="&#xd5;" horiz-adv-x="684" 
d="M691 806q42 -15 66.5 -68.5t24.5 -129.5q0 -198 -139 -380q-95 -124 -211.5 -197.5t-217.5 -73.5q-73 0 -126 40q-75 56 -75 177q0 166 123 332q162 220 326 275q16 5 22 0q10 -7 -16 -16q-43 -14 -114 -70q-104 -80 -175 -189q-89 -137 -89 -284q0 -144 86 -191
q40 -22 90 -22q171 0 347 224q143 182 143 375q0 69 -20.5 116.5t-55.5 58.5q-19 7 -40 7q-100 0 -207 -159q-57 -86 -57 -159q0 -44 23 -57q14 -7 30 -7q66 0 124 90q16 24 24 19q13 -6 0 -29q-20 -37 -66 -71q-52 -39 -99 -39q-26 0 -47 13q-44 26 -44 97q0 65 36 127
q49 85 130 142t155 57q26 0 49 -8zM772 910q-1 -20 -20.5 -34.5t-42.5 -14.5q-22 0 -61 17t-61 17q-13 0 -29 -13.5t-17 -13.5q-4 0 -3 5q1 20 23 38t47 18q21 0 64 -20.5t56 -20.5q16 0 26 13.5t12 13.5q7 0 6 -5z" />
    <glyph glyph-name="Odieresis" unicode="&#xd6;" horiz-adv-x="684" 
d="M691 806q42 -15 66.5 -68.5t24.5 -129.5q0 -198 -139 -380q-95 -124 -211.5 -197.5t-217.5 -73.5q-73 0 -126 40q-75 56 -75 177q0 166 123 332q162 220 326 275q16 5 22 0q10 -7 -16 -16q-43 -14 -114 -70q-104 -80 -175 -189q-89 -137 -89 -284q0 -144 86 -191
q40 -22 90 -22q171 0 347 224q143 182 143 375q0 69 -20.5 116.5t-55.5 58.5q-19 7 -40 7q-100 0 -207 -159q-57 -86 -57 -159q0 -44 23 -57q14 -7 30 -7q66 0 124 90q16 24 24 19q13 -6 0 -29q-20 -37 -66 -71q-52 -39 -99 -39q-26 0 -47 13q-44 26 -44 97q0 65 36 127
q49 85 130 142t155 57q26 0 49 -8zM739 898q-2 -27 -29 -27t-26 27q2 27 30 27q27 0 25 -27zM635 898q-2 -27 -29 -27t-26 27q2 27 30 27q27 0 25 -27z" />
    <glyph glyph-name="Oslash" unicode="&#xd8;" horiz-adv-x="684" 
d="M818 789l-58 -54q22 -50 22 -122q0 -196 -141 -380q-95 -126 -212 -200.5t-218 -74.5q-71 0 -123 39q-35 26 -54 68l-56 -53v35l47 43q-12 38 -12 84q0 166 123 332q162 220 326 275q16 5 22 0q10 -7 -16 -16q-43 -14 -114 -70q-104 -80 -175 -189q-89 -137 -89 -284
q0 -35 6 -66l260 241q-37 30 -37 95q0 66 38 123q54 82 131 138q84 60 157 60q68 0 103 -54l70 65v-35zM729 742q-28 47 -87 47q-102 0 -209 -158q-57 -86 -57 -159q0 -30 12 -46zM741 718l-332 -307q10 -3 20 -3q66 0 124 90q16 24 24 19q13 -6 0 -29q-20 -37 -66 -71
q-52 -39 -99 -39q-17 0 -32 6l-277 -256q22 -69 73 -97q39 -21 88 -21q169 0 348 227q146 186 146 378q0 59 -17 103z" />
    <glyph glyph-name="Ugrave" unicode="&#xd9;" horiz-adv-x="1063" 
d="M1294 800q3 -9 -134 -202q-158 -221 -162 -227l-118 -179q-65 -103 -65 -142q0 -28 30 -28q45 0 80 32q14 13 21 8q9 -7 -6.5 -25t-49.5 -32.5t-65 -14.5q-30 0 -45 17t-15 46q0 70 98 231q-38 -38 -78 -70q-271 -225 -403 -225q-23 0 -41 8q-46 21 -46 75q0 68 62 138
q46 52 161 145q103 84 146 141q72 94 72 177q0 57 -40 88.5t-109 31.5q-114 0 -257 -80q-107 -59 -185 -159t-78 -179q0 -30 13 -52q28 -49 101 -49q55 0 124 26q60 23 97 52q104 79 139 193q5 18 17 19q6 1 9.5 -4.5t0.5 -14.5q-15 -53 -34 -85q-38 -64 -118 -125
q-42 -32 -104 -56q-71 -26 -131 -26q-92 0 -130 63q-30 49 -30 110q0 74 44 148q48 79 137 141q156 109 335 109q118 0 175 -46q48 -38 48 -112q0 -92 -65 -191q-37 -56 -104 -122q-88 -86 -117 -119q-94 -111 -94 -172q0 -40 37 -40q53 0 184 84q101 65 173 126
q116 98 178 191l232 351q4 3 36.5 14t52.5 14q19 3 21 -2zM984 838q-1 -6 -6 -6q-87 51 -118 72q-13 9 -12 26q2 24 24 24q10 0 20 -7q35 -50 63 -79q8 -8 16 -15q13 -12 13 -15z" />
    <glyph glyph-name="Uacute" unicode="&#xda;" horiz-adv-x="1063" 
d="M1294 800q3 -9 -134 -202q-158 -221 -162 -227l-118 -179q-65 -103 -65 -142q0 -28 30 -28q45 0 80 32q14 13 21 8q9 -7 -6.5 -25t-49.5 -32.5t-65 -14.5q-30 0 -45 17t-15 46q0 70 98 231q-38 -38 -78 -70q-271 -225 -403 -225q-23 0 -41 8q-46 21 -46 75q0 68 62 138
q46 52 161 145q103 84 146 141q72 94 72 177q0 57 -40 88.5t-109 31.5q-114 0 -257 -80q-107 -59 -185 -159t-78 -179q0 -30 13 -52q28 -49 101 -49q55 0 124 26q60 23 97 52q104 79 139 193q5 18 17 19q6 1 9.5 -4.5t0.5 -14.5q-15 -53 -34 -85q-38 -64 -118 -125
q-42 -32 -104 -56q-71 -26 -131 -26q-92 0 -130 63q-30 49 -30 110q0 74 44 148q48 79 137 141q156 109 335 109q118 0 175 -46q48 -38 48 -112q0 -92 -65 -191q-37 -56 -104 -122q-88 -86 -117 -119q-94 -111 -94 -172q0 -40 37 -40q53 0 184 84q101 65 173 126
q116 98 178 191l232 351q4 3 36.5 14t52.5 14q19 3 21 -2zM1100 936q-2 -16 -17 -24q-32 -14 -93 -43q-12 -8 -36 -19q-1 0 -2 -1h-2q-5 0 -4 6q0 1 3 4q41 38 109 94q8 6 20 6q23 0 22 -23z" />
    <glyph glyph-name="Ucircumflex" unicode="&#xdb;" horiz-adv-x="1063" 
d="M1294 800q3 -9 -134 -202q-158 -221 -162 -227l-118 -179q-65 -103 -65 -142q0 -28 30 -28q45 0 80 32q14 13 21 8q9 -7 -6.5 -25t-49.5 -32.5t-65 -14.5q-30 0 -45 17t-15 46q0 70 98 231q-38 -38 -78 -70q-271 -225 -403 -225q-23 0 -41 8q-46 21 -46 75q0 68 62 138
q46 52 161 145q103 84 146 141q72 94 72 177q0 57 -40 88.5t-109 31.5q-114 0 -257 -80q-107 -59 -185 -159t-78 -179q0 -30 13 -52q28 -49 101 -49q55 0 124 26q60 23 97 52q104 79 139 193q5 18 17 19q6 1 9.5 -4.5t0.5 -14.5q-15 -53 -34 -85q-38 -64 -118 -125
q-42 -32 -104 -56q-71 -26 -131 -26q-92 0 -130 63q-30 49 -30 110q0 74 44 148q48 79 137 141q156 109 335 109q118 0 175 -46q48 -38 48 -112q0 -92 -65 -191q-37 -56 -104 -122q-88 -86 -117 -119q-94 -111 -94 -172q0 -40 37 -40q53 0 184 84q101 65 173 126
q116 98 178 191l232 351q4 3 36.5 14t52.5 14q19 3 21 -2zM1086 849q-1 -3 -4 -3h-29l-5 2l-38 64l-106 -71q-4 0 -7 4.5t-2 7.5q5 8 130 88q2 2 5 2q1 0 4 -3q7 -10 51 -86q1 -4 1 -5z" />
    <glyph glyph-name="Udieresis" unicode="&#xdc;" horiz-adv-x="1063" 
d="M1294 800q3 -9 -134 -202q-158 -221 -162 -227l-118 -179q-65 -103 -65 -142q0 -28 30 -28q45 0 80 32q14 13 21 8q9 -7 -6.5 -25t-49.5 -32.5t-65 -14.5q-30 0 -45 17t-15 46q0 70 98 231q-38 -38 -78 -70q-271 -225 -403 -225q-23 0 -41 8q-46 21 -46 75q0 68 62 138
q46 52 161 145q103 84 146 141q72 94 72 177q0 57 -40 88.5t-109 31.5q-114 0 -257 -80q-107 -59 -185 -159t-78 -179q0 -30 13 -52q28 -49 101 -49q55 0 124 26q60 23 97 52q104 79 139 193q5 18 17 19q6 1 9.5 -4.5t0.5 -14.5q-15 -53 -34 -85q-38 -64 -118 -125
q-42 -32 -104 -56q-71 -26 -131 -26q-92 0 -130 63q-30 49 -30 110q0 74 44 148q48 79 137 141q156 109 335 109q118 0 175 -46q48 -38 48 -112q0 -92 -65 -191q-37 -56 -104 -122q-88 -86 -117 -119q-94 -111 -94 -172q0 -40 37 -40q53 0 184 84q101 65 173 126
q116 98 178 191l232 351q4 3 36.5 14t52.5 14q19 3 21 -2zM1061 863q-2 -28 -29 -28t-25 28q1 27 29 27q27 0 25 -27zM957 863q-2 -28 -29 -28t-25 28q1 27 29 27q27 0 25 -27z" />
    <glyph glyph-name="Yacute" unicode="&#xdd;" horiz-adv-x="1052" 
d="M1049 413q0 -90 -73 -233q-87 -173 -234 -311q-111 -104 -247 -182q-147 -84 -235 -84q-53 0 -76 32q-8 12 -8 28q0 40 57 90.5t152 90.5q123 52 254 52q46 0 86 -6q126 116 216 279q80 147 80 226q0 39 -22 39q-25 0 -97 -75q-117 -122 -132 -136q-102 -92 -200 -154
q-125 -80 -199 -80q-23 0 -41 8q-45 21 -45 75q0 68 62 138q45 51 161 144q104 83 146 142q68 93 68 175q0 57 -36.5 91t-107.5 34q-115 0 -258 -83q-103 -59 -182 -159q-80 -103 -80 -181q0 -29 12 -50q27 -49 101 -49q55 0 123 26q60 23 98 52q104 79 139 193q5 18 17 19
q6 1 9.5 -4.5t0.5 -14.5q-15 -53 -34 -85q-39 -64 -118 -125q-42 -32 -104 -56q-71 -26 -131 -26q-92 0 -130 63q-30 49 -30 109q0 74 44 148q48 79 137 142q157 112 337 112q120 0 173 -49q47 -42 47 -118q0 -95 -64 -185q-39 -54 -106 -121q-84 -84 -115 -120
q-94 -111 -94 -172q0 -40 36 -40q51 0 180 90q103 72 169 136l204 198q23 21 46 21q44 0 44 -54zM704 -129q-33 4 -67 4q-116 0 -213 -39q-83 -34 -135 -81t-52 -84q0 -36 42 -36q64 0 178 59q129 68 247 177zM1038 872q-1 -16 -17 -24l-93 -43q-12 -8 -35 -19q-1 -1 -2 -1
h-2q-5 0 -5 6q0 1 4 4l108 94q9 6 21 6q23 0 21 -23z" />
    <glyph glyph-name="germandbls" unicode="&#xdf;" horiz-adv-x="546" 
d="M767 715q-12 -92 -124 -191q-102 -91 -204 -122q46 -36 46 -113q0 -94 -71 -180q-67 -80 -160 -113q104 5 221 99q77 62 151 136q2 3 7 3q11 0 11 -11q0 -5 -5 -11q-40 -45 -120 -110q-87 -69 -131 -92q-72 -38 -153 -38q-62 0 -100 22q-46 27 -46 83q0 41 25.5 77.5
t65.5 37.5q17 0 26 -11t8 -27q-4 -33 -42 -33q-4 0 -12.5 3.5t-13.5 2.5q-26 -3 -30 -43q-3 -34 15 -55t50 -21q74 0 158 118q75 108 86 192q6 48 -18 72q-20 -5 -40 -5q-40 0 -38 19q3 19 37 19q28 0 46 -6q92 17 201 111q116 98 126 183q9 68 -60 68q-75 0 -165 -75
q-98 -83 -250 -302q-75 -107 -177 -268l-171 -271l-81 -126q-39 -58 -48 -64q-21 -12 -57 -25.5t-52 -13.5q-17 0 -17 8t13 13q24 12 45 40l46 70l161 249q166 245 291 402q133 165 210 240q151 147 253 147q98 0 87 -88z" />
    <glyph glyph-name="agrave" unicode="&#xe0;" 
d="M575 211q-43 -52 -135 -121q-132 -98 -183 -91q-54 7 -54 62q0 13 4 27q-80 -92 -139 -89q-62 3 -62 76q0 68 64 149t152 134q81 47 137 47q24 0 38 -11t11 -34q23 23 28 27t14 5q10 2 16 0q6 -1 3 -6l-112 -165q-71 -110 -77 -157q-5 -30 17 -30q38 0 140 83
q91 73 122 112q4 5 11 5q12 0 12 -10q0 -6 -7 -13zM373 318q12 15 12 35q0 30 -29 30q-31 0 -79 -31q-52 -33 -100 -88q-108 -122 -108 -202q0 -34 23 -34q26 0 82 54q47 45 85 96q48 64 114 140zM411 456q0 -6 -5 -6q-87 51 -118 72q-13 9 -12 26q1 24 23 24q11 0 21 -7
q35 -49 62 -79q9 -7 17 -15q13 -11 12 -15z" />
    <glyph glyph-name="aacute" unicode="&#xe1;" 
d="M575 211q-43 -52 -135 -121q-132 -98 -183 -91q-54 7 -54 62q0 13 4 27q-80 -92 -139 -89q-62 3 -62 76q0 68 64 149t152 134q81 47 137 47q24 0 38 -11t11 -34q23 23 28 27t14 5q10 2 16 0q6 -1 3 -6l-112 -165q-71 -110 -77 -157q-5 -30 17 -30q38 0 140 83
q91 73 122 112q4 5 11 5q12 0 12 -10q0 -6 -7 -13zM373 318q12 15 12 35q0 30 -29 30q-31 0 -79 -31q-52 -33 -100 -88q-108 -122 -108 -202q0 -34 23 -34q26 0 82 54q47 45 85 96q48 64 114 140zM526 533q-1 -16 -17 -24q-32 -14 -93 -43q-12 -8 -35 -19q-1 -1 -2 -1h-2
q-5 0 -5 6q0 1 3 4q41 38 109 94q9 6 20 6q23 0 22 -23z" />
    <glyph glyph-name="acircumflex" unicode="&#xe2;" 
d="M575 211q-43 -52 -135 -121q-132 -98 -183 -91q-54 7 -54 62q0 13 4 27q-80 -92 -139 -89q-62 3 -62 76q0 68 64 149t152 134q81 47 137 47q24 0 38 -11t11 -34q23 23 28 27t14 5q10 2 16 0q6 -1 3 -6l-112 -165q-71 -110 -77 -157q-5 -30 17 -30q38 0 140 83
q91 73 122 112q4 5 11 5q12 0 12 -10q0 -6 -7 -13zM373 318q12 15 12 35q0 30 -29 30q-31 0 -79 -31q-52 -33 -100 -88q-108 -122 -108 -202q0 -34 23 -34q26 0 82 54q47 45 85 96q48 64 114 140zM482 452q-2 -3 -4 -3h-29l-5 2q-19 29 -38 64l-106 -71q-4 0 -7.5 5t-1.5 7
q5 9 130 88q2 2 5 2q1 0 4 -3q7 -10 51 -86q1 -4 1 -5z" />
    <glyph glyph-name="atilde" unicode="&#xe3;" 
d="M575 211q-43 -52 -135 -121q-132 -98 -183 -91q-54 7 -54 62q0 13 4 27q-80 -92 -139 -89q-62 3 -62 76q0 68 64 149t152 134q81 47 137 47q24 0 38 -11t11 -34q23 23 28 27t14 5q10 2 16 0q6 -1 3 -6l-112 -165q-71 -110 -77 -157q-5 -30 17 -30q38 0 140 83
q91 73 122 112q4 5 11 5q12 0 12 -10q0 -6 -7 -13zM373 318q12 15 12 35q0 30 -29 30q-31 0 -79 -31q-52 -33 -100 -88q-108 -122 -108 -202q0 -34 23 -34q26 0 82 54q47 45 85 96q48 64 114 140zM515 510q-1 -20 -20.5 -34.5t-42.5 -14.5t-61.5 17t-60.5 17
q-14 0 -29.5 -13.5t-16.5 -13.5q-4 0 -4 5q2 20 24 38t46 18q22 0 65 -20.5t56 -20.5q16 0 26 13.5t11 13.5q7 0 7 -5z" />
    <glyph glyph-name="adieresis" unicode="&#xe4;" 
d="M575 211q-43 -52 -135 -121q-132 -98 -183 -91q-54 7 -54 62q0 13 4 27q-80 -92 -139 -89q-62 3 -62 76q0 68 64 149t152 134q81 47 137 47q24 0 38 -11t11 -34q23 23 28 27t14 5q10 2 16 0q6 -1 3 -6l-112 -165q-71 -110 -77 -157q-5 -30 17 -30q38 0 140 83
q91 73 122 112q4 5 11 5q12 0 12 -10q0 -6 -7 -13zM373 318q12 15 12 35q0 30 -29 30q-31 0 -79 -31q-52 -33 -100 -88q-108 -122 -108 -202q0 -34 23 -34q26 0 82 54q47 45 85 96q48 64 114 140zM494 482q-2 -27 -29 -27t-26 27q2 27 30 27q27 0 25 -27zM390 482
q-2 -27 -29 -27t-26 27q2 27 30 27q27 0 25 -27z" />
    <glyph glyph-name="aring" unicode="&#xe5;" 
d="M575 211q-43 -52 -135 -121q-132 -98 -183 -91q-54 7 -54 62q0 13 4 27q-80 -92 -139 -89q-62 3 -62 76q0 68 64 149t152 134q81 47 137 47q24 0 38 -11t11 -34q23 23 28 27t14 5q10 2 16 0q6 -1 3 -6l-112 -165q-71 -110 -77 -157q-5 -30 17 -30q38 0 140 83
q91 73 122 112q4 5 11 5q12 0 12 -10q0 -6 -7 -13zM373 318q12 15 12 35q0 30 -29 30q-31 0 -79 -31q-52 -33 -100 -88q-108 -122 -108 -202q0 -34 23 -34q26 0 82 54q47 45 85 96q48 64 114 140zM487 522q-2 -31 -25 -54t-53 -23q-31 0 -51.5 22.5t-18.5 54.5
q2 30 25.5 51.5t54.5 21.5t50.5 -21t17.5 -52zM465 521q1 22 -12.5 36.5t-34.5 14.5q-22 0 -38.5 -15t-18.5 -36q-1 -21 13.5 -36.5t35.5 -15.5q22 0 37.5 15.5t17.5 36.5z" />
    <glyph glyph-name="ae" unicode="&#xe6;" horiz-adv-x="653" 
d="M748 233q10 -8 -5 -26q-48 -57 -153 -131q-123 -88 -218 -88q-38 0 -65 16q-52 31 -52 98q0 20 5 42q-47 -56 -97 -96q-64 -51 -103 -49q-62 3 -62 76q0 68 64 149t153 134q80 47 137 47q23 0 37 -11t11 -34q23 23 28 27t14 5q10 2 16 0q7 -1 3 -6l-11 -16q66 34 112 34
q43 0 43 -29q0 -28 -40 -77q-35 -43 -75 -74q-72 -55 -155 -73q-6 -22 -6 -42q0 -48 33 -69q23 -15 55 -15q66 0 158 65q85 61 147 132q17 19 26 11zM564 383q-27 0 -75 -30q-51 -32 -92 -79q-34 -40 -54 -97q66 18 130 66q39 30 74 69.5t35 57.5q0 13 -18 13zM365 318
q12 15 12 35q0 30 -29 30q-30 0 -78 -31q-53 -33 -101 -88q-108 -122 -108 -202q0 -34 23 -34q26 0 82 54q47 45 85 96q48 64 114 140z" />
    <glyph glyph-name="ccedilla" unicode="&#xe7;" horiz-adv-x="395" 
d="M489 233q10 -7 -1 -21q-43 -56 -158 -139q-59 -41 -96 -58q-56 -26 -111 -21l-24 -40q34 -11 32 -41q-3 -37 -46 -55q-33 -13 -76 -13q-13 0 -12 7q0 6 13 6q28 0 57.5 16.5t31.5 42.5q2 19 -26 33l29 47q-84 17 -84 98q0 57 47.5 129.5t125.5 123.5q73 49 126 49t53 -49
q0 -35 -31 -80q-3 -5 -11 -5q-9 1 -22 9t-15 13q-3 7 5.5 12t21.5 22q15 21 15 35q0 20 -25 20q-31 0 -72 -32q-48 -35 -90 -99q-50 -76 -50 -140q0 -80 65 -80q66 0 164 74q94 72 143 130q11 13 21 6z" />
    <glyph glyph-name="egrave" unicode="&#xe8;" horiz-adv-x="408" 
d="M503 233q10 -8 -5 -26q-48 -57 -153 -131q-126 -89 -227 -89q-38 0 -64 16q-41 26 -41 80q0 89 95 187q58 59 129 97t119 38q45 0 45 -27t-46 -78q-41 -44 -86 -76q-77 -55 -163 -73q-10 -31 -10 -55q0 -38 25 -56q22 -15 52 -15q66 0 157 65q88 63 148 132q17 18 25 11z
M360 383q-27 0 -78 -30q-54 -32 -100 -79q-39 -40 -65 -97q68 18 137 66q44 31 83.5 71t39.5 58q0 11 -17 11zM351 442q0 -6 -5 -6q-87 51 -118 72q-14 9 -13 26q2 24 24 24q11 0 21 -7q35 -50 62 -79q8 -8 17 -15q12 -12 12 -15z" />
    <glyph glyph-name="eacute" unicode="&#xe9;" horiz-adv-x="408" 
d="M503 233q10 -8 -5 -26q-48 -57 -153 -131q-126 -89 -227 -89q-38 0 -64 16q-41 26 -41 80q0 89 95 187q58 59 129 97t119 38q45 0 45 -27t-46 -78q-41 -44 -86 -76q-77 -55 -163 -73q-10 -31 -10 -55q0 -38 25 -56q22 -15 52 -15q66 0 157 65q88 63 148 132q17 18 25 11z
M360 383q-27 0 -78 -30q-54 -32 -100 -79q-39 -40 -65 -97q68 18 137 66q44 31 83.5 71t39.5 58q0 11 -17 11zM479 530q-1 -16 -16 -24q-32 -14 -93 -43q-12 -8 -36 -19q-1 0 -2 -1h-2q-5 0 -4 6q0 1 3 4q41 38 109 94q8 6 20 6q23 0 21 -23z" />
    <glyph glyph-name="ecircumflex" unicode="&#xea;" horiz-adv-x="408" 
d="M503 233q10 -8 -5 -26q-48 -57 -153 -131q-126 -89 -227 -89q-38 0 -64 16q-41 26 -41 80q0 89 95 187q58 59 129 97t119 38q45 0 45 -27t-46 -78q-41 -44 -86 -76q-77 -55 -163 -73q-10 -31 -10 -55q0 -38 25 -56q22 -15 52 -15q66 0 157 65q88 63 148 132q17 18 25 11z
M360 383q-27 0 -78 -30q-54 -32 -100 -79q-39 -40 -65 -97q68 18 137 66q44 31 83.5 71t39.5 58q0 11 -17 11zM445 444q-2 -3 -5 -3h-29l-5 2l-38 64l-106 -71q-4 0 -7 4.5t-2 7.5q5 8 130 88q2 2 5 2q1 0 4 -3q8 -11 51 -86q2 -4 2 -5z" />
    <glyph glyph-name="edieresis" unicode="&#xeb;" horiz-adv-x="408" 
d="M503 233q10 -8 -5 -26q-48 -57 -153 -131q-126 -89 -227 -89q-38 0 -64 16q-41 26 -41 80q0 89 95 187q58 59 129 97t119 38q45 0 45 -27t-46 -78q-41 -44 -86 -76q-77 -55 -163 -73q-10 -31 -10 -55q0 -38 25 -56q22 -15 52 -15q66 0 157 65q88 63 148 132q17 18 25 11z
M360 383q-27 0 -78 -30q-54 -32 -100 -79q-39 -40 -65 -97q68 18 137 66q44 31 83.5 71t39.5 58q0 11 -17 11zM446 478q-2 -27 -29 -27q-28 0 -26 27q2 28 30 28q27 0 25 -28zM342 478q-2 -27 -29 -27q-28 0 -26 27q2 28 30 28q27 0 25 -28z" />
    <glyph glyph-name="igrave" unicode="&#xec;" horiz-adv-x="263" 
d="M355 211q-43 -52 -135 -121q-132 -98 -183 -91q-54 7 -54 65q0 9 2 18q9 49 94 153q121 148 134 155q8 5 19 5q13 1 13 -7q0 -9 -37 -63q-59 -84 -71 -104q-71 -110 -77 -157q-5 -30 17 -30q38 0 140 83q91 73 122 112q4 5 11 5q12 0 12 -10q0 -6 -7 -13zM252 447
q-1 -6 -6 -6q-87 52 -118 72q-13 9 -12 26q2 24 24 24q10 0 20 -7q35 -49 63 -79q8 -7 16 -15q13 -11 13 -15z" />
    <glyph glyph-name="iacute" unicode="&#xed;" horiz-adv-x="263" 
d="M355 211q-43 -52 -135 -121q-132 -98 -183 -91q-54 7 -54 65q0 9 2 18q9 49 94 153q121 148 134 155q8 5 19 5q13 1 13 -7q0 -9 -37 -63q-59 -84 -71 -104q-71 -110 -77 -157q-5 -30 17 -30q38 0 140 83q91 73 122 112q4 5 11 5q12 0 12 -10q0 -6 -7 -13zM398 535
q-1 -15 -16 -24q-32 -14 -93 -43q-12 -7 -36 -19h-2q-1 -1 -2 -1q-5 0 -4 6q0 1 3 4q41 38 109 94q8 6 20 6q23 0 21 -23z" />
    <glyph glyph-name="icircumflex" unicode="&#xee;" horiz-adv-x="263" 
d="M355 211q-43 -52 -135 -121q-132 -98 -183 -91q-54 7 -54 65q0 9 2 18q9 49 94 153q121 148 134 155q8 5 19 5q13 1 13 -7q0 -9 -37 -63q-59 -84 -71 -104q-71 -110 -77 -157q-5 -30 17 -30q38 0 140 83q91 73 122 112q4 5 11 5q12 0 12 -10q0 -6 -7 -13zM345 450
q-2 -3 -5 -3h-29l-4 2q-19 29 -39 64l-106 -71q-4 0 -7 4.5t-2 7.5q5 8 130 88q2 2 5 2q1 0 4 -3q8 -11 51 -86q2 -4 2 -5z" />
    <glyph glyph-name="idieresis" unicode="&#xef;" horiz-adv-x="263" 
d="M355 211q-43 -52 -135 -121q-132 -98 -183 -91q-54 7 -54 65q0 9 2 18q9 49 94 153q121 148 134 155q8 5 19 5q13 1 13 -7q0 -9 -37 -63q-59 -84 -71 -104q-71 -110 -77 -157q-5 -30 17 -30q38 0 140 83q91 73 122 112q4 5 11 5q12 0 12 -10q0 -6 -7 -13zM338 483
q-2 -27 -29 -27q-28 0 -26 27q2 28 29 28q28 0 26 -28zM234 483q-2 -27 -29 -27q-28 0 -26 27q2 28 29 28q28 0 26 -28z" />
    <glyph glyph-name="eth" unicode="&#xf0;" horiz-adv-x="482" 
d="M755 784q0 -58 -88 -188h43q20 0 20 -20q0 -21 -20 -21h-72q-8 -11 -17 -22q-82 -108 -276 -314q-65 -117 -65 -161q0 -24 17 -24q39 0 139 82q83 68 123 112q5 5 11 5q10 0 10 -11q0 -6 -5 -12q-51 -55 -132 -117q-123 -94 -180 -94q-24 0 -39 13q-27 24 -19 66
q-90 -80 -135 -80q-21 0 -40 15q-25 19 -25 62q0 72 82 169q67 79 152 124q72 37 123 37q19 0 28 -6l98 156h-95q-20 0 -20 21q0 20 20 20h121l8 13q132 212 196 212q37 0 37 -37zM715 786q-32 0 -145 -190h67q89 130 89 175q0 15 -11 15zM608 555h-62l-98 -167l-45 -72
q141 154 205 239zM376 376q-10 7 -22 7q-37 0 -99.5 -47.5t-111.5 -110.5q-75 -97 -75 -162q0 -36 24 -36q31 0 132 105l68 110z" />
    <glyph glyph-name="ntilde" unicode="&#xf1;" horiz-adv-x="434" 
d="M526 212q-40 -49 -121 -111q-132 -101 -183 -101q-29 0 -51 16t-24 45q-5 60 83 134q141 117 141 159q0 20 -26 20q-30 0 -90 -40q-99 -66 -149 -133q-71 -101 -150 -203q-9 -2 -23.5 3t-13.5 11q2 16 141 203q122 166 134 176q5 4 25 4q20 1 21 -4q1 -6 -42 -65
q90 71 152 71q57 0 57 -49q0 -47 -48 -102q-123 -140 -131 -192q-1 -9 5 -14.5t20 -3.5q38 5 125 73q72 57 128 116q8 10 17 10q7 0 9 -7q2 -8 -6 -16zM471 507q-2 -19 -21.5 -34t-42.5 -15q-22 1 -60.5 17.5t-60.5 16.5q-14 0 -29.5 -13.5t-16.5 -13.5q-4 0 -4 5
q2 20 23.5 38.5t46.5 17.5q22 0 65 -20.5t55 -20.5q17 0 27 13.5t11 13.5q7 0 7 -5z" />
    <glyph glyph-name="ograve" unicode="&#xf2;" horiz-adv-x="464" 
d="M558 215q-80 -96 -145 -113q-28 -8 -52 -8q-35 0 -60 16q-57 -56 -120.5 -90.5t-112.5 -34.5q-74 0 -74 72q0 59 53 137q59 86 148 147.5t156 61.5q74 0 74 -72q0 -59 -53 -137q-22 -32 -49 -62q22 -13 43 -13q19 0 44 8q58 18 127 100q7 7 14 7q11 0 11 -10q0 -5 -4 -9z
M355 224q37 63 37 106q0 46 -41 46q-45 0 -111 -51t-115 -123q-52 -77 -52 -129q0 -46 42 -46q67 0 162 98q-27 22 -27 49q0 24 20 40q24 18 54 18q20 0 31 -8zM397 463q0 -6 -5 -6q-87 51 -118 72q-13 8 -12 26q1 24 23 24q11 0 21 -7q35 -50 62 -79l17 -15q13 -12 12 -15z
" />
    <glyph glyph-name="oacute" unicode="&#xf3;" horiz-adv-x="464" 
d="M558 215q-80 -96 -145 -113q-28 -8 -52 -8q-35 0 -60 16q-57 -56 -120.5 -90.5t-112.5 -34.5q-74 0 -74 72q0 59 53 137q59 86 148 147.5t156 61.5q74 0 74 -72q0 -59 -53 -137q-22 -32 -49 -62q22 -13 43 -13q19 0 44 8q58 18 127 100q7 7 14 7q11 0 11 -10q0 -5 -4 -9z
M355 224q37 63 37 106q0 46 -41 46q-45 0 -111 -51t-115 -123q-52 -77 -52 -129q0 -46 42 -46q67 0 162 98q-27 22 -27 49q0 24 20 40q24 18 54 18q20 0 31 -8zM525 535q-1 -15 -17 -24l-93 -43q-12 -7 -35 -19h-2t-2 -1q-5 0 -5 6l4 4q41 38 108 94q9 6 21 6q23 0 21 -23z
" />
    <glyph glyph-name="ocircumflex" unicode="&#xf4;" horiz-adv-x="463" 
d="M558 215q-80 -96 -145 -113q-28 -8 -52 -8q-35 0 -60 16q-57 -56 -120.5 -90.5t-112.5 -34.5q-74 0 -74 72q0 59 53 137q59 86 148 147.5t156 61.5q74 0 74 -72q0 -59 -53 -137q-22 -32 -49 -62q22 -13 43 -13q19 0 44 8q58 18 127 100q7 7 14 7q11 0 11 -10q0 -5 -4 -9z
M355 224q37 63 37 106q0 46 -41 46q-45 0 -111 -51t-115 -123q-52 -77 -52 -129q0 -46 42 -46q67 0 162 98q-27 22 -27 49q0 24 20 40q24 18 54 18q20 0 31 -8zM478 455q-2 -3 -4 -3h-29l-5 2l-39 64l-106 -71q-3 0 -6.5 5t-1.5 7q4 9 129 88q2 2 5 2q1 0 4 -3q8 -10 51 -86
q2 -4 2 -5z" />
    <glyph glyph-name="otilde" unicode="&#xf5;" horiz-adv-x="464" 
d="M558 215q-80 -96 -145 -113q-28 -8 -52 -8q-35 0 -60 16q-57 -56 -120.5 -90.5t-112.5 -34.5q-74 0 -74 72q0 59 53 137q59 86 148 147.5t156 61.5q74 0 74 -72q0 -59 -53 -137q-22 -32 -49 -62q22 -13 43 -13q19 0 44 8q58 18 127 100q7 7 14 7q11 0 11 -10q0 -5 -4 -9z
M355 224q37 63 37 106q0 46 -41 46q-45 0 -111 -51t-115 -123q-52 -77 -52 -129q0 -46 42 -46q67 0 162 98q-27 22 -27 49q0 24 20 40q24 18 54 18q20 0 31 -8zM517 510q-1 -20 -20.5 -34.5t-42.5 -14.5t-61.5 17t-60.5 17q-14 0 -29.5 -13.5t-16.5 -13.5q-4 0 -4 5
q2 20 24 38t46 18q22 0 65 -20.5t56 -20.5q16 0 26 13.5t11 13.5q7 0 7 -5z" />
    <glyph glyph-name="odieresis" unicode="&#xf6;" horiz-adv-x="464" 
d="M558 215q-80 -96 -145 -113q-28 -8 -52 -8q-35 0 -60 16q-57 -56 -120.5 -90.5t-112.5 -34.5q-74 0 -74 72q0 59 53 137q59 86 148 147.5t156 61.5q74 0 74 -72q0 -59 -53 -137q-22 -32 -49 -62q22 -13 43 -13q19 0 44 8q58 18 127 100q7 7 14 7q11 0 11 -10q0 -5 -4 -9z
M355 224q37 63 37 106q0 46 -41 46q-45 0 -111 -51t-115 -123q-52 -77 -52 -129q0 -46 42 -46q67 0 162 98q-27 22 -27 49q0 24 20 40q24 18 54 18q20 0 31 -8zM465 490q-2 -27 -29 -27q-28 0 -26 27t29 27q28 0 26 -27zM361 490q-2 -27 -29 -27q-28 0 -26 27t29 27
q28 0 26 -27z" />
    <glyph glyph-name="oslash" unicode="&#xf8;" horiz-adv-x="464" 
d="M558 215q-80 -96 -145 -113q-28 -8 -52 -8q-35 0 -60 16q-57 -56 -120.5 -90.5t-112.5 -34.5q-47 0 -65 33l-48 -39l3 38l37 29q-6 62 52.5 148t147.5 147.5t156 61.5q41 0 60 -26l69 55l-2 -38l-55 -43q2 -9 2 -20q0 -59 -53 -137q-22 -32 -49 -62q22 -13 43 -13
q19 0 44 8q58 18 127 100q7 7 14 7q11 0 11 -10q0 -5 -4 -9zM386 357q-10 19 -35 19q-45 0 -111 -51t-115 -123q-31 -47 -44 -88zM392 326l-319 -253q0 -46 42 -46q67 0 162 98q-27 22 -27 49q0 24 20 40q24 18 54 18q20 0 31 -8q35 60 37 102z" />
    <glyph glyph-name="ugrave" unicode="&#xf9;" horiz-adv-x="463" 
d="M555 211q-43 -52 -135 -121q-132 -98 -183 -91q-53 7 -54 64q-33 -28 -72 -46q-46 -22 -74 -18q-54 7 -54 65q0 9 2 18q9 49 94 153q121 148 134 155q8 5 19 5q13 1 13 -7q0 -9 -37 -63q-59 -85 -71 -104q-46 -72 -55 -88q-20 -38 -23 -67q-4 -33 18 -33q8 0 18 5
q80 34 197 188l121 164q8 5 19 5q13 1 13 -7q0 -9 -37 -63q-59 -84 -71 -104q-71 -110 -77 -157q-5 -30 17 -30q38 0 140 83q91 73 122 112q4 5 11 5q12 0 12 -10q0 -6 -7 -13zM359 435q-1 -6 -6 -6q-86 51 -117 72q-14 9 -13 26q2 24 24 24q11 0 21 -7q35 -49 62 -79
l17 -15q12 -11 12 -15z" />
    <glyph glyph-name="uacute" unicode="&#xfa;" horiz-adv-x="463" 
d="M555 211q-43 -52 -135 -121q-132 -98 -183 -91q-53 7 -54 64q-33 -28 -72 -46q-46 -22 -74 -18q-54 7 -54 65q0 9 2 18q9 49 94 153q121 148 134 155q8 5 19 5q13 1 13 -7q0 -9 -37 -63q-59 -85 -71 -104q-46 -72 -55 -88q-20 -38 -23 -67q-4 -33 18 -33q8 0 18 5
q80 34 197 188l121 164q8 5 19 5q13 1 13 -7q0 -9 -37 -63q-59 -84 -71 -104q-71 -110 -77 -157q-5 -30 17 -30q38 0 140 83q91 73 122 112q4 5 11 5q12 0 12 -10q0 -6 -7 -13zM475 532q-1 -15 -16 -24q-32 -14 -93 -43q-12 -7 -36 -19h-2q-1 -1 -2 -1q-5 0 -4 6q0 1 3 4
q41 38 109 94q8 6 20 6q23 0 21 -23z" />
    <glyph glyph-name="ucircumflex" unicode="&#xfb;" horiz-adv-x="463" 
d="M555 211q-43 -52 -135 -121q-132 -98 -183 -91q-53 7 -54 64q-33 -28 -72 -46q-46 -22 -74 -18q-54 7 -54 65q0 9 2 18q9 49 94 153q121 148 134 155q8 5 19 5q13 1 13 -7q0 -9 -37 -63q-59 -85 -71 -104q-46 -72 -55 -88q-20 -38 -23 -67q-4 -33 18 -33q8 0 18 5
q80 34 197 188l121 164q8 5 19 5q13 1 13 -7q0 -9 -37 -63q-59 -84 -71 -104q-71 -110 -77 -157q-5 -30 17 -30q38 0 140 83q91 73 122 112q4 5 11 5q12 0 12 -10q0 -6 -7 -13zM449 462q-1 -3 -4 -3h-29l-5 2q-19 29 -38 64l-106 -71q-4 0 -7 4.5t-2 7.5q5 8 130 88q2 2 5 2
q1 0 4 -3q7 -11 51 -86q1 -4 1 -5z" />
    <glyph glyph-name="udieresis" unicode="&#xfc;" horiz-adv-x="463" 
d="M555 211q-43 -52 -135 -121q-132 -98 -183 -91q-53 7 -54 64q-33 -28 -72 -46q-46 -22 -74 -18q-54 7 -54 65q0 9 2 18q9 49 94 153q121 148 134 155q8 5 19 5q13 1 13 -7q0 -9 -37 -63q-59 -85 -71 -104q-46 -72 -55 -88q-20 -38 -23 -67q-4 -33 18 -33q8 0 18 5
q80 34 197 188l121 164q8 5 19 5q13 1 13 -7q0 -9 -37 -63q-59 -84 -71 -104q-71 -110 -77 -157q-5 -30 17 -30q38 0 140 83q91 73 122 112q4 5 11 5q12 0 12 -10q0 -6 -7 -13zM436 483q-2 -27 -29 -27q-28 0 -26 27q2 28 29 28q28 0 26 -28zM332 483q-2 -27 -29 -27
q-28 0 -26 27q2 28 29 28q28 0 26 -28z" />
    <glyph glyph-name="yacute" unicode="&#xfd;" horiz-adv-x="457" 
d="M554 218q-30 -44 -153 -138q-78 -60 -187 -99q-74 -116 -134 -194t-129 -120q-58 -35 -102 -35q-45 0 -45 42q0 34 28.5 81.5t78.5 92.5q94 82 256 141l53 109q-24 -24 -37 -35q-33 -28 -73 -46q-45 -22 -73 -18q-54 7 -54 63q0 10 2 20q9 49 94 153q121 148 134 155
q8 5 19 5q13 1 13 -7q0 -9 -37 -63q-59 -84 -71 -104q-71 -110 -77 -157q-5 -30 17 -30q7 0 18 4q84 30 194 179q99 134 149 171q4 3 13 4q10 2 16 0q6 -1 3 -6q-14 -20 -234 -370q102 43 155 84q94 72 144 132q6 6 17 0q9 -5 2 -14zM152 -41q-127 -49 -207 -118
q-39 -35 -66 -77.5t-27 -70.5q0 -29 25 -29q29 0 77 34q53 39 97.5 97t100.5 164zM485 530q-1 -16 -16 -24q-32 -14 -93 -43q-12 -8 -36 -19q-1 0 -2 -1h-2q-5 0 -4 6q0 1 3 4q41 38 109 94q8 6 20 6q23 0 21 -23z" />
    <glyph glyph-name="ydieresis" unicode="&#xff;" horiz-adv-x="457" 
d="M554 218q-30 -44 -153 -138q-78 -60 -187 -99q-74 -116 -134 -194t-129 -120q-58 -35 -102 -35q-45 0 -45 42q0 34 28.5 81.5t78.5 92.5q94 82 256 141l53 109q-24 -24 -37 -35q-33 -28 -73 -46q-45 -22 -73 -18q-54 7 -54 63q0 10 2 20q9 49 94 153q121 148 134 155
q8 5 19 5q13 1 13 -7q0 -9 -37 -63q-59 -84 -71 -104q-71 -110 -77 -157q-5 -30 17 -30q7 0 18 4q84 30 194 179q99 134 149 171q4 3 13 4q10 2 16 0q6 -1 3 -6q-14 -20 -234 -370q102 43 155 84q94 72 144 132q6 6 17 0q9 -5 2 -14zM152 -41q-127 -49 -207 -118
q-39 -35 -66 -77.5t-27 -70.5q0 -29 25 -29q29 0 77 34q53 39 97.5 97t100.5 164zM441 482q-2 -28 -29 -28t-25 28q2 27 29 27t25 -27zM337 482q-2 -28 -29 -28t-25 28q2 27 29 27t25 -27z" />
    <glyph glyph-name="dotlessi" unicode="&#x131;" horiz-adv-x="263" 
d="M355 211q-43 -52 -135 -121q-132 -98 -183 -91q-54 7 -54 65q0 9 2 18q9 49 94 153q121 148 134 155q8 5 19 5q13 1 13 -7q0 -9 -37 -63q-59 -84 -71 -104q-71 -110 -77 -157q-5 -30 17 -30q38 0 140 83q91 73 122 112q4 5 11 5q12 0 12 -10q0 -6 -7 -13z" />
    <glyph glyph-name="Lslash" unicode="&#x141;" horiz-adv-x="1169" 
d="M1253 787q0 -42 -53 -113q-48 -65 -100 -101q-93 -66 -196 -81l-46 -77l178 67v-34l-205 -78q-69 -109 -150 -187q153 -141 306 -145q82 -2 121 28q15 11 24 9q12 -2 0 -16q-66 -81 -184 -77q-129 4 -291 179q-182 -163 -372 -172q-118 -5 -193 49t-75 135q0 15 3 31
q18 94 106 149q78 49 180 49q37 0 71 -7q81 -17 157 -74q36 -27 106 -97q55 48 105 113l-120 -45v34l154 58l69 103q-21 -1 -44 -1q-21 0 -21 12q0 16 24 15q30 -1 59 0q112 162 195 238.5t147 76.5q45 0 45 -41zM1186 798q-45 0 -104 -60q-83 -82 -163 -219q90 16 156 61
q63 43 104 103q37 54 37 89q0 26 -30 26zM617 205q-139 151 -260 169q-26 4 -52 4q-90 0 -166 -47q-87 -55 -87 -141q0 -54 55 -90.5t143 -36.5q18 0 36 2q177 16 331 140z" />
    <glyph glyph-name="lslash" unicode="&#x142;" horiz-adv-x="325" 
d="M619 700l-2 -38l-111 -60q-50 -67 -122 -148q-157 -176 -266 -245q-36 -80 -36 -124q0 -53 44 -53q46 0 150 81q64 51 118 109q10 12 21 12q9 0 9 -9q0 -29 -152 -143q-123 -93 -195 -93q-16 0 -29 5q-40 15 -40 65q0 110 183 371l-110 -60l2 39l151 82q227 312 327 312
q37 0 37 -31q0 -36 -49 -110zM544 760q-34 7 -109 -69q-63 -64 -134 -164l204 111q53 74 53 104q0 15 -14 18zM457 575l-196 -107q-61 -94 -124 -217q113 89 233 222q49 54 87 102z" />
    <glyph glyph-name="OE" unicode="&#x152;" horiz-adv-x="1234" 
d="M1416 694h-21q-7 -45 -42.5 -81t-80.5 -36q-41 0 -41 36q0 22 23 45t51.5 35.5t66.5 15.5q-1 21 -13 37q-23 30 -89 30q-111 0 -227 -67q-61 -35 -96 -85.5t-35 -99.5q0 -39 21 -65q89 28 154 28q73 0 77 -40q6 -47 -75 -60q-19 -3 -42 -3q-89 0 -150 37
q-90 -38 -165 -122q-80 -88 -80 -161q0 -25 10 -45q44 -87 175 -87q105 0 225 48q143 59 215 143q16 19 30 16q14 -2 -22 -39t-93 -77q-66 -45 -124 -68q-143 -57 -282 -57q-171 0 -218 107q-9 20 -12 40q-172 -161 -328 -161q-71 0 -123 39q-75 56 -75 177q0 166 122 332
q163 220 327 275q16 5 22 0q10 -7 -16 -16q-43 -14 -114 -70q-104 -80 -175 -189q-89 -137 -89 -284q0 -144 86 -191q39 -21 87 -21q132 0 276 144q10 94 140 185q79 141 79 275q0 68 -21 113.5t-57 55.5q-19 6 -39 6q-101 0 -208 -158q-57 -86 -57 -159q0 -44 23 -57
q14 -7 30 -7q66 0 124 90q15 24 24 19q12 -6 0 -29q-20 -37 -66 -71q-53 -39 -99 -39q-26 0 -48 13q-45 28 -45 101q0 66 38 123q54 82 131 138q83 60 157 60q24 0 46 -7q42 -14 66.5 -66t24.5 -127q0 -120 -59 -246q61 37 135 69q-58 46 -52 105q12 105 197 196
q116 58 244 58q96 0 122 -43q11 -18 11 -42q29 0 29 -10q0 -7 -10 -6zM1370 691q-44 -7 -72 -25q-40 -27 -40 -48q0 -17 19 -17q33 0 64 33q22 23 29 57zM1136 447q-3 21 -48 21q-52 0 -137 -28q45 -34 123 -33q32 1 48.5 12.5t13.5 27.5z" />
    <glyph glyph-name="oe" unicode="&#x153;" horiz-adv-x="708" 
d="M803 233q9 -8 -5 -26q-48 -57 -153 -131q-124 -88 -218 -88q-38 0 -66 16q-51 31 -51 98q0 12 1 25l-14 -16q-57 -56 -121 -91t-113 -35q-74 0 -74 72q0 59 53 137q59 86 148 147.5t156 61.5q74 0 74 -72q0 -10 -2 -20q46 40 102.5 66.5t96.5 26.5q43 0 43 -29
q0 -28 -40 -77q-35 -43 -75 -74q-72 -55 -155 -73q-6 -22 -6 -42q0 -48 33 -69q23 -15 54 -15q67 0 158 65q85 61 148 132q17 19 26 11zM619 383q-27 0 -75 -30q-51 -32 -92 -79q-35 -40 -55 -97q67 18 130 66q40 30 74.5 69.5t34.5 57.5q0 13 -17 13zM346 376
q-45 0 -111 -51t-115 -123q-52 -77 -52 -129q0 -46 42 -46q49 0 130 72q66 59 99 110q49 74 49 126q0 41 -42 41z" />
    <glyph glyph-name="Scaron" unicode="&#x160;" horiz-adv-x="848" 
d="M1043 762q0 -18 -19 -34t-38 -21q-21 -5 -27 9q-4 10 13 13q36 6 36 31q0 4 -2 9q-8 21 -78 21q-50 0 -99 -16q-146 -47 -146 -157q0 -47 41 -108l75 -101q38 -59 33 -107q-11 -105 -107 -190q-89 -79 -223 -115q-77 -21 -157 -21q-109 0 -191 36q-85 38 -111 102
q-11 27 -11 53q0 116 177 181q110 41 273 41q103 0 168 -12q33 -6 27 -17q-6 -12 -34 -8q-26 4 -62 4q-165 0 -321 -64q-161 -65 -161 -157q0 -14 5 -28q17 -48 86 -75.5t160 -27.5q77 0 147 20q136 39 215 116q75 74 75 157q0 34 -37 89l-70 102q-38 63 -38 115q0 26 9 51
q29 85 120 127q64 30 148 34q37 2 73 -8q51 -13 51 -44zM1067 949q-4 -7 -65.5 -45.5t-66.5 -38.5q-5 4 -30.5 48t-25.5 46q2 3 4 3h29l5 -2q27 -42 38 -64l106 71q3 0 6 -7q2 -8 0 -11z" />
    <glyph glyph-name="scaron" unicode="&#x161;" horiz-adv-x="319" 
d="M413 210q-63 -65 -149 -130q-136 -103 -225 -83q-75 17 -75 96q0 30 16 59q19 33 47 29q21 19 59 57q34 30 82 82q6 10 13.5 38t20.5 48q18 27 39 27q22 0 22 -25q0 -24 -15.5 -46t-44.5 -48q-3 -11 8 -64q13 -62 13 -97q0 -54 -30 -95q39 24 82 59q78 63 120 110
q6 7 12 7q11 0 11 -11q0 -7 -6 -13zM173 257q0 10 -3 26l-68 -65q-15 -15 -56 -53q3 -7 3 -14q0 -21 -14 -31q-1 0 -23 -10q-11 -6 -17 -19q-2 -6 -2 -14q0 -42 43 -50q20 -4 47.5 15t51.5 58q38 64 38 157zM374 560q-4 -7 -65.5 -45.5t-66.5 -38.5q-5 3 -30.5 47.5
t-25.5 46.5q2 3 4 3h29l5 -2q27 -42 39 -64l106 71q2 0 5 -8q2 -8 0 -10z" />
    <glyph glyph-name="Ydieresis" unicode="&#x178;" horiz-adv-x="1052" 
d="M1049 413q0 -90 -73 -233q-87 -173 -234 -311q-111 -104 -247 -182q-147 -84 -235 -84q-53 0 -76 32q-8 12 -8 28q0 40 57 90.5t152 90.5q123 52 254 52q46 0 86 -6q126 116 216 279q80 147 80 226q0 39 -22 39q-25 0 -97 -75q-117 -122 -132 -136q-102 -92 -200 -154
q-125 -80 -199 -80q-23 0 -41 8q-45 21 -45 75q0 68 62 138q45 51 161 144q104 83 146 142q68 93 68 175q0 57 -36.5 91t-107.5 34q-115 0 -258 -83q-103 -59 -182 -159q-80 -103 -80 -181q0 -29 12 -50q27 -49 101 -49q55 0 123 26q60 23 98 52q104 79 139 193q5 18 17 19
q6 1 9.5 -4.5t0.5 -14.5q-15 -53 -34 -85q-39 -64 -118 -125q-42 -32 -104 -56q-71 -26 -131 -26q-92 0 -130 63q-30 49 -30 109q0 74 44 148q48 79 137 142q157 112 337 112q120 0 173 -49q47 -42 47 -118q0 -95 -64 -185q-39 -54 -106 -121q-84 -84 -115 -120
q-94 -111 -94 -172q0 -40 36 -40q51 0 180 90q103 72 169 136l204 198q23 21 46 21q44 0 44 -54zM704 -129q-33 4 -67 4q-116 0 -213 -39q-83 -34 -135 -81t-52 -84q0 -36 42 -36q64 0 178 59q129 68 247 177zM995 815q-2 -27 -29 -27t-25 27t29 27t25 -27zM891 815
q-2 -27 -29 -27t-25 27t29 27t25 -27z" />
    <glyph glyph-name="Zcaron" unicode="&#x17d;" horiz-adv-x="660" 
d="M772 697q0 -68 -53 -151q-60 -95 -172 -178q36 -17 50 -47q12 -24 12 -55q0 -85 -80 -213q-65 -102 -146 -184q40 -18 56 -34q11 -11 1 -20q-13 -12 -26.5 3t-52.5 29q-146 -144 -333 -204q-55 -17 -125 -17q-141 0 -135 77q6 87 165 149q132 52 246 52q90 0 166 -22
q61 67 109 152q59 105 59 177q0 64 -53 101q-156 -89 -267 -89q-41 0 -49 17q-6 11 -6 22q0 59 125 103q71 25 163 25q53 0 91 -11q98 71 161 161t63 155q0 95 -153 95q-63 0 -129 -17q-128 -33 -217 -104q-85 -68 -85 -132q0 -17 8 -33q22 -42 91 -42q48 0 108 20
q55 19 95 46q26 18 31 9q7 -12 -16 -26q-45 -30 -108 -51q-71 -24 -129 -24q-84 0 -118 52q-20 30 -20 66q0 75 81.5 147.5t199.5 101.5q93 24 174 24q84 0 140 -24q78 -33 78 -106zM431 327q-35 14 -83 14q-34 0 -67 -7q-46 -9 -77.5 -29.5t-25.5 -37.5q4 -11 28 -11
q83 0 225 71zM327 -139q-69 19 -147 19q-69 0 -137 -16q-89 -21 -151 -62.5t-68 -79.5q-5 -31 28 -48q29 -15 80 -15q47 0 94 13q161 44 301 189zM708 952q-5 -7 -66.5 -45.5t-65.5 -38.5q-5 3 -31 47.5t-26 46.5q2 3 4 3h29l5 -2q27 -42 39 -64l106 71q3 0 5 -7.5t1 -10.5z
" />
    <glyph glyph-name="zcaron" unicode="&#x17e;" horiz-adv-x="418" 
d="M509 214q-44 -57 -124 -127q-97 -87 -164 -114q-70 -116 -172 -222q-124 -129 -199 -129q-47 0 -46 36q0 69 149 186q99 77 247 146q19 24 19 53q0 11 -7 17q-95 -77 -159 -77q-40 0 -40 29q0 19 23.5 41.5t57.5 35.5q38 14 75 14q29 0 52 -8q48 43 92 127q27 51 27 83
q0 38 -38 42q-36 3 -133 -71q-41 -31 -125 -114q-14 -14 -25 -5q-10 6 4 20q26 27 131 118q128 101 198 101q56 0 56 -48q0 -50 -66 -144q-55 -79 -105 -123q11 -8 11 -33q0 -23 -10 -39q56 29 139 104q70 63 113 115q9 11 19 4q9 -7 0 -18zM196 71q-15 7 -35 7
q-26 0 -57 -11q-47 -18 -40 -43q3 -11 19 -11q42 0 113 58zM178 -48q-88 -47 -184 -130q-48 -41 -86 -88q-41 -49 -41 -68q0 -10 13 -10q39 0 148 109q102 101 150 187zM484 524q-4 -7 -65.5 -45.5t-65.5 -38.5q-5 3 -31 47.5t-26 46.5q2 3 4 3h29l5 -2q27 -42 39 -64
l106 71q3 0 5 -8t0 -10z" />
    <glyph glyph-name="florin" unicode="&#x192;" horiz-adv-x="557" 
d="M337 394q-62 0 -98 59q-30 50 -30 116q0 33 8 59q14 47 48 75q31 26 68 26q18 0 35 -7q58 -24 58 -100q0 -22 -7 -42q-9 -29 -30 -29q-33 0 -27 32q4 20 23 17q14 -2 15 27q2 55 -40 73q-14 6 -29 6q-65 0 -88 -79q-8 -27 -8 -59q0 -55 21 -97q24 -46 66 -55q9 -2 19 -2
q49 0 87 49q34 45 50 117q6 29 6 58q0 83 -47 140t-123 57q-13 0 -27 -2q-37 -5 -99 -46q-36 -25 -125 -93q55 -48 91 -119q39 -76 39 -147q0 -31 -7 -59q-20 -73 -69 -132q-5 -7 -58 -60q-20 -20 -31 -11q-8 5 12 27q68 71 89 103q37 59 37 129q0 145 -126 251
q-197 -151 -307 -181q-60 -16 -130 -16q-117 0 -196 43q-92 50 -96 145q-3 92 104 148q94 50 219 50q29 0 56 -4q196 -25 350 -148q87 72 128 99q68 46 123 54q19 2 38 2q92 0 149.5 -60t57.5 -149q0 -90 -54 -172q-60 -93 -145 -93zM17 693q-144 112 -343 112
q-138 0 -232 -43q-104 -49 -94 -131q8 -60 92 -95q74 -31 172 -31q64 0 112 15q135 42 293 173z" />
    <glyph glyph-name="circumflex" unicode="&#x2c6;" horiz-adv-x="316" 
d="M252 822q-2 -3 -4 -3h-29l-5 2q-19 29 -39 64l-106 -71q-3 0 -6.5 5t-1.5 7q4 9 129 88q2 2 5 2q1 0 4 -3q8 -10 51 -86q2 -4 2 -5z" />
    <glyph glyph-name="caron" unicode="&#x2c7;" horiz-adv-x="294" 
d="M256 896q-4 -7 -65.5 -45t-66.5 -38q-5 3 -30.5 47t-25.5 47q2 3 4 3h29l5 -2l38 -64l106 71q3 0 6 -8q2 -8 0 -11z" />
    <glyph glyph-name="breve" unicode="&#x2d8;" horiz-adv-x="341" 
d="M301 924q-11 -35 -48 -72q-46 -45 -99 -46q-55 -2 -82 40q-20 32 -16 71q2 23 15 23q5 0 8 -6t3 -15q-1 -26 22.5 -49t58.5 -22q37 1 72 25q32 23 43 51q8 19 18 18q9 -1 5 -18z" />
    <glyph glyph-name="dotaccent" unicode="&#x2d9;" horiz-adv-x="289" 
d="M136 830q-36 0 -36 38q0 27 23.5 52t50.5 25q36 0 36 -38q0 -28 -23 -52.5t-51 -24.5z" />
    <glyph glyph-name="ring" unicode="&#x2da;" horiz-adv-x="272" 
d="M218 896q-2 -31 -24.5 -54t-53.5 -23t-51.5 22.5t-18.5 54.5q2 30 26 51.5t54 21.5q31 0 51 -21t17 -52zM196 895q2 22 -12 36.5t-35 14.5t-38 -15t-19 -36q-1 -21 13.5 -37t36.5 -16q21 0 37 16t17 37z" />
    <glyph glyph-name="ogonek" unicode="&#x2db;" horiz-adv-x="295" 
d="M187 0q-14 -5 -36 -26q-24 -25 -28 -44q-1 -6 -1 -13q0 -43 33 -58q5 -2 4 -8q-2 -6 -11 -5q-28 3 -48.5 29.5t-15.5 55.5q8 41 48 69h55z" />
    <glyph glyph-name="tilde" unicode="&#x2dc;" horiz-adv-x="371" 
d="M302 861q-2 -20 -21.5 -35t-42.5 -14q-22 0 -60.5 17t-60.5 17q-14 0 -29.5 -13.5t-16.5 -13.5q-4 0 -4 5q2 20 23.5 38t46.5 18q22 0 65 -20.5t55 -20.5q17 0 27 13.5t11 13.5q7 0 7 -5z" />
    <glyph glyph-name="hungarumlaut" unicode="&#x2dd;" horiz-adv-x="321" 
d="M287 876l-67 -32.5t-65 -30.5q-5 0 -5 6q3 4 54.5 49t57.5 49q10 6 21 6q21 0 21 -21q0 -16 -17 -26zM167 876l-67 -32.5t-65 -30.5q-5 0 -5 6q3 4 54.5 49t57.5 49q10 6 21 6q21 0 21 -21q0 -16 -17 -26z" />
    <glyph glyph-name="afii10023" unicode="&#x401;" horiz-adv-x="696" 
d="M879 694h-20q-8 -45 -43.5 -81t-80.5 -36q-40 0 -40 36q0 22 22.5 45t51.5 35.5t66 15.5q0 21 -13 37q-23 29 -88 29q-113 0 -228 -66q-61 -35 -95.5 -85.5t-34.5 -99.5q0 -39 20 -65q80 25 144 27q83 4 87 -39q5 -47 -75 -60q-19 -3 -42 -3q-89 0 -150 37
q-90 -38 -165 -122q-80 -88 -80 -161q0 -25 11 -45q43 -87 174 -87q106 0 225 48q144 59 216 143q16 19 29 16q15 -2 -21 -39t-93 -77q-67 -45 -125 -68q-143 -57 -282 -57q-171 0 -218 107q-13 30 -13 60q0 88 108 175q82 66 212 122q-58 46 -51 105q12 109 192 198
q118 58 245 58q98 0 125 -44q11 -18 11 -43q29 0 29 -10q0 -7 -10 -6zM833 691q-44 -7 -72 -25q-40 -27 -40 -48q0 -17 19 -17q33 0 64 33q22 23 29 57zM600 447q-4 20 -53 20q-17 0 -37 -2q-42 -6 -95 -25q44 -34 122 -33q32 1 49 12.5t14 27.5zM789 872q-2 -27 -29 -27
q-28 0 -26 27q2 28 29 28q28 0 26 -28zM685 872q-2 -27 -29 -27q-28 0 -26 27q2 28 29 28q28 0 26 -28z" />
    <glyph glyph-name="afii10053" unicode="&#x404;" horiz-adv-x="743" 
d="M243 382q-37 2 -68 -10q-17 -6 -30 -13q-21 -37 -33 -72h2q-18 -75 -18 -90q0 -48 20 -85q54 -100 234 -100q50 0 95 8q129 25 232 87q70 43 111 90q16 17 28 17q4 0 5 -2q7 -10 -17 -33q-65 -64 -120 -99q-98 -61 -232 -88q-74 -14 -143 -14q-189 0 -265 98
q-42 53 -42 133q0 169 193 332q145 123 320 193q153 61 268 61q64 0 93 -21q32 -24 32 -64q31 0 30 -10q-1 -8 -17 -6h-15q-9 -57 -52 -92q-31 -25 -68 -25q-44 0 -44 33q0 50 69 81q32 14 71 18q-1 63 -94 63q-73 0 -169 -36q-113 -41 -224 -120q-141 -100 -219 -208
q60 25 134 18q50 -4 115 -29q72 -26 90 -29q40 -7 69 17q23 18 30 42q4 16 -7 19q-4 0 -11.5 -4t-11.5 -4q-10 1 -17.5 9t-5.5 20q1 15 15 23.5t30 3.5q38 -10 30 -64q-9 -49 -49 -77.5t-91 -26.5q-33 2 -79 16q-22 6 -51.5 13l-56.5 13zM881 691q-53 -9 -81 -31
q-31 -23 -31 -45q0 -14 18 -14q22 0 51 21q34 24 43 69z" />
    <glyph glyph-name="afii10054" unicode="&#x405;" horiz-adv-x="848" 
d="M1043 762q0 -18 -19 -34t-38 -21q-21 -5 -27 9q-4 10 13 13q36 6 36 31q0 4 -2 9q-8 21 -78 21q-50 0 -99 -16q-146 -47 -146 -157q0 -47 41 -108l75 -101q38 -59 33 -107q-11 -105 -107 -190q-89 -79 -223 -115q-77 -21 -157 -21q-109 0 -191 36q-85 38 -111 102
q-11 27 -11 53q0 116 177 181q110 41 273 41q103 0 168 -12q33 -6 27 -17q-6 -12 -34 -8q-26 4 -62 4q-165 0 -321 -64q-161 -65 -161 -157q0 -14 5 -28q17 -48 86 -75.5t160 -27.5q77 0 147 20q136 39 215 116q75 74 75 157q0 34 -37 89l-70 102q-38 63 -38 115q0 26 9 51
q29 85 120 127q64 30 148 34q37 2 73 -8q51 -13 51 -44z" />
    <glyph glyph-name="uni0406" unicode="&#x406;" horiz-adv-x="829" 
d="M960 802q33 -25 33 -94q0 -118 -84 -276q-93 -176 -241 -296q-112 -92 -241 -138q6 -18 17 -48q5 -16 -11 -16q-11 0 -14 10l-16 46q-87 -28 -190 -28q-152 0 -189 76q-11 22 -11 49q0 71 52 121q30 28 57 28q30 0 30 -28q0 -13 -8.5 -23.5t-20.5 -10.5q-4 0 -7 2
q-32 10 -56 -21q-20 -27 -20 -66q0 -29 15 -49q26 -34 90 -34q90 0 236 61q-12 57 -10 124q9 229 142 407q76 102 183 166q101 60 185 60q48 0 79 -22zM936 787q-23 16 -59 16q-75 0 -175 -63t-174 -159q-52 -70 -87 -166q-38 -106 -43 -218q-4 -60 8 -119q164 74 286 186
q117 108 196 241q76 130 76 214q0 48 -28 68z" />
    <glyph glyph-name="afii10056" unicode="&#x407;" horiz-adv-x="858" 
d="M960 802q33 -25 33 -94q0 -118 -84 -276q-93 -176 -241 -296q-112 -92 -241 -138q6 -18 17 -48q5 -16 -11 -16q-11 0 -14 10l-16 46q-87 -28 -190 -28q-152 0 -189 76q-11 22 -11 49q0 71 52 121q30 28 57 28q30 0 30 -28q0 -13 -8.5 -23.5t-20.5 -10.5q-4 0 -7 2
q-32 10 -56 -21q-20 -27 -20 -66q0 -29 15 -49q26 -34 90 -34q90 0 236 61q-12 57 -10 124q9 229 142 407q76 102 183 166q101 60 185 60q48 0 79 -22zM936 787q-23 16 -59 16q-75 0 -175 -63t-174 -159q-52 -70 -87 -166q-38 -106 -43 -218q-4 -60 8 -119q164 74 286 186
q117 108 196 241q76 130 76 214q0 48 -28 68zM990 900q-2 -28 -29 -28t-26 28q2 27 30 27q27 0 25 -27zM886 900q-2 -28 -29 -28t-26 28q2 27 30 27q27 0 25 -27z" />
    <glyph glyph-name="afii10057" unicode="&#x408;" horiz-adv-x="799" 
d="M913 755q26 -34 26 -90q0 -139 -152 -392q-74 -123 -191 -258q-158 -183 -303 -270q-189 -114 -325 -114q-81 0 -132 40q-43 34 -52 82q-4 22 -4 44q0 69 37 135q34 59 77 85q19 11 39 11t34 -10.5t15 -24.5q3 -22 -10 -40t-31 -22q-15 -4 -27.5 5t-13.5 21t-6 14
q-8 3 -18 -5q-15 -13 -31 -45q-23 -45 -23 -91q0 -13 2 -26q14 -93 137 -93q108 0 256 71q156 75 297.5 203t265.5 329q133 214 133 339q0 53 -27 82q-42 45 -114 45q-83 0 -191 -59q-95 -51 -170 -124q-79 -75 -139 -177q-67 -115 -67 -195q0 -22 6 -41q19 -62 91 -62
q93 0 198 77q60 43 110 115q38 56 54 103q9 24 20 24t6 -19q-42 -140 -179 -250q-101 -81 -224 -81q-112 0 -147 79q-13 32 -13 71q0 91 67.5 204t177.5 207q86 73 194 116t198 43q104 0 149 -56z" />
    <glyph glyph-name="afii10062" unicode="&#x40e;" horiz-adv-x="1052" 
d="M1049 413q0 -90 -73 -233q-87 -173 -234 -311q-111 -104 -247 -182q-147 -84 -235 -84q-53 0 -76 32q-8 12 -8 28q0 40 57 90.5t152 90.5q123 52 254 52q46 0 86 -6q126 116 216 279q80 147 80 226q0 39 -22 39q-25 0 -97 -75q-117 -122 -132 -136q-102 -92 -200 -154
q-125 -80 -199 -80q-23 0 -41 8q-45 21 -45 75q0 68 62 138q45 51 161 144q104 83 146 142q68 93 68 175q0 57 -36.5 91t-107.5 34q-115 0 -258 -83q-103 -59 -182 -159q-80 -103 -80 -181q0 -29 12 -50q27 -49 101 -49q55 0 123 26q60 23 98 52q104 79 139 193q5 18 17 19
q6 1 9.5 -4.5t0.5 -14.5q-15 -53 -34 -85q-39 -64 -118 -125q-42 -32 -104 -56q-71 -26 -131 -26q-92 0 -130 63q-30 49 -30 109q0 74 44 148q48 79 137 142q157 112 337 112q120 0 173 -49q47 -42 47 -118q0 -95 -64 -185q-39 -54 -106 -121q-84 -84 -115 -120
q-94 -111 -94 -172q0 -40 36 -40q51 0 180 90q103 72 169 136l204 198q23 21 46 21q44 0 44 -54zM704 -129q-33 4 -67 4q-116 0 -213 -39q-83 -34 -135 -81t-52 -84q0 -36 42 -36q64 0 178 59q129 68 247 177zM1086 807q-11 -35 -48 -72q-46 -45 -99 -46q-55 -2 -82 40
q-20 32 -16 71q2 23 15 23q5 0 8 -6t3 -15q-1 -26 22.5 -49t58.5 -22q37 1 72 25q32 23 43 51q8 19 18 18q9 -1 5 -18z" />
    <glyph glyph-name="afii10017" unicode="&#x410;" horiz-adv-x="1188" 
d="M1334 753q-96 -140 -203 -327q27 -14 42 -26.5t8 -23.5q-8 -11 -18 -2q-15 13 -45 29q-40 -72 -68 -129q-69 -141 -69 -209q0 -58 53 -58q48 0 81 39q8 10 13 8q10 -2 -2.5 -19t-41.5 -33q-35 -19 -67 -19q-21 0 -39 8q-62 31 -62 96q0 52 34 134q26 62 120 205
q-70 29 -137 45l-177 -197q-109 -118 -197 -183q-116 -85 -235 -110q-32 -7 -69 -7q-90 0 -149 39q-74 48 -76 144q-2 128 170 233q157 96 362 121q75 10 147 10q108 0 208 -21q243 234 292 266q56 38 93 38q40 0 40 -29q0 -11 -8 -22zM1313 782q-4 2 -11 2q-22 0 -62 -22
q-66 -38 -287 -270q69 -17 131 -44q64 96 149 208q63 83 80 103q14 16 0 23zM895 480q-89 18 -185 18q-98 0 -204 -19q-166 -31 -299 -112q-150 -92 -150 -193q0 -10 1 -21q18 -104 155 -104q59 0 123 19q114 33 221 109q79 54 191 162z" />
    <glyph glyph-name="glyph230" unicode="&#x411;" horiz-adv-x="1117" 
d="M595 152q-31 -51 -68 -90.5t-79 -68.5q-10 -8 -23 -14t-28 -12q-35 -15 -67 -19t-61 1q-36 8 -62.5 28.5t-41.5 57.5q-15 35 -12.5 74.5t20.5 62.5q9 14 25 21q32 12 44 -8q8 -14 4 -28t-18 -19q-18 -8 -27 4q-3 2 -5.5 5t-4.5 1q-9 -9 -13 -22t-4.5 -26.5t1 -25
t4.5 -18.5q2 -4 4 -7.5t4 -8.5q49 -72 153 -30q23 10 45 23t45 31q19 15 39 35t39 42.5t36.5 46t31.5 46.5l20 33.5t21 34.5l74 112t57 81q65 86 145 142q68 49 127 61q10 1 11 -9q1 -11 -16 -16q-47 -11 -116 -63q-69 -51 -110 -107q-20 -27 -39.5 -58.5l-41.5 -70.5
q66 59 132 77.5t118 0t82 -71.5t24 -136q-7 -46 -30.5 -90t-57 -80.5t-73 -62t-78.5 -34.5q-34 -7 -74 -4t-72 21.5t-49 56t-3 100.5q3 15 8.5 24.5t10 12t7 -3.5t-1.5 -21q-9 -67 6 -102t39.5 -49.5t50.5 -14t38 3.5q46 12 84.5 39t67.5 71q26 39 41 81.5t23 88.5
q8 56 -4.5 91t-37.5 52t-60 18t-73 -12.5t-76 -40t-68 -62.5q-20 -36 -41 -79zM1325 642q-6 -9 -17 3q-38 42 -148 84q-111 42 -278 42q-61 0 -128 -6t-140 -17q-209 -35 -371 -149q-162 -116 -162 -225q0 -17 4 -29q25 -100 175 -100q59 0 113 16q67 20 133 73
q27 22 45 39.5t26 31.5q13 22 27 18q12 -1 -2 -23q-13 -19 -32 -39.5t-45 -42.5q-74 -64 -149 -83q-60 -16 -122 -16q-202 0 -229 169q-1 7 -1.5 13.5t-0.5 13.5q0 124 158 234q165 116 418 147q54 7 105.5 10.5t102.5 3.5q209 0 361 -57q120 -45 149 -82q14 -19 8 -29z" />
    <glyph glyph-name="afii10018" unicode="&#x412;" horiz-adv-x="884" 
d="M965 572q-47 -109 -166 -182q41 -42 41 -109q0 -27 -8 -56q-23 -85 -106 -154q-72 -60 -174.5 -96.5t-194.5 -36.5q-119 0 -146 58q-7 15 -7 32q0 31 22 64q17 28 38 42q12 8 20 2q4 -4 -5 -20q-12 -22 -12 -37q0 -37 26 -61q37 -33 122 -33q68 0 129 22q102 37 171 97
q67 57 89 123q10 29 10 56q0 56 -38 94q-90 -49 -164 -49q-40 0 -72 14q-41 19 -41 55q0 32 39.5 52.5t95.5 17.5q81 -6 138 -51q76 67 115 160q12 30 12 62q0 50 -29 83q-33 37 -97 37q-24 0 -51 -6q-105 -21 -218 -96q-51 -121 -122 -260q-96 -189 -178 -294
q-84 -108 -136 -108q-45 0 -45 62q0 74 59 187q109 207 333 383q31 25 62 46q33 84 43 117q6 25 18 25q7 0 12 -7.5t5 -14.5q-2 -14 -31 -89q168 104 312 98q65 -3 106.5 -42.5t41.5 -101.5q0 -40 -19 -85zM753 400q-47 39 -120 44q-37 3 -62 -12t-23 -36q1 -18 24.5 -30
t56.5 -12q63 0 124 46zM456 622q-140 -106 -245 -242q-56 -73 -100 -156q-54 -99 -54 -149q0 -40 28 -40q64 0 229 291q67 119 142 296z" />
    <glyph glyph-name="afii10020" unicode="&#x413;" horiz-adv-x="988" 
d="M1323 849q23 -12 23 -41q0 -44 -35 -75q-48 -44 -122 -46q-277 -602 -642 -732q-98 -35 -184 -35q-120 0 -162 62q-19 28 -19 60q0 50 42.5 95.5t104.5 62.5q49 14 94 14q40 0 64 -9q17 -7 10 -18q-7 -10 -20 -4q-23 10 -61 10q-44 0 -86 -16q-46 -17 -70 -49.5
t-24 -65.5q0 -44 44 -66q34 -17 84 -17q74 0 174 34q354 117 617 677q-84 4 -238 59q-162 58 -238 66q35 -58 38 -120q6 -112 -59 -221q-57 -96 -149 -160q-147 -101 -286 -101q-112 0 -168 72q-33 42 -33 104q0 79 51 164q54 91 153 163q176 129 395 129q-3 2 -39 33
q-29 25 -29 32t11 7q42 0 97 -74q26 -2 50 -5q68 -11 239 -64q153 -48 219 -51q13 29 41 81q35 51 85 51q15 0 28 -6zM1292 828q-28 0 -55 -40q-6 -7 -34 -66q43 4 75 31t32 55q0 20 -18 20zM687 690q-5 69 -45 127q-84 2 -172 -25q-106 -32 -189.5 -98t-132.5 -150.5
t-49 -158.5q0 -65 39.5 -104.5t107.5 -39.5q113 0 247 94q84 58 138 148q63 103 56 207z" />
    <glyph glyph-name="afii10021" unicode="&#x414;" horiz-adv-x="886" 
d="M977 579q-17 -106 -82 -231q-85 -163 -212 -262q-178 -140 -350 -140q-51 0 -86 14t-43 34q-4 11 -4 23q0 49 69 100q58 43 127 64q59 17 131 17q71 0 103 -14q26 -12 15 -18q-3 -2 -51 4q-54 7 -59 7q-67 0 -138 -20q-64 -19 -114 -57q-54 -41 -54 -79q0 -8 3 -14
q10 -32 96 -32q70 0 146 25q89 30 156 86q125 106 201 261q67 140 67 257q0 99 -51 128q-39 21 -89 21q-111 0 -255 -96q-74 -171 -136 -286q-202 -378 -296 -378q-47 0 -47 66q0 73 62 189q68 127 185 249q90 96 206 174q9 25 24 61l21 68q6 18 22 15q14 -2 10 -26
q-4 -20 -33 -90q176 108 294 103q168 -6 168 -158q0 -29 -6 -65zM458 625q-219 -169 -347 -398q-54 -98 -54 -154q0 -38 27 -38q63 0 248 327q63 111 126 263z" />
    <glyph glyph-name="afii10022" unicode="&#x415;" horiz-adv-x="696" 
d="M879 694h-20q-8 -45 -43.5 -81t-80.5 -36q-40 0 -40 36q0 22 22.5 45t51.5 35.5t66 15.5q0 21 -13 37q-23 29 -88 29q-113 0 -228 -66q-61 -35 -95.5 -85.5t-34.5 -99.5q0 -39 20 -65q80 25 144 27q83 4 87 -39q5 -47 -75 -60q-19 -3 -42 -3q-89 0 -150 37
q-90 -38 -165 -122q-80 -88 -80 -161q0 -25 11 -45q43 -87 174 -87q106 0 225 48q144 59 216 143q16 19 29 16q15 -2 -21 -39t-93 -77q-67 -45 -125 -68q-143 -57 -282 -57q-171 0 -218 107q-13 30 -13 60q0 88 108 175q82 66 212 122q-58 46 -51 105q12 109 192 198
q118 58 245 58q98 0 125 -44q11 -18 11 -43q29 0 29 -10q0 -7 -10 -6zM833 691q-44 -7 -72 -25q-40 -27 -40 -48q0 -17 19 -17q33 0 64 33q22 23 29 57zM600 447q-4 20 -53 20q-17 0 -37 -2q-42 -6 -95 -25q44 -34 122 -33q32 1 49 12.5t14 27.5z" />
    <glyph glyph-name="afii10024" unicode="&#x416;" horiz-adv-x="1466" 
d="M1363 555q77 101 152 156.5t151 76.5q24 7 50 7q57 0 79 -43q13 -25 13 -62q0 -65 -25 -111q-9 -16 -19 -12t-4 23q10 27 10 58q0 55 -33 81q-18 15 -48 15q-31 0 -61 -13q-90 -35 -183 -131q-82 -82 -140 -182l-15 -26l-15 -25l-13 -23l48.5 -16t36.5 -13q20 -9 16 -21
q-1 -6 -10 -9q-11 -2 -18 2q-2 1 -28 11t-59 21q-67 -128 -67 -215q0 -57 36 -82q19 -13 48 -13q44 0 91 32q16 10 24 3q7 -8 -6 -21q-21 -21 -58 -41q-45 -24 -85 -24q-5 0 -9.5 0.5t-9.5 1.5q-36 6 -53 34.5t-19 80.5q-2 49 19.5 114.5t59.5 139.5q-19 7 -35.5 12.5
t-27.5 10.5q-14 4 -28.5 7.5t-29.5 7.5l-22 -43.5l-29 -58.5l-34 -69l-37 -75q-46 -97 -79 -115q-11 -7 -28 -12.5t-40 -10.5q-45 -11 -71 -9q-15 0 -15 6t13 10q57 23 106 90q42 57 87 126.5l95 153.5q2 5 5 9t5 9q-34 8 -67.5 14l-62.5 11q-92 -164 -231 -288
q-111 -101 -241 -153q-117 -49 -225 -49q-146 0 -194 84q-19 34 -19 71q0 88 100 182q80 74 173 117q-13 27 -13 66q0 70 43 146q46 81 129 144q79 61 179 96q93 34 183 34q103 0 159 -47q46 -37 46 -122q0 -112 -77 -258q28 -5 62 -12t69 -16l76.5 118t70.5 97
q70 87 146 142q35 25 66.5 40t59.5 22q10 1 10 -9q2 -12 -15 -17q-47 -11 -114 -63q-69 -52 -112 -107q-85 -107 -147 -233l42 -10t37 -10q5 -2 17 -5.5t27 -8.5q27 50 60.5 100t71.5 101zM930 799q-35 22 -95 22q-68 0 -152 -29q-82 -28 -143 -70q-83 -58 -136 -147
q-52 -86 -52 -159q0 -6 0.5 -12t1.5 -12q171 54 383 51q34 49 46 103q4 15 14 16q4 0 7 -5q1 -6 0 -18q-7 -47 -36 -97q30 -1 63.5 -3.5t70.5 -7.5q84 147 84 250q0 80 -56 118zM888 408q-35 4 -69 6.5t-68 3.5q-29 -40 -69 -71q-95 -74 -217 -74q-107 0 -163 68
q-16 -7 -31.5 -15t-29.5 -16q-81 -47 -133 -107q-59 -67 -59 -120q0 -24 14 -46q34 -51 137 -51q121 0 274 64q157 65 253 155q45 42 84.5 92.5t76.5 110.5zM717 418q-200 -1 -355 -54q27 -63 118 -63q98 0 181 63q16 13 29.5 26.5z" />
    <glyph glyph-name="afii10025" unicode="&#x417;" horiz-adv-x="660" 
d="M772 697q0 -68 -53 -151q-60 -95 -172 -178q36 -17 50 -47q12 -24 12 -55q0 -85 -80 -213q-65 -102 -146 -184q40 -18 56 -34q11 -11 1 -20q-13 -12 -26.5 3t-52.5 29q-146 -144 -333 -204q-55 -17 -125 -17q-141 0 -135 77q6 87 165 149q132 52 246 52q90 0 166 -22
q61 67 109 152q59 105 59 177q0 64 -53 101q-156 -89 -267 -89q-41 0 -49 17q-6 11 -6 22q0 59 125 103q71 25 163 25q53 0 91 -11q98 71 161 161t63 155q0 95 -153 95q-63 0 -129 -17q-128 -33 -217 -104q-85 -68 -85 -132q0 -17 8 -33q22 -42 91 -42q48 0 108 20
q55 19 95 46q26 18 31 9q7 -12 -16 -26q-45 -30 -108 -51q-71 -24 -129 -24q-84 0 -118 52q-20 30 -20 66q0 75 81.5 147.5t199.5 101.5q93 24 174 24q84 0 140 -24q78 -33 78 -106zM431 327q-35 14 -83 14q-34 0 -67 -7q-46 -9 -77.5 -29.5t-25.5 -37.5q4 -11 28 -11
q83 0 225 71zM327 -139q-69 19 -147 19q-69 0 -137 -16q-89 -21 -151 -62.5t-68 -79.5q-5 -31 28 -48q29 -15 80 -15q47 0 94 13q161 44 301 189z" />
    <glyph glyph-name="afii10026" unicode="&#x418;" horiz-adv-x="1063" 
d="M1294 800q3 -9 -134 -202q-158 -221 -162 -227l-118 -179q-65 -103 -65 -142q0 -28 30 -28q45 0 80 32q14 13 21 8q9 -7 -6.5 -25t-49.5 -32.5t-65 -14.5q-30 0 -45 17t-15 46q0 70 98 231q-38 -38 -78 -70q-271 -225 -403 -225q-23 0 -41 8q-46 21 -46 75q0 68 62 138
q46 52 161 145q103 84 146 141q72 94 72 177q0 57 -40 88.5t-109 31.5q-114 0 -257 -80q-107 -59 -185 -159t-78 -179q0 -30 13 -52q28 -49 101 -49q55 0 124 26q60 23 97 52q104 79 139 193q5 18 17 19q6 1 9.5 -4.5t0.5 -14.5q-15 -53 -34 -85q-38 -64 -118 -125
q-42 -32 -104 -56q-71 -26 -131 -26q-92 0 -130 63q-30 49 -30 110q0 74 44 148q48 79 137 141q156 109 335 109q118 0 175 -46q48 -38 48 -112q0 -92 -65 -191q-37 -56 -104 -122q-88 -86 -117 -119q-94 -111 -94 -172q0 -40 37 -40q53 0 184 84q101 65 173 126
q116 98 178 191l232 351q4 3 36.5 14t52.5 14q19 3 21 -2z" />
    <glyph glyph-name="afii10027" unicode="&#x419;" horiz-adv-x="1063" 
d="M1294 800q3 -9 -134 -202q-158 -221 -162 -227l-118 -179q-65 -103 -65 -142q0 -28 30 -28q45 0 80 32q14 13 21 8q9 -7 -6.5 -25t-49.5 -32.5t-65 -14.5q-30 0 -45 17t-15 46q0 70 98 231q-38 -38 -78 -70q-271 -225 -403 -225q-23 0 -41 8q-46 21 -46 75q0 68 62 138
q46 52 161 145q103 84 146 141q72 94 72 177q0 57 -40 88.5t-109 31.5q-114 0 -257 -80q-107 -59 -185 -159t-78 -179q0 -30 13 -52q28 -49 101 -49q55 0 124 26q60 23 97 52q104 79 139 193q5 18 17 19q6 1 9.5 -4.5t0.5 -14.5q-15 -53 -34 -85q-38 -64 -118 -125
q-42 -32 -104 -56q-71 -26 -131 -26q-92 0 -130 63q-30 49 -30 110q0 74 44 148q48 79 137 141q156 109 335 109q118 0 175 -46q48 -38 48 -112q0 -92 -65 -191q-37 -56 -104 -122q-88 -86 -117 -119q-94 -111 -94 -172q0 -40 37 -40q53 0 184 84q101 65 173 126
q116 98 178 191l232 351q4 3 36.5 14t52.5 14q19 3 21 -2zM1128 923q-11 -35 -48 -72q-46 -45 -99 -46q-55 -2 -82 40q-20 32 -16 71q2 23 15 23q5 0 8 -6t3 -15q-1 -26 22.5 -49t58.5 -22q37 1 72 25q32 23 43 51q8 19 18 18q9 -1 5 -18z" />
    <glyph glyph-name="afii10028" unicode="&#x41a;" horiz-adv-x="1277" 
d="M1605 733q-1 -12 -7 -12q-10 0 -13.5 18.5t-27 29.5t-54.5 11q-11 0 -22 -1q-63 -10 -124 -75q-30 -32 -68 -96q-43 -73 -67 -104q-46 -58 -112 -101q-23 -15 -90 -33q53 -18 71 -58q10 -22 10 -48q0 -49 -39 -113q-25 -40 -25 -82q0 -31 17 -46q12 -10 29 -10
q46 0 80.5 46.5t34.5 90.5q0 29 -16 32q-34 7 -71 -54q-7 -13 -17 -12q-12 1 -4 18q13 31 37.5 52t48.5 21q11 0 21 -4q23 -12 23 -49q0 -53 -39 -107q-21 -30 -62 -52t-79 -22q-30 0 -50 15q-36 27 -36 71q0 57 48 111q67 76 67 110t-32 56q-29 19 -65 19q-15 0 -30 -4
l-17 -3q-24 -5 -53 -22q-155 -228 -335 -325q-167 -91 -304 -91q-80 0 -139 32q-49 27 -68 65q-12 28 -12 60q0 46 21.5 89t51.5 61q18 12 38 12q41 0 45 -30q2 -19 -8.5 -32.5t-29.5 -13.5q-23 0 -28 17q-3 9 -8 11q-6 1 -15 -6t-19 -30q-13 -28 -13 -56q0 -22 8 -41
q28 -67 143 -67q111 0 257 59.5t253.5 150t190.5 233.5q87 151 87 257q0 74 -46 108q-49 36 -121 36q-84 0 -183 -47q-89 -42 -152 -102q-56 -52 -93 -119q-41 -73 -41 -134q0 -42 19 -72q33 -51 104 -51q90 0 183 62q52 34 88 92q28 45 35 82q3 19 15 19q11 0 9 -15
q-15 -112 -131 -199q-88 -66 -211 -66q-112 0 -159 64q-30 41 -30 97q0 69 45 145.5t125 141.5q72 58 173 93q98 33 189 33q103 0 158 -44q50 -40 50 -119q0 -104 -83 -265q-6 -11 -14 -24q119 -7 180 32q55 34 102 93q27 35 70 107q40 66 62 92q100 116 192 109
q43 -4 66 -36q19 -28 16 -61z" />
    <glyph glyph-name="afii10029" unicode="&#x41b;" horiz-adv-x="1188" 
d="M57 174v-10.5t1 -10.5q18 -104 155 -104q60 0 123 19q116 34 221 109q40 27 87 67.5t104 94.5l147 141l211.5 199t102.5 87q56 38 93 38q40 0 40 -29q0 -11 -8 -22q-48 -70 -98.5 -151.5l-104.5 -175.5l-13 -23l-37 -68t-31 -61q-69 -141 -69 -209q0 -58 53 -58
q48 0 81 39q7 10 13 8q10 -2 -2.5 -19t-41.5 -33q-34 -19 -67 -19q-20 0 -39 8q-62 32 -62 96q0 53 34 134q13 31 42.5 82t77.5 123l79.5 116.5l83.5 113.5l52 67.5l28 35.5q13 16 0 23q-6 2 -11 2q-22 0 -62 -22q-65 -37 -307 -291l-88.5 -98l-88.5 -99
q-55 -60 -103.5 -105.5t-93.5 -77.5q-58 -43 -116.5 -70t-118.5 -40q-29 -7 -69 -7q-91 0 -149 39q-75 49 -76 144q0 23 6 46t15.5 43t23 36t28.5 25q18 12 38 12q40 0 45 -30q2 -19 -8.5 -32.5t-29.5 -13.5q-23 0 -28 17q-2 5 -4 8.5t-4 2.5q-14 -6 -24.5 -18.5t-17.5 -27
t-10 -28.5t-3 -23z" />
    <glyph glyph-name="afii10030" unicode="&#x41c;" horiz-adv-x="1660" 
d="M1908 768q0 -46 -101 -181q-95 -127 -209 -239l-26 -26q-128 -240 -128 -325q0 -27 24 -27q23 0 51 29t32 27q6 -2 -2 -15q-14 -21 -37 -39q-28 -22 -55 -22q-9 0 -18 3q-30 10 -30 58q0 72 67 218q-250 -231 -366 -231q-22 0 -40 8q-40 18 -40 78q0 87 81 261
q-273 -302 -559 -382q-101 -29 -202 -29q-117 0 -198 39q-90 44 -117 129q-11 33 -11 66q0 115 116 208q119 97 329 144q115 26 234 26q140 0 272 -35q107 -28 182 -70l21 39q82 162 148.5 257.5t91.5 85.5q7 -4 7 -15q0 -36 -63 -137q-29 -47 -83 -118q-98 -126 -98 -127
q59 -37 59 -53q0 -2 -2 -4q-10 -10 -39 14q-13 10 -33 22q-105 -222 -105 -316q0 -65 55 -65q112 0 386 259q38 76 90 167q82 142 171 242q86 96 127 96q18 0 18 -20zM1869 751q-52 0 -261 -364q69 69 168 200.5t99 157.5q0 6 -6 6zM1144 418q-63 40 -175 68
q-129 32 -267 32q-114 0 -220 -23q-214 -47 -326 -143q-94 -81 -94 -172q0 -88 88 -129q67 -32 166 -32q64 0 139 12q171 28 368 137q181 100 287 213z" />
    <glyph glyph-name="afii10031" unicode="&#x41d;" horiz-adv-x="1227" 
d="M1586 808q1 -12 -15 -17q-46 -11 -114 -62.5t-112 -107.5q-91 -116 -155 -250q30 -9 81 -27q20 -9 16 -21q-2 -6 -10 -9q-9 -2 -17.5 2.5t-80.5 30.5l-113 -226q-46 -97 -79 -115q-22 -13 -67.5 -23t-71.5 -9q-15 0 -15 6q0 5 13 10q56 23 106 90q83 114 182 280
q-104 28 -210 43q-91 -163 -231 -288q-111 -100 -241 -153q-119 -49 -225 -49q-146 0 -194 84q-19 34 -19 71q0 87 100 182q79 74 173 117q-13 29 -13 66q0 70 43 146q46 81 129 144q80 61 179 96q95 34 183 34q103 0 159 -47q46 -38 46 -122q0 -112 -77 -258
q109 -16 212 -43q82 138 156 230q69 86 146 142q70 49 126 62q10 2 10 -9zM930 799q-36 22 -95 22q-69 0 -151.5 -28.5t-143.5 -70.5q-84 -59 -136 -146.5t-52 -159.5q0 -12 2 -24q171 54 383 51q34 49 46 103q4 15 14 16q4 0 7 -5q2 -6 0 -18q-7 -48 -36 -97q60 -2 134 -11
q84 147 84 250q0 81 -56 118zM717 418q-201 -2 -355 -54q27 -63 118 -63q99 0 181 63q31 25 56 54zM888 408q-69 8 -137 10q-28 -39 -69 -71q-95 -74 -217 -74q-107 0 -163 68q-32 -14 -61 -31q-80 -47 -133 -107q-59 -66 -59 -120q0 -25 14 -46q34 -51 137 -51
q119 0 274.5 64t252.5 155q88 83 161 203z" />
    <glyph glyph-name="afii10032" unicode="&#x41e;" horiz-adv-x="684" 
d="M691 806q42 -15 66.5 -68.5t24.5 -129.5q0 -198 -139 -380q-95 -124 -211.5 -197.5t-217.5 -73.5q-73 0 -126 40q-75 56 -75 177q0 166 123 332q162 220 326 275q16 5 22 0q10 -7 -16 -16q-43 -14 -114 -70q-104 -80 -175 -189q-89 -137 -89 -284q0 -144 86 -191
q40 -22 90 -22q171 0 347 224q143 182 143 375q0 69 -20.5 116.5t-55.5 58.5q-19 7 -40 7q-100 0 -207 -159q-57 -86 -57 -159q0 -44 23 -57q14 -7 30 -7q66 0 124 90q16 24 24 19q13 -6 0 -29q-20 -37 -66 -71q-52 -39 -99 -39q-26 0 -47 13q-44 26 -44 97q0 65 36 127
q49 85 130 142t155 57q26 0 49 -8z" />
    <glyph glyph-name="afii10033" unicode="&#x41f;" horiz-adv-x="1057" 
d="M1325 642q-6 -9 -17 3q-38 42 -148 84q-111 42 -278 42q-61 0 -128 -6t-140 -17q-209 -35 -371 -149q-162 -116 -162 -225q0 -17 4 -29q25 -100 175 -100q59 0 113 16q67 20 133 73q27 22 45 39.5t26 31.5q13 22 27 18q12 -1 -2 -23q-13 -19 -32 -39.5t-45 -42.5
q-74 -64 -149 -83q-60 -16 -122 -16q-202 0 -229 169q-1 7 -1.5 13.5t-0.5 13.5q0 124 158 234q165 116 418 147q54 7 105.5 10.5t102.5 3.5q209 0 361 -57q120 -45 149 -82q14 -19 8 -29zM628 179q-23 -61 -61.5 -107t-85 -75t-99 -40t-103.5 -2q-36 8 -67.5 25.5
t-46.5 54.5q-15 35 -12.5 74.5t20.5 62.5q9 14 25 21q32 12 44 -8q8 -14 4 -28t-18 -19q-18 -8 -27 4q-3 2 -5.5 5t-4.5 1q-9 -9 -13 -22t-4.5 -26.5t1 -25t4.5 -18.5q2 -4 4 -7.5t4 -8.5q49 -72 153 -30q23 10 45 23t45 31q19 15 39 35t39 42.5t36.5 46t31.5 46.5l20 33.5
t21 34.5l74 112t57 81q65 86 145 142q68 49 127 61q10 1 11 -9q1 -11 -16 -16q-47 -11 -116 -63q-69 -51 -110 -107q-20 -29 -36 -58t-33 -65.5l-38.5 -85zM1002 375l-31.5 -48.5t-12.5 -18.5l-48.5 -80l-47.5 -80q-52 -91 -50 -126q1 -24 29 -22q41 3 71 33q11 11 18 7
q8 -3 1 -14t-23.5 -23t-38.5 -21.5t-44 -9.5q-28 -2 -42.5 11.5t-15.5 38.5q-5 62 74 204l55 93l140 237q3 2 11 5.5t21 8.5l26.5 9l20.5 7q18 3 19 -1q1 -2 -9 -18.5l-28 -44.5l-42.5 -66z" />
    <glyph glyph-name="afii10034" unicode="&#x420;" horiz-adv-x="763" 
d="M930 778q62 -41 62 -121q0 -78 -55.5 -161.5t-136.5 -126.5q-109 -57 -219 -57q-52 0 -94 15q-59 20 -59 64q0 31 29 57q26 23 64 34q26 8 56 8q50 0 91 -19q12 -6 16 -13t-1 -9q-11 -7 -26 0q-36 17 -77 17q-28 0 -55 -8q-31 -9 -51.5 -30.5t-15.5 -42.5
q4 -21 36.5 -34.5t81.5 -13.5q99 0 194 53q66 36 109.5 99.5t43.5 124.5q0 48 -31 82q-41 45 -124 45q-66 0 -146 -27q-70 -24 -119 -57q-74 -171 -136 -286q-202 -378 -296 -378q-47 0 -47 66q0 73 62 189q68 127 185 249q90 96 206 174q9 25 24 61l21 68q6 18 22 15
q14 -2 10 -26q-4 -20 -33 -90q67 41 144 70q95 35 167 35q60 0 98 -26zM458 625q-219 -169 -347 -398q-54 -98 -54 -154q0 -38 27 -38q63 0 248 327q63 111 126 263z" />
    <glyph glyph-name="afii10035" unicode="&#x421;" horiz-adv-x="743" 
d="M938 700q-1 -8 -17 -6h-15q-9 -57 -52 -92q-31 -25 -68 -25q-44 0 -44 33q0 50 69 81q32 14 71 18q-1 63 -94 63q-73 0 -169 -36q-113 -41 -224 -120q-152 -108 -230 -225q-69 -103 -69 -194q0 -48 20 -85q54 -100 234 -100q50 0 95 8q129 25 232 87q70 43 111 90
q16 17 28 17q4 0 5 -2q7 -10 -17 -33q-65 -64 -120 -99q-98 -61 -232 -88q-74 -14 -143 -14q-189 0 -265 98q-42 53 -42 133q0 169 193 332q145 123 320 193q153 61 268 61q64 0 93 -21q32 -24 32 -64q31 0 30 -10zM881 691q-53 -9 -81 -31q-31 -23 -31 -45q0 -14 18 -14
q22 0 51 21q34 24 43 69z" />
    <glyph glyph-name="afii10036" unicode="&#x422;" horiz-adv-x="1217" 
d="M1217 681q40 -23 77 -31t69.5 -7.5t59.5 7t47 14.5q11 5 17 0.5t5 -11.5q-2 -8 -9.5 -20.5t-23.5 -16.5q-17 -3 -47 -5t-66.5 1t-76 14t-76.5 36q-71 48 -141.5 78.5t-136.5 49t-125.5 29l-110.5 19.5q35 -59 38 -120q6 -111 -59 -221q-56 -95 -149 -160
q-148 -101 -286 -101q-113 0 -168 72q-33 42 -33 104q0 78 51 164q53 91 153 163q175 129 395 129q-3 1 -39 33q-29 26 -29 32q0 7 11 7q41 0 97 -74q13 -1 31 -4t41 -5q47 -5 106 -18.5t123 -36t129.5 -53t125.5 -68.5zM628 179q-23 -61 -61.5 -107t-85 -75t-99 -40
t-103.5 -2q-36 8 -67.5 25.5t-46.5 54.5q-15 35 -12.5 74.5t20.5 62.5q9 14 25 21q32 12 44 -8q8 -14 4 -28t-18 -19q-18 -8 -27 4q-3 2 -5.5 5t-4.5 1q-9 -9 -13 -22t-4.5 -26.5t1 -25t4.5 -18.5q2 -4 4 -7.5t4 -8.5q49 -72 153 -30q23 10 45 23t45 31q19 15 39 35t39 42.5
t36.5 46t31.5 46.5l20 33.5t21 34.5l74 112t57 81q65 86 145 142q68 49 127 61q10 1 11 -9q1 -11 -16 -16q-47 -11 -116 -63q-69 -51 -110 -107q-20 -29 -36 -58t-33 -65.5l-38.5 -85zM1107 362l-31.5 -48.5t-12.5 -18.5l-48.5 -80l-47.5 -80q-52 -91 -50 -126q1 -24 29 -22
q41 3 71 33q11 11 18 7q8 -3 1 -14t-23.5 -23t-38.5 -21.5t-44 -9.5q-28 -2 -42.5 11.5t-15.5 38.5q-5 62 74 204l55 93l140 237q3 2 11 5.5t21 8.5l26.5 9l20.5 7q18 3 19 -1q1 -2 -9 -18.5l-28 -44.5l-42.5 -66zM1128 628q1 -10 -13 -15q-38 -10 -94 -57
q-28 -23 -49.5 -47.5t-38.5 -49.5q-62 -101 -156 -333q-34 -84 -61 -101q-17 -12 -55 -23q-36 -10 -58 -10q-12 -1 -14 4q0 5 10 9q46 22 84 81q25 38 53.5 86.5l62.5 108.5l57 98.5t45 71.5q25 38 54 69t61 57q54 45 102 57q8 3 10 -6zM687 713q-4 68 -45 127
q-85 2 -172 -25q-105 -31 -190 -98q-83 -66 -132 -151q-49 -83 -49 -158q0 -66 39 -105t108 -39q114 0 247 94q85 59 138 148q63 104 56 207z" />
    <glyph glyph-name="afii10037" unicode="&#x423;" horiz-adv-x="1052" 
d="M1049 413q0 -90 -73 -233q-87 -173 -234 -311q-111 -104 -247 -182q-147 -84 -235 -84q-53 0 -76 32q-8 12 -8 28q0 40 57 90.5t152 90.5q123 52 254 52q46 0 86 -6q126 116 216 279q80 147 80 226q0 39 -22 39q-25 0 -97 -75q-117 -122 -132 -136q-102 -92 -200 -154
q-125 -80 -199 -80q-23 0 -41 8q-45 21 -45 75q0 68 62 138q45 51 161 144q104 83 146 142q68 93 68 175q0 57 -36.5 91t-107.5 34q-115 0 -258 -83q-103 -59 -182 -159q-80 -103 -80 -181q0 -29 12 -50q27 -49 101 -49q55 0 123 26q60 23 98 52q104 79 139 193q5 18 17 19
q6 1 9.5 -4.5t0.5 -14.5q-15 -53 -34 -85q-39 -64 -118 -125q-42 -32 -104 -56q-71 -26 -131 -26q-92 0 -130 63q-30 49 -30 109q0 74 44 148q48 79 137 142q157 112 337 112q120 0 173 -49q47 -42 47 -118q0 -95 -64 -185q-39 -54 -106 -121q-84 -84 -115 -120
q-94 -111 -94 -172q0 -40 36 -40q51 0 180 90q103 72 169 136l204 198q23 21 46 21q44 0 44 -54zM704 -129q-33 4 -67 4q-116 0 -213 -39q-83 -34 -135 -81t-52 -84q0 -36 42 -36q64 0 178 59q129 68 247 177z" />
    <glyph glyph-name="afii10038" unicode="&#x424;" horiz-adv-x="1152" 
d="M1177 748q-112 -57 -200 -79.5t-155 -20.5q-1 -15 -3 -30t-5 -31q-6 -19 -13 -38.5l-15 -40.5q49 55 105.5 84.5t109.5 35t97.5 -12t70.5 -56.5t27.5 -99.5t-31.5 -139.5q-16 -47 -50.5 -90t-78.5 -78.5t-92.5 -61t-93.5 -36.5q-32 -8 -71 -9.5t-73.5 12t-56.5 45.5
t-19 92q-7 -10 -13 -20l-13 -21q-129 -202 -263 -310q-170 -139 -305 -158q-81 -12 -137 21q-46 27 -63 74q-7 18 -10 43q-9 68 18 139q13 32 29 55.5t35 39.5q16 13 37 16q20 3 35.5 -5.5t18.5 -22.5q6 -21 -4.5 -41t-27.5 -26q-14 -6 -28 1t-17 19q-2 12 -7 13
q-10 1 -17 -7q-12 -12 -25 -49q-16 -46 -10 -94q1 -13 6 -25q27 -90 149 -73q107 15 243 106q144 96 266 242l24 28.5l21 26.5l10.5 16l10.5 16q-46 -55 -101.5 -83t-109 -31t-99.5 17t-73.5 61t-30.5 102t29 139q16 46 51 88t79.5 76t94 58.5t94.5 35.5q31 8 71.5 6
t76 -20.5t58 -56.5t17.5 -102l23 55.5t19 52.5l4 27l4 26q-74 6 -118.5 35.5t-61.5 65.5t-7.5 69.5t42.5 48.5q15 7 32.5 6t34 -7t30.5 -15t23 -19q26 -28 38.5 -71.5t10.5 -94.5q61 2 149.5 32.5t209.5 107.5q15 9 30 9t19.5 -8t-7 -23t-48.5 -37zM668 321l24.5 47.5
l21.5 42.5q14 58 11 97.5t-16 64.5t-33.5 37.5t-42 17.5t-41 4t-29.5 -3q-66 -16 -118.5 -51t-91 -80t-62.5 -95.5t-33.5 -99t-3.5 -90t28 -67.5q19 -23 52 -31t76.5 2t96.5 40.5t114 85.5l25.5 41.5zM750 416q-36 -77 -94 -179q-4 -42 4 -69.5t22.5 -45t33.5 -26t37 -11.5
t33.5 -2.5t22.5 1.5q65 12 117.5 45.5t91.5 78.5t64 97.5t35 102.5t4 93t-28 69q-20 22 -49.5 30.5t-69.5 -2t-91 -41.5t-112 -87l-10.5 -26.5t-10.5 -27.5zM724 826q-21 3 -34.5 -7t-18.5 -27t-1 -37.5t20 -39.5t43.5 -32.5t68.5 -15.5q3 30 0.5 57t-11.5 48t-25.5 35
t-41.5 19zM657 285q-1 -1 -1 -3q0 2 1 3z" />
    <glyph glyph-name="afii10039" unicode="&#x425;" horiz-adv-x="1031" 
d="M1385 742q13 -25 13 -62q0 -64 -25 -111q-9 -17 -19 -12q-10 4 -4 23q10 30 10 58q0 55 -33 81q-18 15 -48 15q-28 0 -61 -13q-88 -35 -183 -131q-82 -83 -140 -182h94l-18 -26h-91q-109 -180 -109 -288q0 -57 36 -82q20 -13 48 -13q44 0 91 32q16 11 24 3q7 -8 -6 -21
q-23 -23 -58 -41q-45 -24 -85 -24q-10 0 -19 2q-72 12 -72 115q0 57 20 123q-114 -135 -251 -209q-167 -90 -304 -90q-80 0 -139 31q-49 27 -67 66q-13 27 -13 60q0 45 21.5 88t51.5 61q18 12 38 12q41 0 45 -30q2 -19 -8.5 -32.5t-29.5 -13.5q-23 0 -28 17q-3 9 -8 11
q-6 1 -15 -6t-19 -29q-13 -29 -13 -57q0 -22 8 -41q28 -68 145 -68q110 0 252 58q147 60 257 153q68 57 170 213h-91l18 26h90q36 50 61 112q32 77 32 137q0 73 -48.5 109t-119.5 36q-86 0 -189 -48q-91 -43 -147.5 -99t-93.5 -121q-41 -74 -41 -134q0 -41 19 -71
q33 -51 104 -51q91 0 183 62q52 35 88 92q28 45 35 82q3 19 15 19q11 0 9 -15q-15 -111 -131 -199q-87 -66 -211 -66q-112 0 -159 65q-30 40 -30 96q0 69 45 146t125 141q72 58 173 93q98 34 189 34q103 0 158 -45q50 -39 50 -118q0 -57 -25 -131q155 202 305 244q27 7 50 7
q57 0 79 -43z" />
    <glyph glyph-name="afii10040" unicode="&#x426;" horiz-adv-x="1063" 
d="M909 25q-3 -2 -10.5 -7.5t-19 -11.5t-25.5 -11t-29 -5q-30 0 -45 17t-15 46q0 70 98 231q-19 -19 -38.5 -36.5t-39.5 -33.5q-272 -225 -403 -225q-22 0 -41 8q-46 21 -46 75q0 67 62 138q47 54 161 145q52 42 88 77t58 64q72 94 72 177q0 57 -40 88.5t-109 31.5
q-114 0 -257 -80q-107 -59 -185 -159q-78 -101 -78 -179q0 -30 13 -52q28 -49 101 -49q54 0 124 26q30 11 54 24.5t43 27.5q105 81 139 193q4 17 17 19q6 1 9.5 -4.5t0.5 -14.5q-8 -26 -16 -47.5t-18 -37.5q-19 -32 -48.5 -63t-69.5 -62q-43 -32 -104 -56q-72 -26 -131 -26
q-93 0 -130 63q-30 49 -30 110q0 74 44 148q48 79 137 141q155 109 335 109q119 0 175 -46q48 -38 48 -112q0 -91 -65 -191q-19 -28 -44.5 -58.5t-59.5 -63.5l-74 -72.5t-43 -46.5q-94 -110 -94 -172q0 -40 37 -40q53 0 184 84q51 32 94 63.5t79 62.5q117 99 178 191
l113.5 172.5l118.5 178.5q6 4 36 14l30 8.5t23 5.5q19 3 21 -2q3 -8 -134 -202l-119.5 -167.5t-42.5 -59.5l-59 -89.5l-59 -89.5q-65 -104 -65 -142q0 -28 30 -28q45 0 80 32q15 14 11 2.5t-11.5 -36t-12.5 -55t7 -55.5q12 -26 10 -50.5t-14 -45t-31.5 -35t-42.5 -20.5
q-16 -6 -31.5 -5.5t-28.5 5t-21.5 12t-10.5 16.5q-13 27 4 73q13 26 36 40l8.5 5t8.5 3q20 8 32.5 -1t12.5 -30q0 -10 -9 -14q-8 -4 -8 5q-10 33 -41 21q-6 -4 -12 -10.5t-11 -18.5q-16 -32 -2 -58q6 -14 17 -17t31 2q7 3 13 6.5t12 8.5q11 8 18.5 18t12.5 23q8 15 9.5 28.5
t-0.5 25.5q-5 15 -3.5 32t6.5 34t12 33z" />
    <glyph glyph-name="afii10041" unicode="&#x427;" horiz-adv-x="969" 
d="M993 488l104.5 157l86.5 129q6 4 36 14l30 8.5t23 5.5q19 3 21 -2q3 -8 -134 -202l-119.5 -167.5t-42.5 -59.5l-59 -89.5l-59 -89.5q-65 -104 -65 -142q0 -28 30 -28q45 0 80 32q13 13 21 8q9 -5 0 -17t-27.5 -25t-44 -22t-49.5 -8q-30 0 -45 17t-15 46q0 70 98 231
l19.5 27l26 35l25.5 34.5l18.5 25.5t5.5 9t-15 -15l-71.5 -77.5t-54.5 -48.5t-48.5 -26.5t-53.5 -10.5q-22 -2 -40 5q-49 16 -67 66q-11 31 -8 64t19 68q8 17 22 38.5t34 48.5q18 24 30 42t18.5 34t9.5 32.5t3 37.5q0 57 -40 88.5t-109 31.5q-114 0 -257 -80
q-107 -59 -185 -159q-78 -101 -78 -179q0 -30 13 -52q28 -49 101 -49q54 0 124 26q30 11 54 24.5t43 27.5q105 81 139 193q4 17 17 19q6 1 9.5 -4.5t0.5 -14.5q-8 -26 -16 -47.5t-18 -37.5q-19 -32 -48.5 -63t-69.5 -62q-43 -32 -104 -56q-72 -26 -131 -26q-93 0 -130 63
q-30 49 -30 110q0 74 44 148q48 79 137 141q155 109 335 109q47 0 85 -7.5t66.5 -25.5t47 -47.5t26.5 -72.5q0 -23 -0.5 -43.5t-5 -43t-13.5 -50.5t-25 -65q-48 -108 -30 -165q13 -37 47 -34q25 2 59.5 24t81.5 67q35 33 64.5 64t52.5 63z" />
    <glyph glyph-name="afii10042" unicode="&#x428;" horiz-adv-x="1466" 
d="M1305 292q-33 -39 -69 -72q-245 -233 -378 -239q-11 0 -21.5 2t-20.5 5q-48 18 -54 73q-9 66 46 139l34.5 49.5t47.5 57.5l-23 -22l-29 -26l-29 -25l-24 -20q-272 -225 -403 -225q-22 0 -41 8q-46 21 -46 75q0 67 62 138q47 54 161 145q52 42 88 77t58 64q72 94 72 177
q0 57 -40 88.5t-109 31.5q-114 0 -257 -80q-107 -59 -185 -159q-78 -101 -78 -179q0 -30 13 -52q28 -49 101 -49q54 0 124 26q30 11 54 24.5t43 27.5q105 81 139 193q4 17 17 19q6 1 9.5 -4.5t0.5 -14.5q-8 -26 -16 -47.5t-18 -37.5q-19 -32 -48.5 -63t-69.5 -62
q-43 -32 -104 -56q-72 -26 -131 -26q-93 0 -130 63q-30 49 -30 110q0 74 44 148q48 79 137 141q155 109 335 109q119 0 175 -46q48 -38 48 -112q0 -91 -65 -191q-19 -28 -44.5 -58.5t-59.5 -63.5l-74 -72.5t-43 -46.5q-94 -110 -94 -172q0 -40 37 -40q53 0 184 84
q51 32 94 63.5t79 62.5q82 69 142 134.5t113 132.5l105 137t117 148q6 4 36 14l30 8.5t23 5.5q19 3 21 -2q0 -2 -12 -17.5l-32.5 -40.5l-47.5 -57.5l-55.5 -68l-56 -71.5l-50.5 -68l-192 -253q-42 -57 -56 -103t-11 -77q4 -39 42 -39q53 3 174 91q47 33 86.5 66t71.5 65
q53 51 97.5 105.5t70.5 102.5l56.5 82l58 79.5l59.5 81l60 86.5q6 4 36 14l30 8.5t23 5.5q19 3 21 -2q1 -2 -10 -15.5l-31 -38.5l-48 -61.5l-62 -84.5l-66 -93.5l-43.5 -63.5l-24 -37t-8.5 -13q-15 -23 -30 -48.5l-30.5 -52l-30.5 -52.5t-30 -48q-65 -104 -65 -142
q0 -28 30 -28q45 0 80 32q13 13 21 8q9 -5 0 -17t-27.5 -25t-44 -22t-49.5 -8q-30 0 -45 17t-15 46q0 35 25.5 96.5t74.5 142.5z" />
    <glyph glyph-name="afii10043" unicode="&#x429;" horiz-adv-x="1470" 
d="M1359 22q-19 -13 -44.5 -23t-49.5 -9q-30 0 -45 17t-15 46q0 35 25.5 96.5t74.5 142.5q-33 -39 -69 -72q-245 -233 -378 -239q-11 0 -21.5 2t-20.5 5q-48 18 -54 73q-9 66 46 139l34.5 49.5t47.5 57.5l-23 -22l-29 -26l-29 -25l-24 -20q-272 -225 -403 -225q-22 0 -41 8
q-46 21 -46 75q0 67 62 138q47 54 161 145q52 42 88 77t58 64q72 94 72 177q0 57 -40 88.5t-109 31.5q-114 0 -257 -80q-107 -59 -185 -159q-78 -101 -78 -179q0 -30 13 -52q28 -49 101 -49q54 0 124 26q30 11 54 24.5t43 27.5q105 81 139 193q4 17 17 19q6 1 9.5 -4.5
t0.5 -14.5q-8 -26 -16 -47.5t-18 -37.5q-19 -32 -48.5 -63t-69.5 -62q-43 -32 -104 -56q-72 -26 -131 -26q-93 0 -130 63q-30 49 -30 110q0 74 44 148q48 79 137 141q155 109 335 109q119 0 175 -46q48 -38 48 -112q0 -91 -65 -191q-19 -28 -44.5 -58.5t-59.5 -63.5
l-74 -72.5t-43 -46.5q-94 -110 -94 -172q0 -40 37 -40q53 0 184 84q51 32 94 63.5t79 62.5q82 69 142 134.5t113 132.5l105 137t117 148q6 4 36 14l30 8.5t23 5.5q19 3 21 -2q0 -2 -12 -17.5l-32.5 -40.5l-47.5 -57.5l-55.5 -68l-56 -71.5l-50.5 -68l-192 -253
q-42 -57 -56 -103t-11 -77q4 -39 42 -39q53 3 174 91q47 33 86.5 66t71.5 65q53 51 97.5 105.5t70.5 102.5l56.5 82l58 79.5l59.5 81l60 86.5q6 4 36 14l30 8.5t23 5.5q19 3 21 -2q1 -2 -10 -15.5l-31 -38.5l-48 -61.5l-62 -84.5l-66 -93.5l-43.5 -63.5l-24 -37t-8.5 -13
q-15 -23 -30 -48.5l-30.5 -52l-30.5 -52.5t-30 -48q-65 -104 -65 -142q0 -28 30 -28q23 0 45 9t39 25q16 12 17.5 5t-1 -25.5t-5 -45t4.5 -53.5q6 -24 -1.5 -49t-24 -46.5t-39 -37t-45.5 -19.5q-33 -9 -58.5 -0.5t-28.5 26.5q-12 27 10 72q7 11 17 21t22 16q5 2 8.5 4t8.5 2
q20 7 32.5 -3t10.5 -31q-2 -10 -10 -13q-5 -2 -6.5 -0.5t-1.5 5.5q-7 34 -39 25q-7 -4 -13 -10t-12 -17q-19 -31 -7 -58q5 -15 15.5 -19t30.5 0q14 4 27 13q11 7 19 16.5t15 21.5q8 14 11 27.5t2 25.5q-8 31 4 60t27 53z" />
    <glyph glyph-name="afii10047" unicode="&#x42d;" horiz-adv-x="829" 
d="M860 352q-41 -66 -92 -121.5t-100 -94.5q-113 -92 -241 -138l-24 -8q-83 -28 -190 -28q-152 0 -189 76q-11 27 -11 49q0 72 52 121q28 28 57 28q30 0 30 -28q0 -13 -8.5 -23.5t-20.5 -10.5q1 0 -7 2q-32 11 -56 -21q-20 -29 -20 -66q0 -30 15 -49q25 -34 90 -34
q95 0 236 61q41 18 83.5 40.5t83 48t77.5 52.5q33 25 61 50l-2 1q-21 8 -44 6l-43 -8q-18 -4 -37 -7.5t-33 -7.5q-15 -4 -28 -6.5t-24 -3.5q-33 0 -58.5 16.5t-31.5 45.5q-6 31 19 37q10 3 19 -2t10 -13q2 -8 -3 -12.5t-11 -5.5q-3 0 -8 2.5t-7 2.5q-8 -2 -5 -11
q5 -14 20 -25q19 -14 44 -10q10 1 59 17q44 16 74 17q43 4 101 -22q70 67 123 142q55 78 71 168q18 103 -13 167q-46 91 -199 54q-62 -13 -122 -47q-113 -63 -165 -151q-51 -86 -18 -147q8 -19 22 -33q44 -33 112 -17q48 12 99 44q43 29 72 68q16 22 25 15q15 -7 -2 -29
q-31 -40 -84 -73q-57 -39 -116 -54q-83 -21 -143 21q-35 26 -52 59q-37 75 8 162q46 87 150 146q81 46 160 62q83 22 154 11q46 -7 75.5 -28.5t52.5 -54.5q21 -31 28 -69t5 -78t-11.5 -79.5t-21.5 -74t-25 -61t-22 -40.5z" />
    <glyph glyph-name="afii10048" unicode="&#x42e;" horiz-adv-x="1701" 
d="M1701 815q42 -15 66.5 -68.5t24.5 -129.5q0 -198 -139 -380q-95 -124 -211.5 -197.5t-217.5 -73.5q-73 0 -126 40q-75 56 -75 177q0 97 42 194q-70 16 -141 26q-91 -163 -231 -288q-111 -100 -241 -153q-119 -49 -225 -49q-146 0 -194 84q-19 34 -19 71q0 87 100 182
q79 74 173 117q-13 29 -13 66q0 70 43 146q46 81 129 144q80 61 179 96q95 34 183 34q103 0 159 -47q46 -38 46 -122q0 -112 -77 -258q71 -11 140 -26q27 58 70 115q162 220 326 275q16 5 22 0q10 -7 -16 -16q-43 -14 -114 -70q-104 -80 -175 -189q-41 -62 -63 -127
q11 -2 22 -5q31 -9 82 -27q20 -9 16 -21q-2 -6 -10 -9q-9 -2 -17.5 2.5t-84.5 31.5l-15 4q-19 -66 -19 -133q0 -144 86 -191q40 -22 90 -22q171 0 347 224q143 182 143 375q0 69 -20.5 116.5t-55.5 58.5q-19 7 -40 7q-100 0 -207 -159q-57 -86 -57 -159q0 -44 23 -57
q14 -7 30 -7q66 0 124 90q16 24 24 19q13 -6 0 -29q-20 -37 -66 -71q-52 -39 -99 -39q-26 0 -47 13q-44 26 -44 97q0 65 36 127q49 85 130 142t155 57q26 0 49 -8zM930 799q-36 22 -95 22q-69 0 -151.5 -28.5t-143.5 -70.5q-84 -59 -136 -146.5t-52 -159.5q0 -12 2 -24
q171 54 383 51q34 49 46 103q4 15 14 16q4 0 7 -5q2 -6 0 -18q-7 -48 -36 -97q60 -2 134 -11q84 147 84 250q0 81 -56 118zM888 408q-69 8 -137 10q-28 -39 -69 -71q-95 -74 -217 -74q-107 0 -163 68q-32 -14 -61 -31q-80 -47 -133 -107q-59 -66 -59 -120q0 -25 14 -46
q34 -51 137 -51q119 0 274.5 64t252.5 155q88 83 161 203zM717 418q-201 -2 -355 -54q27 -63 118 -63q99 0 181 63q31 25 56 54z" />
    <glyph glyph-name="afii10049" unicode="&#x42f;" horiz-adv-x="1179" 
d="M974 610q1 45 -11 96q-17 34 -35.5 53t-38 28t-39.5 11t-40 2q-66 0 -118.5 -29t-88.5 -74.5t-55 -101t-18.5 -109t21 -98.5t63 -68.5t108.5 -20t158 47.5q42 60 67 125.5t27 137.5zM979 367l-40.5 -17l-24.5 -10q-13 -17 -38 -43.5t-58 -57.5l-72 -64.5t-79 -64.5
t-79.5 -57.5t-74.5 -43.5q-182 -89 -321 -87q-80 0 -132 33q-43 29 -56 66q-6 26 -1 60q4 22 14 45t23.5 43t29.5 36t33 25q18 13 40 11q40 0 40 -30q-2 -19 -15 -32.5t-32 -13.5q-23 1 -25 18q-1 9 -6 11q-6 1 -16 -6t-24 -30q-10 -14 -15 -27.5t-8 -27.5q-3 -24 1 -41
q14 -68 130 -69q108 -1 268 56q52 19 108 46t110 61t104.5 74t92.5 85q-58 -24 -103 -31.5t-80.5 -5t-62 13.5t-48.5 25q-38 22 -64.5 54t-40.5 71.5t-14.5 85t14.5 93.5q31 94 101.5 145t172.5 68q92 16 156.5 -14t93.5 -94t18 -156.5t-70 -201.5l44 19l153 65l-60 -117
l-16 -31.5l-15 -29.5q-69 -141 -69 -209q0 -58 53 -58q48 0 81 39q7 10 13 8q10 -2 -2.5 -19t-41.5 -33q-34 -19 -67 -19q-18 0 -39 8q-62 32 -62 96q0 54 34 134q13 29 42 82l27.5 47l23.5 38z" />
    <glyph glyph-name="afii10065" unicode="&#x430;" horiz-adv-x="469" 
d="M521 160q11 -1 -81 -70q-132 -98 -183 -91q-54 7 -54 62q0 13 4 27q-80 -92 -139 -89q-62 3 -62 76q0 68 64 149t152 134q81 47 137 47q24 0 38 -11t11 -34q23 23 28 27t14 5q10 2 16 0q6 -1 3 -6l-112 -165q-71 -110 -77 -157q-5 -30 17 -30q38 0 140 83q91 73 68 61
q4 5 11 5q12 0 5 -23zM373 318q12 15 12 35q0 30 -29 30q-31 0 -79 -31q-52 -33 -100 -88q-108 -122 -108 -202q0 -34 23 -34q26 0 82 54q47 45 85 96q48 64 114 140z" />
    <glyph glyph-name="afii10066" unicode="&#x431;" horiz-adv-x="417" 
d="M301 110q-23 -22 -46 -41t-47 -34q39 11 77 26.5t71 41.5q100 81 84 69q8 8 14 8q11 0 11 -10q0 -6 -4 -10q-14 -15 -39.5 -40t-65 -50.5t-93 -45t-121.5 -23.5q-43 -16 -74 -16q-74 0 -74 72q0 58 53 137q58 84 148 147q89 62 156 62q45 0 63 -28q9 29 22.5 61.5
t26.5 70.5q25 71 56.5 110t69 58.5t78.5 25.5l85 12t89 18.5t90 44.5q25 26 36.5 28t14.5 -8t0.5 -26t-6.5 -25q-17 -43 -45.5 -57.5t-70 -17.5t-97 -3t-125.5 -12q-9 -2 -24.5 -8.5t-33.5 -20t-36 -33.5t-32 -47q-23 -44 -45.5 -102.5t-42.5 -130.5q-3 -26 -15 -52.5
t-29 -53t-38 -51zM355 224q37 62 37 106q0 46 -41 46q-45 0 -111 -51q-65 -50 -115 -123q-52 -76 -52 -129q0 -46 42 -46q30 0 64 19.5t67 49t61.5 64t47.5 64.5z" />
    <glyph glyph-name="afii10067" unicode="&#x432;" horiz-adv-x="441" 
d="M505 169q-7 -13 -30 -31l-62 -47q-60 -46 -108 -46q-17 0 -36 5q-70 -61 -131 -61q-35 0 -63 22q-31 24 -31 82q0 75 51 194q47 110 119 217q91 135 182.5 226.5t139.5 91.5q24 0 24 -22q0 -39 -70 -147q-60 -94 -140 -191q-137 -166 -238 -246q-17 -51 -17 -88
q0 -65 55 -65q26 0 60 18q-34 32 -34 76q0 68 63 146.5t126 78.5q16 0 30 -7q29 -15 29 -58q0 -54 -39 -127t-94 -120q8 -1 17 -1q40 0 89 38q87 66 85 72q6 7 12 7t10 -6.5t1 -10.5zM510 769q-28 0 -94 -69q-76 -79 -165 -215q-78 -117 -120 -219q91 82 197 211
q192 236 192 283q0 9 -10 9zM363 361q-27 0 -62.5 -28.5t-63.5 -74.5q-33 -54 -33 -98q0 -38 29 -64q29 20 56 48q32 33 65 92q36 64 36 98q0 27 -27 27z" />
    <glyph glyph-name="afii10068" unicode="&#x433;" horiz-adv-x="386" 
d="M33 185q11 18 33.5 45t49 55.5t52.5 53.5t45 37q27 17 47 25.5t37 8.5q29 0 45.5 -10.5t18.5 -39.5q1 -29 -13 -55.5t-57 -63.5q-40 -42 -62 -68t-33 -44t-13.5 -32t-2.5 -31q0 -9 2.5 -20.5t16.5 -9.5q37 4 125 73l32 25.5l27 22.5t25 22.5t26 26.5q7 10 17 10q8 0 9 -7
q2 -8 -6 -16q-10 -12 -20 -22.5t-21.5 -20.5l-26.5 -22l-35 -27q-131 -100 -183 -101q-29 0 -52 16.5t-25 45.5q0 15 3 29.5t11 30t22 32t36 34.5q63 54 99 102.5t39 81.5q1 9 -5 14.5t-20 3.5q-11 -2 -31 -15t-40 -31q-51 -45 -87.5 -86t-67.5 -90z" />
    <glyph glyph-name="afii10069" unicode="&#x434;" horiz-adv-x="457" 
d="M503 170q21 4 -102 -90q-78 -60 -187 -99q-74 -116 -134 -194t-129 -120q-58 -35 -102 -35q-45 0 -45 42q0 34 28.5 81.5t78.5 92.5q94 82 256 141q31 60 49 101q-86 -94 -147 -91q-62 3 -62 76q0 68 64 149t152 134q81 47 137 47q24 0 38 -11t11 -34q23 23 28 27t14 5
q10 2 16 0q6 -1 3 -6q-14 -20 -234 -370q102 43 155 84q94 72 93 84q6 6 19 -14zM374 318q12 15 12 35q0 30 -29 30q-31 0 -79 -31q-52 -33 -100 -88q-108 -122 -108 -202q0 -34 23 -34q26 0 82 54q47 45 85 96q48 64 114 140zM152 -41q-127 -49 -207 -118
q-39 -35 -66 -77.5t-27 -70.5q0 -29 25 -29q29 0 77 34q53 39 97.5 97t100.5 164z" />
    <glyph glyph-name="afii10070" unicode="&#x435;" horiz-adv-x="379" 
d="M454 192q10 -8 -5 -26q-8 -14 -104 -90q-126 -89 -227 -89q-38 0 -64 16q-41 26 -41 80q0 89 95 187q58 59 129 97t119 38q45 0 45 -27t-46 -78q-41 -44 -86 -76q-77 -55 -163 -73q-10 -31 -10 -55q0 -38 25 -56q22 -15 52 -15q66 0 157 65q79 65 99 91q17 18 25 11z
M360 383q-27 0 -78 -30q-54 -32 -100 -79q-39 -40 -65 -97q68 18 137 66q44 31 83.5 71t39.5 58q0 11 -17 11z" />
    <glyph glyph-name="afii10072" unicode="&#x436;" horiz-adv-x="975" 
d="M500 109l-41 -74l117 100q4 3 17 14l30 25q11 24 28 50q48 73 126 124q73 49 126 49t53 -49q0 -35 -31 -80q-3 -5 -11 -5q-9 1 -22 9t-16 13q-2 7 6.5 12t21.5 22q15 21 15 35q0 20 -25 20q-31 0 -72 -32q-48 -35 -90 -99q-50 -76 -50 -140q0 -80 65 -80q66 0 164 74
q92 76 105 99q11 13 21 6t-1 -21q-7 -21 -121 -108q-111 -80 -189 -80q-14 0 -29 3q-93 14 -93 99q0 19 5 39l-66.5 -55t-93.5 -73q-13 -9 -24 -12t-20 -2.5t-16.5 1.5t-12.5 0l206 343l-103 -88q-5 -5 -24.5 -21.5l-41.5 -33.5q-8 -15 -17 -28q-23 -36 -58 -66t-74 -56
q-37 -25 -75 -37.5t-64 -12.5q-53 0 -53 49q0 36 31 80q3 5 11 5q9 -1 22 -9t16 -13q2 -7 -6.5 -12t-21.5 -22q-15 -21 -15 -35q0 -20 25 -20q20 0 46.5 13t52 33t48 42.5t35.5 42.5q50 77 50 140q0 80 -65 80q-17 0 -40.5 -14t-47 -32.5t-43 -36.5t-27.5 -26
q-17 -16 -38.5 -34.5t-46.5 -47.5q-11 -14 -21 -6q-12 8 1 21q28 26 63.5 63t74 70t76 55t70.5 18q7 -1 14 -1t15 -2q93 -14 93 -99q0 -28 -12 -61l17 17t17 16l19.5 17l31.5 28l40 34t47 35q10 7 17.5 8t14 0.5l13 -1t14.5 2.5z" />
    <glyph glyph-name="afii10073" unicode="&#x437;" horiz-adv-x="408" 
d="M469 168q-6 -12 -84 -81q-97 -87 -164 -114q-70 -116 -172 -222q-124 -129 -199 -129q-47 0 -46 36q0 69 149 186q99 77 247 146q19 24 19 53q0 11 -7 17q-95 -77 -159 -77q-40 0 -40 29q0 19 23.5 41.5t57.5 35.5q38 14 75 14q29 0 52 -8q48 43 92 127q27 51 27 83
q0 38 -38 42q-36 3 -133 -71q-41 -31 -125 -114q-14 -14 -25 -5q-10 6 4 20q26 27 131 118q128 101 198 101q56 0 56 -48q0 -50 -66 -144q-55 -79 -105 -123q11 -8 11 -33q0 -23 -10 -39q56 29 139 104q68 62 73 69q9 11 19 4q9 -7 0 -18zM196 71q-15 7 -35 7q-26 0 -57 -11
q-47 -18 -40 -43q3 -11 19 -11q42 0 113 58zM178 -48q-88 -47 -184 -130q-48 -41 -86 -88q-41 -49 -41 -68q0 -10 13 -10q39 0 148 109q102 101 150 187z" />
    <glyph glyph-name="afii10074" unicode="&#x438;" horiz-adv-x="452" 
d="M502 165q5 -3 -82 -75q-132 -98 -183 -91q-53 7 -54 64q-33 -28 -72 -46q-46 -22 -74 -18q-54 7 -54 65q0 9 2 18q9 49 94 153q121 148 134 155q8 5 19 5q13 1 13 -7q0 -9 -37 -63q-59 -85 -71 -104q-46 -72 -55 -88q-20 -38 -23 -67q-4 -33 18 -33q8 0 18 5
q80 34 197 188l121 164q8 5 19 5q13 1 13 -7q0 -9 -37 -63q-59 -84 -71 -104q-71 -110 -77 -157q-5 -30 17 -30q38 0 140 83q86 76 69 66q4 5 11 5q12 0 12 -10q0 -6 -7 -13z" />
    <glyph glyph-name="afii10075" unicode="&#x439;" horiz-adv-x="452" 
d="M505 162q7 -3 -85 -72q-132 -98 -183 -91q-53 7 -54 64q-33 -28 -72 -46q-46 -22 -74 -18q-54 7 -54 65q0 9 2 18q9 49 94 153q121 148 134 155q8 5 19 5q13 1 13 -7q0 -9 -37 -63q-59 -85 -71 -104q-46 -72 -55 -88q-20 -38 -23 -67q-4 -33 18 -33q8 0 18 5
q80 34 197 188l121 164q8 5 19 5q13 1 13 -7q0 -9 -37 -63q-59 -84 -71 -104q-71 -110 -77 -157q-5 -30 17 -30q38 0 140 83q41 24 72 63q4 5 13.5 5t2.5 -23zM521 579q-16 -35 -58 -72q-53 -45 -106 -46q-55 -2 -76 40q-16 32 -6 71q5 23 18 23q5 0 7 -6t1 -15
q-5 -26 15.5 -49t55.5 -22q37 1 76 25q35 23 50 51q10 19 20 18q9 -1 3 -18z" />
    <glyph glyph-name="afii10076" unicode="&#x43a;" horiz-adv-x="462" 
d="M519 160q-17 -27 -104.5 -95t-164.5 -68q-24 0 -40 14t-16 38q0 21 12 34q35 35 35 53q0 7 -4 13q-8 10 -28 12q-34 -16 -57 -19q-14 -2 -22.5 5.5t-7.5 17.5q3 15 36 18q10 1 29 1q57 20 109 60q99 77 99 115q0 14 -18 14q-41 0 -120 -55q-36 -24 -103 -87
q-71 -66 -99 -103q-47 -65 -99 -130q-9 -2 -23.5 3t-13.5 11q2 16 141 203l189 268q118 169 192 264q58 74 106 74q33 0 33 -35q0 -41 -46 -116q-41 -67 -90 -117q-91 -92 -178 -131l-111 -155l49 42q34 28 67 47q84 50 148 50q48 0 48 -32q0 -57 -137 -148q-42 -28 -85 -48
q37 -7 46 -26q4 -10 4 -21q0 -14 -8 -32l-13 -25q-8 -17 -8 -25q0 -15 23 -14q55 3 153 84q31 23 56 52q9 11 19 11q8 0 8 -8q0 -6 -6 -14zM537 781q-35 0 -155 -184l-85 -127q59 30 132 102q45 44 82 105t37 89q0 15 -11 15z" />
    <glyph glyph-name="afii10077" unicode="&#x43b;" horiz-adv-x="564" 
d="M518 365q17 10 8.5 13.5t-23.5 -3.5q-31 -8 -66 -35.5t-71.5 -66t-72.5 -82l-69 -82t-61 -67.5t-47 -38q-24 -11 -48 -7.5t-43.5 17.5t-32 36t-11.5 48q1 20 8 43t33 46q13 9 28 14t27.5 3.5t20.5 -12t8 -33.5q0 -16 -11.5 -31.5t-34.5 -15.5q-11 0 -19.5 -6t-14.5 -16
q-8 -14 -1.5 -32t22 -29.5t38.5 -10.5t49 27q30 31 64 71.5l69.5 82t72 80t71.5 67t68.5 42t63.5 4.5q3 2 9 2.5t12 0t9.5 -2.5t1.5 -6q-15 -25 -43.5 -65l-68.5 -100q-71 -110 -77 -157q-5 -30 17 -30q12 0 33.5 12t41.5 29q72 57 128 116q7 10 17 10q8 0 9 -7q2 -8 -6 -16
q-41 -51 -121 -111q-43 -37 -81 -54t-61 -14q-54 7 -54 62q0 5 0.5 10.5t1.5 10.5q11 46 94 153l34.5 42l44.5 51l19.5 21.5t14.5 15.5z" />
    <glyph glyph-name="afii10078" unicode="&#x43c;" horiz-adv-x="769" 
d="M40 90q-8 -14 -1.5 -32t22 -29.5t38.5 -10.5t49 27q30 31 64 71.5l69.5 82t72 80t71.5 67t68.5 42t63.5 4.5q6 -2 3 -6q-17 -23 -44.5 -64l-67.5 -101q-35 -55 -58 -96t-30 -64q-5 -17 -1 -26.5t21 4.5q6 6 29 36l57 71t75.5 86t83.5 82.5t81 60t68 17.5q6 -2 3 -6
q-17 -23 -44.5 -64l-67.5 -101q-71 -110 -77 -157q-5 -30 17 -30q12 0 33.5 12t41.5 29q72 57 128 116q7 10 17 10q8 0 9 -7q2 -8 -6 -16q-41 -51 -121 -111q-43 -37 -81 -54t-61 -14q-54 7 -54 62q0 5 0.5 10.5t1.5 10.5q11 46 94 153l34.5 42l44.5 51t40 43
q-32 -16 -69 -49.5t-74.5 -74.5t-73.5 -84.5l-66 -79t-52.5 -59t-32.5 -23.5q-23 -8 -43.5 6.5t-20.5 42.5q0 5 0.5 10.5t1.5 10.5q5 23 28.5 66.5t65.5 97.5l34.5 42l44.5 51l32 34.5t21 20.5q-31 -8 -66 -36t-72.5 -67.5t-74 -84l-70 -84t-62 -69t-47.5 -38.5
q-24 -11 -48 -7.5t-43.5 17.5t-32 36t-11.5 48q1 20 8 43t33 46q13 9 28 14t27.5 3.5t20.5 -12t8 -33.5q0 -16 -11.5 -31.5t-34.5 -15.5q-11 0 -19.5 -6t-14.5 -16z" />
    <glyph glyph-name="afii10079" unicode="&#x43d;" horiz-adv-x="434" 
d="M164 55q-2 40 77 143l-41.5 -13.5t-45 -12t-38 -3t-21.5 15.5l-67.5 -93.5l-71.5 -93.5q-5 -1 -11 0t-12 3t-10 5t-4 6q1 15 141 203l94.5 127.5t39.5 48.5q4 4 25 4q19 1 21 -4q2 -6 -42 -65l-62 -85q8 -6 12 -19q-15 -20 -6 -25.5t28.5 -4t43.5 8.5t39 13l18 22
l116 154q8 5 19 5q13 1 13 -7q0 -9 -37 -63q-59 -84 -71 -104q-71 -110 -77 -157q-5 -30 17 -30q38 0 140 83q91 73 74 63q4 5 11 5q12 0 12 -10q0 -6 -7 -13q5 -3 -87 -72q-132 -98 -183 -91q-53 7 -47 56z" />
    <glyph glyph-name="afii10080" unicode="&#x43e;" horiz-adv-x="464" 
d="M504 164q-26 -45 -91 -62q-30 -8 -52 -8q-35 0 -60 16q-29 -28 -59.5 -51t-61 -39.5t-59.5 -25.5t-53 -9q-74 0 -74 72q0 58 53 137q58 84 148 147q89 62 156 62q74 0 74 -72q0 -58 -53 -137q-11 -16 -23 -31.5t-26 -30.5q22 -13 43 -13q17 0 44 8q58 18 73 49q7 7 14 7
q11 0 11 -10q0 -5 -4 -9zM355 224q37 62 37 106q0 46 -41 46q-45 0 -111 -51q-65 -50 -115 -123q-52 -76 -52 -129q0 -46 42 -46q67 0 162 98q-27 22 -27 49q0 23 20 40q24 18 54 18q20 0 31 -8z" />
    <glyph glyph-name="afii10081" unicode="&#x43f;" horiz-adv-x="434" 
d="M482 170q4 -7 -77 -69q-132 -101 -183 -101q-29 0 -51 16t-24 45q-5 60 83 134q141 117 141 159q0 20 -26 20q-30 0 -91 -40q-98 -66 -148 -133q-71 -101 -150 -203q-9 -2 -23.5 3t-13.5 11q2 16 141 203q122 166 134 176q5 4 25 4q20 1 21 -4q1 -6 -42 -65q90 71 152 71
q57 0 57 -49q0 -47 -48 -102q-123 -140 -131 -192q-1 -9 5 -14.5t20 -3.5q38 5 125 73q72 57 84 74q8 10 17 10q7 0 9 -7q2 -8 -6 -16z" />
    <glyph glyph-name="afii10082" unicode="&#x440;" horiz-adv-x="473" 
d="M517 162q2 -9 -95 -77q-66 -47 -91 -61q-65 -37 -122 -38q-75 -3 -113 25t-49 89l-20.5 -32.5l-17.5 -28.5l-85 -132t-84 -117q-123 -164 -172 -164q-23 0 -23 27q0 80 270 397l77 88.5l112 122.5l54 92.5t21 34.5q6 7 30 6q25 -2 23 -8q-2 -2 -21 -33q64 48 114 48
q18 0 32 -6q35 -17 35 -72q0 -46 -22 -108q-10 -26 -20.5 -49t-22.5 -42q-43 -68 -100 -105q28 0 66 15q60 24 119 71q100 81 84 69q8 8 14 8q11 0 11 -10q0 -6 -4 -10zM316 376q-42 0 -151 -94l-96 -148q-3 -32 8 -61q13 -37 43 -37q60 0 146 117q79 109 79 186
q0 37 -29 37zM54 174q-61 -65 -115 -136l-88 -112.5l-88 -112.5q-77 -103 -77 -126q0 -10 6 -10q25 0 136 147l86 119.5t63 98.5l30 51.5z" />
    <glyph glyph-name="afii10083" unicode="&#x441;" horiz-adv-x="398" 
d="M456 198q10 -7 -1 -21q-7 -21 -123 -104q-111 -80 -189 -80q-14 0 -29 3q-93 14 -93 99q0 57 47.5 129.5t125.5 123.5q73 49 126 49t53 -49q0 -35 -31 -80q-3 -5 -11 -5q-9 1 -22 9t-16 13q-2 7 6.5 12t21.5 22q15 21 15 35q0 20 -25 20q-31 0 -72 -32q-48 -35 -90 -99
q-50 -76 -50 -140q0 -80 65 -80q66 0 164 74q94 72 107 95q11 13 21 6z" />
    <glyph glyph-name="afii10084" unicode="&#x442;" horiz-adv-x="674" 
d="M727 173q-1 -10 -82 -72q-132 -101 -183 -101q-29 0 -51 16t-24 45q-5 60 83 134q141 117 141 159q0 20 -26 20q-30 0 -91 -40q-51 -34 -147 -141q-29 -32 -91 -112q-55 -71 -62.5 -77.5t-31.5 -12t-39 -4.5q-9 1 -10 6q-2 6 161 207l63 77q36 48 36 72q0 23 -28 23
q-43 0 -130 -69q-80 -63 -123 -122q-64 -91 -136 -183q-9 -2 -23.5 3t-13.5 11q2 16 141 203q122 166 134 176q5 4 25 4q20 1 21 -4l-51 -73q109 80 169 80q11 0 23 -2q34 -6 34 -44q0 -27 -17 -56q130 101 192 101q57 0 57 -49q0 -47 -48 -102q-123 -140 -131 -192
q-1 -9 5 -14.5t20 -3.5q38 5 125 73q72 57 89 77q8 10 17 10q7 0 9 -7q2 -8 -6 -16z" />
    <glyph glyph-name="afii10085" unicode="&#x443;" horiz-adv-x="457" 
d="M509 171q15 3 -108 -91q-78 -60 -187 -99q-74 -116 -134 -194t-129 -120q-58 -35 -102 -35q-45 0 -45 42q0 34 28.5 81.5t78.5 92.5q94 82 256 141l53 109q-24 -24 -37 -35q-33 -28 -73 -46q-45 -22 -73 -18q-54 7 -54 63q0 10 2 20q9 49 94 153q121 148 134 155
q8 5 19 5q13 1 13 -7q0 -9 -37 -63q-59 -84 -71 -104q-71 -110 -77 -157q-5 -30 17 -30q7 0 18 4q84 30 194 179q99 134 149 171q4 3 13 4q10 2 16 0q6 -1 3 -6q-14 -20 -234 -370q102 43 155 84q94 72 99 85q6 6 17 0q9 -5 2 -14zM152 -41q-127 -49 -207 -118
q-39 -35 -66 -77.5t-27 -70.5q0 -29 25 -29q29 0 77 34q53 39 97.5 97t100.5 164z" />
    <glyph glyph-name="afii10086" unicode="&#x444;" horiz-adv-x="786" 
d="M630 110q-6 4 -12 9q-37 -39 -82 -72q-86 -62 -153 -62q-65 0 -76 55l-4 -7l-82.5 -154l-113.5 -213q-20 -8 -45 -15.5t-56 -15.5q-13 0 -13 7q-1 7 9 13q20 14 41 45q5 9 62.5 103.5l166.5 274.5l-26 -20q-30 -23 -60.5 -39.5t-59.5 -25.5t-53 -9q-74 0 -74 72
q0 58 53 137q58 84 148 147q89 62 156 62q64 0 73 -54l40 76l58 -3l-59 -98q4 3 7 6q30 23 59.5 39.5t58 25.5t52.5 9q74 0 78 -72q2 -52 -36 -120q-21 -64 -35 -79q22 -13 43 -13q17 0 44 8q58 18 73 49q7 7 14 7q11 0 11 -10q0 -5 -4 -9q-26 -45 -91 -62q-30 -8 -52 -8
q-35 0 -60 16zM397 329q0 46 -41 46q-45 0 -111 -51q-65 -50 -115 -123q-52 -76 -52 -129q0 -46 42 -46q67 0 162 98l76 97q3 5 6 9t5 9q28 52 28 90zM358 139l-9 -18q-13 -35 -11 -63q2 -46 43 -46q45 0 109 51q51 41 92 97q-3 7 -3 14q0 23 20 40q11 8 23 12q24 51 23 89
q-3 46 -45 46q-66 0 -185 -127z" />
    <glyph glyph-name="afii10087" unicode="&#x445;" horiz-adv-x="514" 
d="M545 150q23 14 -89 -71.5t-183 -85.5q-59 0 -59 56q0 19 7 43q-89 -97 -165 -97q-52 0 -52 52q0 30 19.5 50t42.5 20q24 0 24 -22q0 -18 -12 -24q-18 -8 -26 4q-3 4 -8 2q-15 -5 -15 -31q0 -29 24 -29q22 0 60 32.5t75.5 82t63.5 115.5q23 60 23 95q0 22 -12 22
q-10 0 -30 -18.5l-40 -38.5l-117 -112q-4 -4 -10 -4q-10 0 -10 10q0 7 6 15l114 108q82 79 121 72q35 -6 35 -68q0 -25 -7 -53q97 125 167 125q47 0 47 -43q0 -35 -26 -63q-29 -30 -52 -20q-15 7 -15 21q0 23 21 23q11 0 14.5 -7.5t9.5 -5.5q10 5 17.5 20.5t7.5 27.5
q0 23 -25 23q-77 0 -195 -183q-56 -88 -56 -138q0 -28 16 -35q8 -4 19 -4q59 0 163 77q41 30 93 78q-18 -22 -6 -8q9 12 20 4q9 -6 0 -17z" />
    <glyph glyph-name="afii10088" unicode="&#x446;" horiz-adv-x="463" 
d="M504 161q8 -2 -84 -71q-34 -25 -62 -43q-5 -10 -10 -23t-9 -27.5t-4.5 -29.5t4.5 -28q8 -24 3.5 -45t-16.5 -37t-30 -26.5t-38 -13.5q-14 -4 -27.5 -2t-24 7.5t-17.5 13t-8 15.5q-7 24 10 64q15 21 35 31q5 2 7 3.5t7 1.5q19 5 29 -4.5t8 -28.5q-2 -9 -9 -10
q-3 -2 -5 -0.5t-1 5.5q-6 29 -33 23q-6 -3 -12 -8t-11 -15q-17 -26 -7 -50q4 -14 13 -17.5t27 -1.5q6 2 11.5 3.5t11.5 6.5q18 11 30 32q8 12 11 23.5t2 22.5q-5 25 5.5 51t22.5 48q-64 -36 -96 -32q-53 7 -54 64q-33 -28 -72 -46q-46 -22 -74 -18q-54 7 -54 65q0 9 2 18
q9 49 94 153q121 148 134 155q8 5 19 5q13 1 13 -7q0 -9 -37 -63q-59 -85 -71 -104q-46 -72 -55 -88q-20 -38 -23 -67q-4 -33 18 -33q8 0 18 5q80 34 197 188l121 164q8 5 19 5q13 1 13 -7q0 -9 -37 -63q-59 -84 -71 -104q-71 -110 -77 -157q-5 -30 17 -30q38 0 140 83
q91 73 71 62q4 5 11 5q12 0 12 -10q0 -6 -7 -13z" />
    <glyph glyph-name="afii10089" unicode="&#x447;" horiz-adv-x="375" 
d="M434 177q3 -2 -93 -80q-120 -97 -207 -101q-82 -3 -82 51q0 51 69 106q31 24 68 47q42 25 58 37q51 38 47 62q-3 14 -20 25q-18 8 -35 17q-12 6 -22 16l-79 -96q-59 -69 -90 -95q-11 -9 -19 -9q-9 0 -10 7q-1 8 9 16q20 17 97 105q68 78 72 97q-8 16 -4 33q9 33 34 33
q29 0 24 -34q-3 -16 -17 -32q2 -5 22 -17.5t41 -22.5q26 -18 23 -47q-4 -35 -63 -100l-103 -110q-27 -32 -20 -54q2 -5 9 -6q22 -4 74 21t106 67q72 55 88 76q7 8 15 8q12 0 12 -11q0 -4 -4 -9z" />
    <glyph glyph-name="afii10090" unicode="&#x448;" horiz-adv-x="679" 
d="M205 69q-32 -34 -71 -52q-46 -22 -74 -18q-54 7 -54 65q0 9 2 18q9 49 94 153q121 148 134 155q8 5 19 5q13 1 13 -7q0 -9 -37 -63q-59 -85 -71 -104q-46 -72 -55 -88q-20 -38 -23 -67q-4 -33 18 -33q8 0 18 5q54 23 126 114q11 17 28 39.5l34 43.5q121 148 134 155
q8 5 19 5q13 1 13 -7q0 -10 -37 -63l-47 -68.5t-24 -35.5q-45 -70 -55 -88q-20 -38 -23 -67q-5 -33 18 -33q6 0 18 5q81 35 197 188l59 81l62 83q8 5 19 5q13 1 13 -7q0 -10 -37 -63q-60 -86 -71 -104q-71 -110 -77 -157q-5 -30 17 -30q37 0 140 83q90 72 83 72q5 5 11 5
q12 0 12 -10q0 -6 -7 -13q-3 -11 -96 -81q-133 -98 -183 -91q-53 8 -54 64q-32 -27 -72 -46q-46 -22 -74 -18q-33 5 -43.5 27.5t-8.5 55.5z" />
    <glyph glyph-name="afii10091" unicode="&#x449;" horiz-adv-x="679" 
d="M535 18q-45 -22 -71 -19q-52 7 -54 64q-30 -26 -72 -46q-46 -22 -74 -18q-33 5 -43.5 27.5t-8.5 55.5l-7 -13q-30 -33 -71 -52q-46 -22 -74 -18q-54 7 -54 65q0 5 0.5 9t1.5 9q9 50 94 153q121 148 134 155q8 5 19 5q13 1 13 -7q0 -10 -37 -63l-47 -68.5t-24 -35.5
q-45 -70 -55 -88q-20 -38 -23 -67q-5 -33 18 -33q6 0 18 5q54 22 126 114q11 17 28 39.5l34 43.5q121 148 134 155q8 5 19 5q13 1 13 -7q0 -11 -37 -63l-47 -68.5t-24 -35.5l-36.5 -57t-18.5 -31q-20 -38 -23 -67q-5 -33 18 -33q5 0 18 5q81 35 197 188l59 81l62 83
q8 5 19 5q13 1 13 -7q0 -11 -37 -63q-61 -87 -71 -104q-71 -110 -77 -157q-5 -30 17 -30q36 0 140 83q89 71 81 70q5 5 11 5q12 0 12 -10q0 -6 -7 -13q-1 -9 -94 -79l-43.5 -31t-39.5 -25q-2 -2 -14.5 -7.5t-14.5 -8.5zM534 24l17 23q14 10 10 0.5l-13 -30t-15.5 -47
t1.5 -49.5q8 -24 3.5 -45t-16.5 -37t-30 -26.5t-38 -13.5q-14 -4 -27.5 -2t-24 7.5t-17.5 13t-8 15.5q-7 24 10 64q15 21 35 31q5 2 7 3.5t7 1.5q19 5 29 -4.5t8 -28.5q-2 -9 -9 -10q-3 -2 -5 -0.5t-1 5.5q-6 29 -33 23q-6 -3 -12 -8t-11 -15q-17 -26 -7 -50q4 -14 13 -17.5
t27 -1.5q6 2 11.5 3.5t11.5 6.5q18 11 30 32q8 12 11 23.5t2 22.5q-3 14 -0.5 29t8.5 29t13 27.5z" />
    <glyph glyph-name="afii10092" unicode="&#x44a;" horiz-adv-x="474" 
d="M269 79q-22 23 -24 47.5t8.5 47.5t30.5 42t43 30.5t45.5 14t38.5 -7.5q18 -11 20 -26t-8 -35t-32 -46l-52 -59q-5 -3 12 -0.5t43.5 13.5t56.5 31t50 51q3 4 5 4.5t4 0.5q4 0 6 -5.5t0 -7.5q-2 -5 -9 -14.5t-17 -20.5t-22.5 -22.5t-26.5 -19.5q-26 -14 -58 -26t-64 -3
q-23 -21 -42.5 -34.5t-37.5 -21.5t-36.5 -12.5t-39.5 -8.5q-80 -12 -92 41q-12 51 42 114q12 14 25.5 27t29.5 27l29.5 24t36 31t29.5 31t11 24q-2 10 -9 16t-15.5 10.5t-17.5 8.5t-15 12l-33.5 -40.5l-45.5 -55.5q-60 -71 -90 -95q-11 -9 -19 -9q-9 0 -10 7q-2 8 9 16
q10 8 34.5 34t62.5 71q68 78 72 97q-8 18 -4 33q9 33 34 33q28 0 24 -34q-3 -14 -17 -32q2 -5 12 -12t31 -17q26 -18 23 -47q-2 -18 -20.5 -46.5t-41.5 -60.5l-45 -63t-31 -54q-8 -19 -11 -32t3 -24q3 -5 11 -5q12 -1 26 3.5t28.5 13t27.5 19t22 22.5zM294 98q2 -1 12.5 8.5
t23 23.5t25.5 31t21 32t9 26.5t-11 14.5q-15 4 -39 -7t-43 -37q-20 -26 -19.5 -54t21.5 -38z" />
    <glyph glyph-name="afii10093" unicode="&#x44b;" horiz-adv-x="634" 
d="M705 181l-18.5 -22.5t-16.5 -19t-22.5 -21t-36.5 -28.5q-133 -98 -183 -91q-54 7 -54 62q0 5 0.5 10.5t1.5 10.5q3 16 15 38q-15 -9 -33.5 -17t-38 -14t-39 -8.5t-37.5 0.5q-42 -33 -85.5 -53.5t-74.5 -20.5q-24 -4 -39.5 2.5t-24 19.5t-10 31.5t1.5 39.5q5 22 25.5 57
t63.5 88l34.5 41l44.5 50q46 48 60 58q4 2 13 4q10 1 16 0q6 -2 3 -6l-44.5 -63l-68.5 -97l-24 -38.5l-18 -30.5l-13.5 -23.5t-18 -39t-7 -37t18.5 -17.5q13 -1 28 3.5t29.5 12.5t27.5 18.5t23 22.5q-26 23 -30.5 47.5t4.5 47.5t29 42t44 30.5t48.5 14t42.5 -7.5
q39 -23 19.5 -65.5t-89.5 -106.5l-2 -2q10 1 28 5.5t39.5 13.5t44.5 22t43 31q19 27 45 60l34.5 42l44.5 51q45 50 59 60q4 2 13 4q10 1 16 0q6 -2 3 -6q-17 -23 -44.5 -64l-67.5 -101q-71 -110 -77 -157q-5 -30 17 -30q37 0 140 83q23 18 35.5 29.5t20 20t12.5 15.5t13 17
q5 5 11 5q12 0 12 -10q0 -6 -7 -13zM229 122q2 -1 12 8.5t22.5 23.5t25 31t20 32t7 26.5t-13.5 14.5q-16 5 -41 -6.5t-42 -37.5q-20 -26 -17 -54t27 -38zM232 83q-2 0 -3 1q0 -3 3 -1z" />
    <glyph glyph-name="afii10094" unicode="&#x44c;" horiz-adv-x="407" 
d="M290 95q21 1 50.5 11t59 31.5t43.5 57.5q2 5 4 5h5q5 0 7.5 -5.5t0.5 -7.5q-4 -9 -15.5 -30.5t-37.5 -41.5q-10 -8 -29.5 -16.5t-42.5 -15t-48 -9.5q-16 -1 -30 0q-15 -12 -31 -22q-26 -16 -52 -27.5t-49.5 -17.5t-41.5 -6q-24 -4 -39.5 2.5t-24 19.5t-10 31.5t1.5 39.5
q5 22 25.5 57t63.5 88l34.5 41l44.5 50q46 48 60 58q4 2 13 4q10 1 16 0q6 -2 3 -6l-44.5 -63l-68.5 -97l-24 -38.5l-18 -30.5l-13.5 -23.5t-18 -39t-7 -37t18.5 -17.5q13 -1 28 3.5t29.5 12.5t27.5 18.5t23 22.5q-26 23 -30 48t5.5 48t29.5 42t43.5 30t47 12t39.5 -12
q13 -11 16 -29t-4.5 -41.5t-26.5 -50.5q-16 -24 -42 -49h8zM229 116q2 -1 12 8.5t22.5 23.5t25 31t20 32t7 26.5t-13.5 14.5q-16 5 -41 -6.5t-42 -37.5q-20 -26 -17 -54t27 -38z" />
    <glyph glyph-name="afii10095" unicode="&#x44d;" horiz-adv-x="476" 
d="M428 215l-6.5 -10l-9.5 -15l-9.5 -15l-6.5 -10q-23 -36 -58 -66t-74 -56l-16 -10t-16 -9q15 0 31 2.5t30 7.5q30 11 60 29.5t59 41.5q100 81 84 69q8 8 14 8q11 0 11 -10q0 -6 -4 -10q-30 -30 -66.5 -61t-78 -54.5t-88.5 -36t-98 -6.5q-36 -11 -61 -11q-53 0 -53 49
q0 36 31 80q3 5 11 5q9 -1 22 -9t16 -13q2 -7 -6.5 -12t-21.5 -22q-15 -21 -15 -35q0 -20 25 -20q20 0 46.5 13t52 33t48 42.5t35.5 42.5q7 10 14 22q-11 -2 -31.5 -7t-35.5 -10q-17 -5 -33 -7q-23 -1 -39.5 11t-23.5 27.5t-4.5 29.5t16.5 18q16 4 21 -14q0 -5 -2.5 -10
t-8.5 -5q-1 0 -4 2.5t-6 2.5q-3 -8 0 -16t9.5 -14t15 -9.5t16.5 -1.5q7 1 39 14q27 10 50 13q19 2 32 -1q25 52 25 95q0 80 -65 80q-17 0 -40.5 -14t-47 -32.5t-43 -36.5t-27.5 -26q-17 -16 -38.5 -34.5t-46.5 -47.5q-11 -14 -21 -6q-12 8 1 21q28 26 63.5 63t74 70t76 55
t70.5 18q7 -1 14 -1t15 -2q93 -14 93 -99q0 -7 -1.5 -17.5t-3.5 -21.5t-5 -22t-6 -19z" />
    <glyph glyph-name="afii10096" unicode="&#x44e;" horiz-adv-x="648" 
d="M692 164q-26 -45 -91 -62q-30 -8 -52 -8q-35 0 -60 16q-29 -28 -59.5 -51t-61 -39.5t-59.5 -25.5t-53 -9q-74 0 -74 72q0 58 53 137q0 1 2 3l-41.5 -13.5t-43.5 -11.5t-36.5 -2t-20.5 15l-67.5 -93.5l-71.5 -93.5q-5 -1 -15.5 -1.5t-21.5 0t-19 2t-8 4.5q0 -2 12 13
l32 41.5l45.5 61l52 71.5l52.5 72.5l46.5 64l33.5 46t14 18.5q2 2 15.5 3t23.5 1q19 1 21 -4q2 -6 -42 -65l-62 -85q8 -6 12 -19q-14 -19 -6 -25t26 -4.5t41 7.5t39 12q55 73 135 129q89 62 156 62q74 0 74 -72q0 -58 -53 -137q-11 -16 -23 -31.5t-26 -30.5q22 -13 43 -13
q17 0 44 8q58 18 73 49q7 7 14 7q11 0 11 -10q0 -5 -4 -9zM543 224q37 62 37 106q0 46 -41 46q-45 0 -111 -51q-65 -50 -115 -123q-52 -76 -52 -129q0 -46 42 -46q67 0 162 98q-27 22 -27 49q0 23 20 40q24 18 54 18q20 0 31 -8z" />
    <glyph glyph-name="afii10097" unicode="&#x44f;" horiz-adv-x="600" 
d="M615 386q-17 -25 -47 -65l-72 -100q-76 -109 -84 -157q-6 -30 16 -30q12 0 33.5 12t42.5 29q38 29 71.5 58t61.5 58q9 10 18 10q8 0 8 -7q2 -8 -6 -16q-44 -51 -126 -111q-45 -37 -83.5 -54t-61.5 -14q-54 7 -51 62q0 10 3 21q10 37 61 103q-20 -8 -41 -11t-40 1
q-15 -2 -26.5 -6.5t-20.5 -11t-17.5 -14.5l-18.5 -17q-27 -31 -46.5 -51.5t-35 -33.5t-28.5 -21.5t-27 -15.5q-23 -11 -45.5 -7.5t-40.5 17.5t-28.5 36t-8.5 49q2 20 9.5 43.5t32.5 46.5q13 9 27 14t26 3t19.5 -12.5t6.5 -32.5q-1 -17 -12.5 -32.5t-33.5 -15.5q-11 0 -19 -6
t-14 -16q-7 -14 -2 -32.5t19 -30t35.5 -10t47.5 27.5l25.5 26.5l20 20.5l20.5 21l27 28q4 4 12 10.5t17.5 13.5t20 14t19.5 12q-24 18 -28 52q-3 22 2.5 42t17.5 41q17 23 37.5 41t46.5 30q55 21 98 9q50 -17 58 -68v-22q2 2 4.5 5t5.5 6q14 14 20.5 21.5t15.5 15.5
q1 2 5.5 7t9.5 10t8.5 8t2.5 2q3 2 9.5 2.5t12 -0.5t9 -3t1.5 -5zM474 282q8 18 11.5 33t1.5 31q-1 17 -10 27t-20 15q-32 9 -70 -13q-16 -10 -34 -34t-29.5 -51.5t-11 -53.5t22.5 -39q43 -14 96 32z" />
    <glyph glyph-name="afii10071" unicode="&#x451;" horiz-adv-x="408" 
d="M503 233q10 -8 -5 -26q-48 -57 -153 -131q-126 -89 -227 -89q-38 0 -64 16q-41 26 -41 80q0 89 95 187q58 59 129 97t119 38q45 0 45 -27t-46 -78q-41 -44 -86 -76q-77 -55 -163 -73q-10 -31 -10 -55q0 -38 25 -56q22 -15 52 -15q66 0 157 65q88 63 148 132q17 18 25 11z
M360 383q-27 0 -78 -30q-54 -32 -100 -79q-39 -40 -65 -97q68 18 137 66q44 31 83.5 71t39.5 58q0 11 -17 11zM446 478q-2 -27 -29 -27q-28 0 -26 27q2 28 30 28q27 0 25 -28zM342 478q-2 -27 -29 -27q-28 0 -26 27q2 28 30 28q27 0 25 -28z" />
    <glyph glyph-name="afii10101" unicode="&#x454;" horiz-adv-x="398" 
d="M136 144q-17 -4 -30 -15l-6 -4q-1 -11 -1 -22q0 -18 3 -31q2 -3 3 -7v-5q14 -37 59 -37q66 0 164 74q94 72 143 130q11 13 21 6t-1 -21q-43 -56 -159 -139q-111 -80 -189 -80q-14 0 -29 3q-93 14 -93 99q0 57 47.5 129.5t125.5 123.5q73 49 126 49t53 -49q0 -35 -31 -80
q-3 -5 -11 -5q-9 1 -22 9t-16 13q-2 7 6.5 12t21.5 22q15 21 15 35q0 20 -25 20q-31 0 -72 -32q-48 -35 -90 -99q-32 -49 -44 -93q23 19 55 24q24 3 55 -1q35 -5 44 -4q18 1 28 17q9 13 9 26q-1 10 -5 10q-3 -1 -5.5 -4.5t-3.5 -4.5q-6 0 -10 4t-5 10q0 8 4.5 14t13.5 6
q18 -1 21 -30q2 -28 -12.5 -48t-38.5 -25q-14 -2 -37 -1q-11 0 -25 0.5t-27 0.5h-30z" />
    <glyph glyph-name="afii10102" unicode="&#x455;" horiz-adv-x="321" 
d="M413 210q-63 -65 -149 -130q-136 -103 -225 -83q-75 17 -75 96q0 30 16 59q19 33 47 29q21 19 59 57q34 30 82 82q6 10 13.5 38t20.5 48q18 27 39 27q22 0 22 -25q0 -24 -15.5 -46t-44.5 -48q-3 -11 8 -64q13 -62 13 -97q0 -54 -30 -95q39 24 82 59q78 63 120 110
q6 7 12 7q11 0 11 -11q0 -7 -6 -13zM173 257q0 10 -3 26l-68 -65q-15 -15 -56 -53q3 -7 3 -14q0 -21 -14 -31q-1 0 -23 -10q-11 -6 -17 -19q-2 -6 -2 -14q0 -42 43 -50q20 -4 47.5 15t51.5 58q38 64 38 157z" />
    <glyph glyph-name="afii10103" unicode="&#x456;" horiz-adv-x="263" 
d="M330 563q10 0 10 -13q0 -17 -15 -43q-31 -56 -59 -56q-10 0 -10 14q0 17 15 42q32 56 59 56zM355 211q-43 -52 -135 -121q-132 -98 -183 -91q-54 7 -54 62q0 11 2 21q10 45 94 153q30 38 79 93q47 51 59 60q4 3 13 4q10 2 16 0q6 -1 3 -6l-112 -165q-71 -110 -77 -157
q-5 -30 17 -30q38 0 140 83q91 73 122 112q4 5 11 5q12 0 12 -10q0 -6 -7 -13z" />
    <glyph glyph-name="afii10104" unicode="&#x457;" horiz-adv-x="263" 
d="M355 211q-43 -52 -135 -121q-132 -98 -183 -91q-54 7 -54 65q0 9 2 18q9 49 94 153q121 148 134 155q8 5 19 5q13 1 13 -7q0 -9 -37 -63q-59 -84 -71 -104q-71 -110 -77 -157q-5 -30 17 -30q38 0 140 83q91 73 122 112q4 5 11 5q12 0 12 -10q0 -6 -7 -13zM338 483
q-2 -27 -29 -27q-28 0 -26 27q2 28 29 28q28 0 26 -28zM234 483q-2 -27 -29 -27q-28 0 -26 27q2 28 29 28q28 0 26 -28z" />
    <glyph glyph-name="afii10110" unicode="&#x45e;" horiz-adv-x="457" 
d="M554 218q-30 -44 -153 -138q-78 -60 -187 -99q-74 -116 -134 -194t-129 -120q-58 -35 -102 -35q-45 0 -45 42q0 34 28.5 81.5t78.5 92.5q94 82 256 141l53 109q-24 -24 -37 -35q-33 -28 -73 -46q-45 -22 -73 -18q-54 7 -54 63q0 10 2 20q9 49 94 153q121 148 134 155
q8 5 19 5q13 1 13 -7q0 -9 -37 -63q-59 -84 -71 -104q-71 -110 -77 -157q-5 -30 17 -30q7 0 18 4q84 30 194 179q99 134 149 171q4 3 13 4q10 2 16 0q6 -1 3 -6q-14 -20 -234 -370q102 43 155 84q94 72 144 132q6 6 17 0q9 -5 2 -14zM152 -41q-127 -49 -207 -118
q-39 -35 -66 -77.5t-27 -70.5q0 -29 25 -29q29 0 77 34q53 39 97.5 97t100.5 164zM511 558q-11 -35 -48 -72q-46 -45 -99 -46q-55 -2 -82 40q-20 32 -16 71q2 23 15 23q5 0 8 -6t3 -15q-1 -26 22.5 -49t58.5 -22q37 1 72 25q32 23 43 51q8 19 18 18q9 -1 5 -18z" />
    <glyph glyph-name="endash" unicode="&#x2013;" horiz-adv-x="594" 
d="M561 285l-21 -33h-429l20 33h430z" />
    <glyph glyph-name="emdash" unicode="&#x2014;" horiz-adv-x="972" 
d="M941 285l-21 -33h-809l20 33h810z" />
    <glyph glyph-name="quoteleft" unicode="&#x2018;" horiz-adv-x="246" 
d="M261 791q0 -6 -7 -5q-24 3 -66 -21.5t-43 -44.5q0 -4 14 -7q36 -7 34 -40q-2 -18 -15.5 -31t-29.5 -13q-21 0 -32 12t-9 34q3 46 51 84.5t96 38.5q7 0 7 -7z" />
    <glyph glyph-name="quoteright" unicode="&#x2019;" horiz-adv-x="474" 
d="M469 751q-3 -46 -51 -84.5t-96 -38.5q-7 0 -7 7q0 6 7 5q24 -3 66 21.5t43 44.5q0 4 -15 7q-35 7 -33 40q2 18 15.5 31t29.5 13q21 1 32 -11.5t9 -34.5z" />
    <glyph glyph-name="quotesinglbase" unicode="&#x201a;" horiz-adv-x="246" 
d="M182 35q-3 -47 -51.5 -85t-96.5 -38q-7 0 -6 7q0 6 7 5q24 -3 65.5 21.5t43.5 43.5q0 5 -15 8q-35 7 -33 40q1 18 15 31t30 13q20 0 31 -12t10 -34z" />
    <glyph glyph-name="quotedblleft" unicode="&#x201c;" horiz-adv-x="317" 
d="M389 788q0 -6 -7 -5q-24 3 -66 -21.5t-43 -44.5q0 -4 15 -7q35 -7 33 -40q-2 -18 -15.5 -31t-29.5 -13q-21 0 -32 12t-9 34q3 46 51 84.5t96 38.5q7 0 7 -7zM271 788q0 -6 -7 -5q-24 3 -66 -21.5t-43 -44.5q0 -4 15 -7q35 -7 33 -40q-2 -18 -15.5 -31t-29.5 -13
q-21 0 -32 12t-9 34q3 46 51 84.5t96 38.5q7 0 7 -7z" />
    <glyph glyph-name="quotedblright" unicode="&#x201d;" horiz-adv-x="564" 
d="M562 758q-3 -47 -51.5 -85t-96.5 -38q-7 0 -6 7q0 6 7 5q24 -4 65.5 20.5t43.5 44.5q0 5 -15 8q-35 7 -33 40q1 17 15 30t30 14q20 0 31 -12.5t10 -33.5zM444 758q-3 -47 -51.5 -85t-96.5 -38q-7 0 -6 7q0 6 7 5q24 -4 65.5 20.5t43.5 44.5q0 5 -15 8q-35 7 -33 40
q1 17 15 30t30 14q20 0 31 -12.5t10 -33.5z" />
    <glyph glyph-name="quotedblbase" unicode="&#x201e;" horiz-adv-x="403" 
d="M300 35q-3 -47 -51.5 -85t-96.5 -38q-7 0 -6 7q0 6 7 5q24 -3 65.5 21.5t43.5 43.5q0 5 -15 8q-35 7 -33 40q1 18 15 31t30 13q20 0 31 -12t10 -34zM182 35q-3 -47 -51.5 -85t-96.5 -38q-7 0 -6 7q0 6 7 5q24 -3 65.5 21.5t43.5 43.5q0 5 -15 8q-35 7 -33 40q1 18 15 31
t30 13q20 0 31 -12t10 -34z" />
    <glyph glyph-name="dagger" unicode="&#x2020;" horiz-adv-x="607" 
d="M674 548q0 -16 -9.5 -28.5t-25.5 -12.5q-23 0 -69.5 12.5t-70.5 13.5q-28 -38 -73 -124q-27 -52 -100 -135q-116 -133 -267 -345h-19q159 212 244 360q30 52 113 139q29 29 86 105q-40 -3 -101 -20q-17 -5 -29 -5q-22 0 -22 25q0 38 41 38q21 0 60.5 -12.5t60.5 -12.5
q31 46 61 108q25 50 32 61q25 36 53 36q24 0 24 -18q0 -23 -35 -61q-6 -7 -53 -51q-38 -36 -66 -74h10q25 0 69.5 12.5t61.5 12.5q24 0 24 -24z" />
    <glyph glyph-name="daggerdbl" unicode="&#x2021;" horiz-adv-x="610" 
d="M678 556q0 -18 -11 -31t-29 -13q-17 0 -61.5 13.5t-73.5 13.5q-17 -27 -32 -62q-30 -27 -57 -61q29 0 73.5 13.5t65.5 13.5q26 0 26 -24q0 -42 -42 -42q-18 0 -62 13t-71 13q-22 -28 -67 -110q-30 -54 -90 -121q-79 -87 -186 -237h-20q107 143 173 251q38 62 105 133
l68 84q-25 0 -68 -12.5t-65 -12.5q-20 0 -20 25q0 39 41 39q21 0 61 -12.5t61 -13.5q24 38 34 65q24 20 56 58q-26 0 -69 -12.5t-64 -12.5q-20 0 -20 24q0 17 12 28.5t30 11.5q16 0 55.5 -12.5t65.5 -13.5q35 53 61 108q24 49 32 61q24 35 55 35q22 0 22 -18q0 -22 -36 -60
q-3 -4 -52 -51q-42 -40 -66 -75q28 1 76 14t62 13q27 0 27 -23z" />
    <glyph glyph-name="bullet" unicode="&#x2022;" horiz-adv-x="426" 
d="M347 404q0 -54 -38 -92t-92 -38t-92 38t-38 92t38 92t92 38t92 -38t38 -92z" />
    <glyph glyph-name="ellipsis" unicode="&#x2026;" horiz-adv-x="631" 
d="M591 40q-3 -18 -15 -30.5t-27 -12.5q-14 0 -22.5 12.5t-5.5 30.5t15.5 30.5t26.5 12.5q15 0 23 -12.5t5 -30.5zM375 40q-3 -18 -15 -30.5t-27 -12.5q-14 0 -22.5 12.5t-5.5 30.5t15.5 30.5t26.5 12.5q15 0 23 -12.5t5 -30.5zM151 40q-3 -18 -15 -30.5t-27 -12.5
q-14 0 -22.5 12.5t-5.5 30.5t15.5 30.5t26.5 12.5q15 0 23 -12.5t5 -30.5z" />
    <glyph glyph-name="perthousand" unicode="&#x2030;" horiz-adv-x="960" 
d="M936 523q13 -40 13 -79q0 -74 -47 -135q-33 -44 -77 -67q-30 -16 -31 -3q-1 14 22 25q29 14 63 55q46 55 46 113q0 17 -4 34q-18 69 -103 116t-188 47q-82 0 -151 -32q-109 -51 -192 -139q-32 -34 -99 -128q-89 -124 -138 -159q-11 -9 -18 -3q-9 8 9 25q52 47 122 146
q90 129 120 163q118 139 228 176q63 21 129 21q104 0 187.5 -48.5t108.5 -127.5z" />
    <glyph glyph-name="guilsinglleft" unicode="&#x2039;" horiz-adv-x="275" 
d="M208 441l-7 -35l-3 -4l-73 -50l51 -89l-14 -9l-64 112q-3 5 2 9l101 69q4 3 6 2q2 0 1 -5z" />
    <glyph glyph-name="guilsinglright" unicode="&#x203a;" horiz-adv-x="379" 
d="M338 330q3 -5 -3 -9l-101 -69q-4 -3 -6 -2t-1 5l7 35l3 5l73 49l-51 89l14 9z" />
    <glyph glyph-name="afii61352" unicode="&#x2116;" horiz-adv-x="1932" 
d="M2053 729q0 -16 -8 -17q-9 -1 -14 13q-8 18 -32 31q-28 16 -64 15q-103 0 -233 -117q-84 -76 -202 -226l-220 -299q-103 -132 -164 -132q-14 0 -28 6q-45 21 -45 96q0 99 68 246q-273 -302 -559 -382q-101 -29 -202 -29q-117 0 -198 39q-90 44 -117 129q-11 33 -11 66
q0 115 116 208q119 97 329 144q115 26 234 26q140 0 272 -35q107 -28 182 -70l21 39q82 162 148.5 257.5t91.5 85.5q7 -4 7 -15q0 -36 -63 -137q-29 -47 -83 -118q-98 -126 -98 -127q59 -37 59 -53q0 -2 -2 -4q-10 -10 -39 14q-13 10 -33 22q-80 -169 -80 -276q0 -82 48 -82
q40 0 128 116l209 278q140 177 209 243q156 149 277 137q40 -4 70 -35q26 -28 26 -57zM1144 418q-63 40 -175 68q-129 32 -267 32q-114 0 -220 -23q-214 -47 -326 -143q-94 -81 -94 -172q0 -88 88 -129q67 -32 166 -32q64 0 139 12q171 28 368 137q181 100 287 213z
M2028 459q-61 -49 -113 -49q-29 0 -80.5 23.5t-78.5 23.5q-39 0 -84 -44l-18 24q51 51 102 51q29 0 80.5 -23.5t78.5 -23.5q44 0 92 42zM1932 593q-2 -31 -24.5 -54t-53.5 -23t-51.5 22.5t-18.5 54.5q2 30 26 51.5t54 21.5q31 0 51 -21t17 -52zM1910 592q2 22 -12 36.5
t-35 14.5t-38 -15t-19 -36q-1 -21 13.5 -37t36.5 -16q21 0 37 16t17 37z" />
    <glyph glyph-name="trademark" unicode="&#x2122;" horiz-adv-x="840" 
d="M787 737l-1 -5l-23 -3q-10 -2 -11 -6l-26 -184q-1 -7 6 -8l23 -3l-1 -5h-92l1 4l26 4q6 1 7 8l25 167l-112 -183l-39 184l-50 -168q-1 -7 7 -8l22 -3l-1 -5h-76l1 4l23 4q8 1 10 7l54 184q2 5 -7 7l-22 3l1 5h64l32 -162l98 162h61zM508 737l-5 -45h-4l-3 25q0 5 -5 5
h-46l-42 -190v0l30 -4l-1 -5h-90l1 5l31 4l42 190h-46q-4 0 -7 -5l-15 -26h-4l16 46h148z" />
    <glyph glyph-name="apple" unicode="&#xf000;" horiz-adv-x="1368" 
d="M1117 855q0 -89 -71 -234q-79 -159 -152 -159q-27 0 -42 21q-14 18 -14 46q0 20 7 46q-22 -50 -54 -90q-44 -56 -82 -56q-22 0 -35 21q-10 18 -10 42q0 55 44 155q41 91 81 144q22 28 40 28q16 0 16 -19q0 -11 -37 -68q-48 -77 -67 -113q-36 -70 -36 -114q0 -40 25 -40
q55 0 173 298q14 36 37 36q20 0 20 -18q0 -15 -45 -107.5t-45 -135.5q0 -42 28 -42q42 0 95 107q38 77 57 149q12 43 16 92q3 42 29 42q22 0 22 -31zM671 612q0 -12 -21 -20l-33 -8q-18 -103 -48 -177q-11 -28 -32 -28q-15 0 -15 12q0 15 21 85l28 93q-62 -24 -120 -53
l-78 -154q-10 -20 -26 -20q-15 0 -15 11q0 20 71 137q-43 -24 -45 -24q-4 0 -4 6q0 13 69 50q37 70 89 144q76 107 111 107q18 0 18 -36q0 -31 -17 -122q27 8 35 8q12 0 12 -11zM1354 344q0 -16 -28 -43t-45 -28q-10 -61 -47 -61q-21 0 -43 19t-22 40q0 12 72 12q3 17 3 47
q0 65 -9 84l-62 -96q-69 -115 -119 -115q-28 0 -28 30q0 24 43 128q-101 -179 -164 -179q-23 0 -23 21q0 24 28 82.5t27 66.5v1l-2 1q-15 -5 -58 -71q-34 -53 -51 -87q-6 -13 -18 -37q-5 -9 -14 -9q-23 0 -23 15t29.5 86.5t29.5 93.5v3l-4 2q-2 -1 -6 -4q-42 -38 -96 -126
q-27 -43 -66 -45q-15 -28 -48.5 -48.5t-65.5 -20.5q-55 0 -55 60q0 16 6 32q-6 -9 -25 -40q-3 -15 -18.5 -25.5t-30.5 -10.5q-11 0 -25 7q11 -28 11 -64q0 -59 -27 -111q-34 -64 -87 -64q-30 0 -30 51q0 76 69 249q63 158 116 238q15 22 32 22q19 0 19 -19q0 -44 -96 -189
q-12 -16 -33 -50q-13 -25 -37.5 -125t-24.5 -126q0 -21 5 -21q29 0 49 81q16 63 16 108q0 7 -1.5 21.5t-1.5 21.5l2 7l19.5 -9t33.5 -9t25 15q3 13 58 91q20 28 31 40q21 20 42 24l6 1q23 24 47 24t39 -23q12 -21 12 -47q0 -36 -22 -71q24 -1 40 23q49 77 67 101
q54 72 84 72q14 0 14 -16q0 -33 -39 -123q95 153 139 153q13 0 13 -17q0 -24 -27.5 -84.5t-27.5 -74.5q0 -5 6 -5q23 0 70 64q3 3 58 87q9 12 26 39q0 1 21 47q-62 -28 -64 -28q-4 0 -4 6q0 20 80 53l23 56q18 34 45 34q5 0 5 -3q0 -6 -29 -69q67 30 80 30q7 0 7 -11
q0 -20 -41 -35l-58 -18l-48 -120q-35 -90 -35 -115q0 -9 5 -9q31 0 102.5 119t81.5 119q13 0 20 -61q5 -42 5 -76q0 -25 -3 -43h3q15 4 34 26l28 34q5 0 5 -6zM452 690q0 -24 -24 -35q4 6 4 13q0 3 -6 3q-13 0 -48 -14l5 -3q-50 -198 -77 -261q-67 -155 -176 -186
q-10 -2 -24 -2q-26 0 -48 12q-27 15 -27 39q0 19 15 19q6 0 24 -15.5t41 -15.5q7 0 16 3q86 22 147 165q44 102 62 226q-18 -6 -48 -25l-11 -7q-10 0 -10 13q0 24 70 60q65 34 94 34q21 0 21 -23zM1238 267q-43 0 -43 -8q0 -6 10.5 -16.5t17.5 -10.5q9 0 15 35zM593 692
q0 18 -5 18q-16 0 -118 -159q62 32 109 50q14 58 14 91zM652 271q0 38 -24 38q-19 0 -29 -17.5t-10 -38.5q0 -46 45 -56q18 41 18 74zM620 175q-51 9 -51 67q0 16 6 32q-44 -53 -44 -95q0 -47 32 -47q31 0 57 43z" />
    <glyph glyph-name="fi" unicode="&#xf001;" horiz-adv-x="571" 
d="M638 563q10 0 10 -13q0 -17 -15 -43q-31 -56 -59 -56q-10 0 -10 14q0 17 15 42q32 56 59 56zM663 211q-43 -52 -135 -121q-132 -98 -183 -91q-54 7 -54 62q0 20 9 42q-16 -14 -27 -22q-64 -44 -77 -52q-59 -34 -101 -32q-56 3 -86 36l-196 -367q-39 -15 -101 -31
q-13 0 -13 7q-1 7 9 13q20 14 41 45q14 21 337 557q344 573 448 573q37 0 37 -43q0 -100 -210 -366q-161 -202 -297 -282l-20 -38q3 -57 39 -68q16 -5 31 -5q55 0 151 75q50 40 122 132q30 38 79 93q47 51 59 60q4 3 13 4q10 2 16 0q6 -1 3 -6l-112 -165q-71 -110 -77 -157
q-5 -30 17 -30q38 0 140 83q91 73 122 112q4 5 11 5q12 0 12 -10q0 -6 -7 -13zM515 781q-52 0 -219 -241q-81 -117 -179 -301l-22 -41q125 87 245 239q63 80 121 175q70 112 70 151q0 18 -16 18z" />
    <glyph glyph-name="fl" unicode="&#xf002;" horiz-adv-x="644" 
d="M933 793q0 -81 -230 -339q-157 -176 -267 -245q-36 -80 -36 -124q0 -53 44 -53q47 0 150 81q65 51 119 109q10 12 20 12q9 0 9 -9q0 -29 -152 -143q-122 -93 -195 -93q-16 0 -29 5q-40 15 -40 66q0 36 20 90q-43 -47 -73 -69q-64 -44 -77 -52q-59 -34 -101 -32
q-56 3 -86 36l-196 -367q-39 -15 -101 -31q-13 0 -13 7q-1 7 9 13q20 14 41 45q14 21 337 557q344 573 448 573q37 0 37 -43q0 -100 -210 -366q-161 -202 -297 -282l-20 -38q3 -57 39 -68q16 -5 32 -5q55 0 150 75q62 49 126 143l147 230q248 347 361 347q34 0 34 -30z
M881 780q-41 9 -150 -113q-92 -104 -163 -217q-58 -92 -112 -199q113 89 233 222q204 227 204 290q0 14 -12 17zM515 781q-52 0 -219 -241q-81 -117 -179 -301l-22 -41q125 87 245 239q63 80 121 175q70 112 70 151q0 18 -16 18z" />
    <glyph glyph-name="NULL" horiz-adv-x="0" 
 />
    </font>
</defs>
</svg>
